<?xml version="1.0" encoding="UTF-8"?>
<svg id="Layer_1" xmlns="http://www.w3.org/2000/svg" version="1.1" viewBox="0 0 1584 576">
  <!-- Generator: Adobe Illustrator 29.8.3, SVG Export Plug-In . SVG Version: 2.1.1 Build 3)  -->
  <defs>
    <style>
      .st0, .st1 {
        fill: #333;
      }

      .st2 {
        fill: #fff;
      }

      .st1 {
        stroke: #333;
        stroke-miterlimit: 10;
        stroke-width: 1.48px;
      }

      .st3 {
        fill: #f16022;
      }

      .st4 {
        fill: #ec6624;
      }
    </style>
  </defs>
  <g>
    <path class="st0" d="M775.53,185.32c-2.33,0-4.85.25-7.54.76-2.69.5-5.35,1.29-7.98,2.35-2.62,1.07-5.14,2.45-7.54,4.14-2.4,1.69-4.52,3.73-6.37,6.14-1.85,2.4-3.33,5.17-4.43,8.31-1.1,3.15-1.65,6.71-1.65,10.68v63.77h25.3v-63.77c0-3.03.87-5.32,2.62-6.9,1.76-1.57,4.35-2.35,7.79-2.35h56.92v-23.13h-57.12Z"/>
    <path class="st0" d="M939.01,185.32v73.03h-44.27c-3.05,0-5.89-.46-8.52-1.38-2.62-.92-4.91-2.24-6.86-3.96-1.94-1.72-3.48-3.78-4.62-6.18-1.13-2.4-1.7-5.12-1.7-8.14v-53.37h-25.3v53.37c0,5.22.73,9.9,2.19,14.05,1.46,4.15,3.39,7.82,5.79,10.99,2.4,3.17,5.2,5.87,8.41,8.09,3.22,2.23,6.54,4.07,9.98,5.52s6.92,2.5,10.46,3.15c3.53.66,6.86.98,9.97.98h57.22c1.75,0,3.39-.29,4.92-.89,1.52-.59,2.85-1.4,3.99-2.44,1.13-1.04,2.02-2.27,2.67-3.69.65-1.43.97-2.97.97-4.63v-84.5h-25.3Z"/>
    <path class="st0" d="M1087.85,238.43c-1.26-3.79-3.29-7.31-6.08-10.54-2.79-3.23-6.46-5.91-11-8.05-4.54-2.13-10.05-3.2-16.54-3.2h-39.22c-.58,0-1.18-.01-1.8-.04-.61-.03-1.16-.17-1.65-.4-.49-.24-.89-.63-1.22-1.16-.32-.54-.52-1.28-.58-2.22,0-.48.03-.97.1-1.47.06-.51.27-.98.63-1.43.36-.44.91-.8,1.65-1.06.75-.27,1.77-.4,3.07-.4h61.98v-23.13h-62.18c-3.11,0-6.45.49-10.02,1.47-3.57.98-6.88,2.56-9.92,4.76-3.05,2.19-5.58,5.05-7.6,8.58-2.01,3.53-3.01,7.87-3.01,13.03,0,2.67.53,5.55,1.6,8.63,1.07,3.08,2.83,5.96,5.26,8.63,2.43,2.67,5.59,4.89,9.49,6.67,3.89,1.78,8.62,2.67,14.2,2.67h39.22c6.49,0,9.89,3.08,10.22,9.25,0,3.02-.88,5.33-2.63,6.94-1.75,1.6-4.35,2.4-7.78,2.4h-68.32v23.12h68.51c2.4,0,4.95-.25,7.64-.75,2.69-.51,5.35-1.29,7.98-2.36,2.63-1.07,5.14-2.45,7.54-4.14,2.4-1.69,4.51-3.73,6.32-6.13,1.82-2.4,3.28-5.19,4.38-8.36,1.11-3.18,1.66-6.75,1.66-10.72,0-3.26-.63-6.79-1.9-10.59Z"/>
    <path class="st3" d="M1145.12,206.05v23.3h79.89v-23.3h-79.89ZM1236.39,177.05v-23.13h-113.95c-1.81,0-3.5.3-5.06.89-1.55.6-2.9,1.42-4.03,2.49-1.14,1.07-2.03,2.31-2.68,3.74-.65,1.42-.97,2.93-.97,4.53v83.44c0,5.99,1.18,11.04,3.55,15.16,2.37,4.13,5.32,7.47,8.85,10.05,3.54,2.58,7.38,4.44,11.53,5.56,4.15,1.13,7.98,1.69,11.49,1.69h91.27v-23.12h-91.08c-3.37,0-5.93-.8-7.69-2.4-1.75-1.61-2.62-3.92-2.62-6.94v-71.96h101.39Z"/>
    <path class="st3" d="M1296.24,206.05v23.3h79.99v-23.3h-79.99ZM1273.57,153.93c-1.82,0-3.51.3-5.06.89-1.56.6-2.91,1.42-4.04,2.49-1.14,1.07-2.03,2.31-2.68,3.74-.65,1.42-.97,2.93-.97,4.53v115.9h25.3v-104.42h101.4v-23.13h-113.95Z"/>
    <path class="st3" d="M1408.15,153.93v127.55h25.3v-127.55h-25.3Z"/>
    <path class="st1" d="M754.18,321.63h-11.74v37.48h5.58v-16.45h6.16c5.23,0,11.16-3.41,11.16-10.52s-5.93-10.51-11.16-10.51ZM753.19,337.96h-5.17v-11.4h5.17c3.32,0,6.4,1.82,6.4,5.7s-3.08,5.7-6.4,5.7Z"/>
    <path class="st1" d="M795.34,320.87c-9.89,0-19.65,7.41-19.65,19.45s9.76,19.51,19.65,19.51,19.64-7.35,19.64-19.51-9.76-19.45-19.64-19.45ZM795.34,355c-6.86,0-13.96-5.29-13.96-14.57s7.1-14.51,13.96-14.51,13.94,5.22,13.94,14.51-7.2,14.57-13.94,14.57Z"/>
    <path class="st1" d="M869.04,321.63l-5.99,17.27c-.81,2.35-1.97,5.58-2.73,8.58h-.12c-.81-3.06-1.8-6.17-2.61-8.58l-5.99-17.27h-4.82l-5.93,17.27c-.87,2.53-1.86,5.52-2.68,8.58h-.11c-.76-3.06-1.86-6.11-2.73-8.58l-5.99-17.27h-5.64l13.14,38.01h1.92l6.91-20.03c.99-2.82,2.04-6,3.2-10.05h.12c1.16,4.05,2.2,7.17,3.19,10.05l6.92,20.03h1.92l13.19-38.01h-5.17Z"/>
    <path class="st1" d="M890.78,354.24v-11.52h12.03v-4.88h-12.03v-11.34h14.36v-4.87h-20v37.48h22.03v-4.87h-16.39Z"/>
    <path class="st1" d="M933.04,341.79c3.6-1.47,6.51-4.64,6.51-9.64,0-7.11-5.93-10.51-11.16-10.51h-11.16v37.48h5.58v-16.45h4.24l11.68,16.45h6.98l-12.67-17.33ZM927.4,337.96h-4.59v-11.4h4.59c3.31,0,6.39,1.82,6.39,5.7s-3.08,5.7-6.39,5.7Z"/>
    <path class="st1" d="M946.81,321.63v4.87h11.92v32.61h5.64v-32.61h11.91v-4.87h-29.47Z"/>
    <path class="st1" d="M1002.15,341.79c3.6-1.47,6.51-4.64,6.51-9.64,0-7.11-5.93-10.51-11.16-10.51h-11.16v37.48h5.58v-16.45h4.24l11.68,16.45h6.98l-12.67-17.33ZM996.51,337.96h-4.59v-11.4h4.59c3.31,0,6.39,1.82,6.39,5.7s-3.08,5.7-6.39,5.7Z"/>
    <path class="st1" d="M1037.9,321.11h-2.04l-15.81,38.01h5.52l4.01-9.69h14.42l4.01,9.69h5.69l-15.8-38.01ZM1031.5,344.89l3.66-9.16c.53-1.24,1.17-3,1.57-4.59h.12c.46,1.59,1.05,3.35,1.57,4.59l3.66,9.16h-10.58Z"/>
    <path class="st1" d="M1065.21,321.63v37.48h5.64v-37.48h-5.64Z"/>
    <path class="st1" d="M1112.59,321.63v17.74c0,2.7,0,5.93.11,8.81l-.11.06c-2.27-2.82-5.64-6.58-7.79-8.99l-15.93-17.62h-3.89v37.48h5.64v-18.8c0-2.82,0-5.99-.12-9.4l.12-.06c2.55,3.06,5.75,6.82,8.54,9.87l17.38,19.22h1.68v-38.31h-5.63Z"/>
    <path class="st1" d="M1155.37,340.49c0-9.52,7.5-14.16,14.59-14.16,3.78,0,7.38,1.23,9.18,2.4l.99-5.05c-2.27-1.29-5.81-2.41-10.81-2.41-9.07,0-19.65,6.35-19.65,19.1s10.46,19.04,19.65,19.04c4.65,0,7.26-.53,9.59-1.77l.52-5.17c-2.26,1.3-5.17,2.12-9.47,2.12-7.27,0-14.59-4.64-14.59-14.1Z"/>
    <path class="st1" d="M1209.54,320.87c-9.88,0-19.65,7.41-19.65,19.45s9.77,19.51,19.65,19.51,19.65-7.35,19.65-19.51-9.77-19.45-19.65-19.45ZM1209.54,355c-6.86,0-13.95-5.29-13.95-14.57s7.09-14.51,13.95-14.51,13.95,5.22,13.95,14.51-7.21,14.57-13.95,14.57Z"/>
    <path class="st1" d="M1268.89,321.63v17.74c0,2.7,0,5.93.11,8.81l-.11.06c-2.27-2.82-5.64-6.58-7.79-8.99l-15.93-17.62h-3.89v37.48h5.64v-18.8c0-2.82,0-5.99-.12-9.4l.12-.06c2.55,3.06,5.75,6.82,8.54,9.87l17.38,19.22h1.69v-38.31h-5.64Z"/>
    <path class="st1" d="M1284.58,321.63v4.87h11.92v32.61h5.64v-32.61h11.91v-4.87h-29.47Z"/>
    <path class="st1" d="M1339.92,341.79c3.6-1.47,6.51-4.64,6.51-9.64,0-7.11-5.93-10.51-11.16-10.51h-11.16v37.48h5.58v-16.45h4.24l11.68,16.45h6.98l-12.67-17.33ZM1334.28,337.96h-4.59v-11.4h4.59c3.31,0,6.39,1.82,6.39,5.7s-3.08,5.7-6.39,5.7Z"/>
    <path class="st1" d="M1376.83,320.87c-9.88,0-19.65,7.41-19.65,19.45s9.77,19.51,19.65,19.51,19.64-7.35,19.64-19.51-9.76-19.45-19.64-19.45ZM1376.83,355c-6.86,0-13.95-5.29-13.95-14.57s7.09-14.51,13.95-14.51,13.95,5.22,13.95,14.51-7.21,14.57-13.95,14.57Z"/>
    <path class="st1" d="M1414.2,354.24v-32.61h-5.63v37.48h21.97v-4.87h-16.34Z"/>
    <path class="st1" d="M929.58,398.68c-3.84-1.29-5.82-2.94-5.82-5.64s2.27-4.94,5.93-4.94c2.97,0,5.76,1.24,7.09,2.18l1.11-4.76c-1.34-1-4.36-2.12-7.96-2.12-7.79,0-11.57,4.88-11.57,10.05s3.43,8.76,9.94,10.87c4.36,1.41,6.28,3.29,6.28,6.7s-2.68,5.58-6.69,5.58-7.67-1.41-10.35-3.47l.64,5.94c1.92,1.29,5.47,2.47,9.42,2.47,8.25,0,12.61-4.47,12.61-11.05s-4.3-9.64-10.63-11.81Z"/>
    <path class="st1" d="M970.09,382.99c-9.88,0-19.65,7.41-19.65,19.45s9.77,19.51,19.65,19.51,19.65-7.35,19.65-19.51-9.77-19.45-19.65-19.45ZM970.09,417.13c-6.86,0-13.95-5.29-13.95-14.57s7.09-14.51,13.95-14.51,13.95,5.22,13.95,14.51-7.21,14.57-13.95,14.57Z"/>
    <path class="st1" d="M1007.47,416.37v-32.61h-5.64v37.48h21.97v-4.87h-16.33Z"/>
    <path class="st1" d="M1058.62,383.76v23.68c0,5.58-3.14,9.46-9.59,9.46s-9.54-3.88-9.54-9.46v-23.68h-5.63v24.26c0,8.76,6.45,13.93,15.11,13.93s15.11-5.17,15.11-13.93v-24.26h-5.46Z"/>
    <path class="st1" d="M1074.14,383.76v4.87h11.91v32.61h5.64v-32.61h11.92v-4.87h-29.47Z"/>
    <path class="st1" d="M1114.25,383.76v37.48h5.63v-37.48h-5.63Z"/>
    <path class="st1" d="M1152.2,382.99c-9.88,0-19.65,7.41-19.65,19.45s9.77,19.51,19.65,19.51,19.65-7.35,19.65-19.51-9.77-19.45-19.65-19.45ZM1152.2,417.13c-6.86,0-13.95-5.29-13.95-14.57s7.09-14.51,13.95-14.51,13.95,5.22,13.95,14.51-7.21,14.57-13.95,14.57Z"/>
    <path class="st1" d="M1211.55,383.76v17.74c0,2.7,0,5.94.11,8.81l-.11.06c-2.27-2.82-5.64-6.58-7.79-8.99l-15.93-17.62h-3.89v37.48h5.64v-18.8c0-2.82,0-5.99-.12-9.4l.12-.06c2.55,3.06,5.75,6.82,8.54,9.87l17.38,19.22h1.68v-38.31h-5.63Z"/>
    <path class="st1" d="M1241.66,398.68c-3.84-1.29-5.82-2.94-5.82-5.64s2.27-4.94,5.93-4.94c2.97,0,5.76,1.24,7.09,2.18l1.11-4.76c-1.34-1-4.36-2.12-7.96-2.12-7.79,0-11.57,4.88-11.57,10.05s3.43,8.76,9.94,10.87c4.36,1.41,6.28,3.29,6.28,6.7s-2.68,5.58-6.69,5.58-7.67-1.41-10.34-3.47l.63,5.94c1.92,1.29,5.47,2.47,9.42,2.47,8.26,0,12.61-4.47,12.61-11.05s-4.3-9.64-10.63-11.81Z"/>
  </g>
  <g>
    <path class="st3" d="M426.87,269.06c-.92-.92-2.19-1.48-3.58-1.48h-106.98s0,10.12,0,10.12h106.98c2.79,0,5.06-2.27,5.06-5.06,0-1.4-.57-2.67-1.48-3.58ZM282.59,233.85h-98.19c-2.22-7.91-9.93-13.53-18.77-12.45-7.82.95-14.09,7.29-14.97,15.12-1.17,10.43,6.96,19.25,17.14,19.25,7.62,0,14.08-4.95,16.36-11.8h94.23l28.43,28.43v-14.32l-9.86-9.86-14.38-14.38ZM167.81,249.17c-5.88,0-10.65-4.77-10.65-10.65s4.77-10.65,10.65-10.65,10.65,4.76,10.65,10.65-4.76,10.65-10.65,10.65Z"/>
    <path class="st3" d="M423.29,244.27h-90.36v-5.49c-.73-.53-1.43-1.09-2.1-1.68-.12.02-.25,0-.38-.1-2.68-2.31-5.1-4.92-7.64-7.39v7.5l-6.49-6.49v14.32l9.46,9.46h97.52c2.79,0,5.06-2.27,5.06-5.06s-2.27-5.06-5.06-5.06ZM283.13,197.44v-41.3c7.5-1.87,13.06-8.64,13.06-16.72,0-10.18-8.82-18.3-19.23-17.15-8.05.9-14.48,7.5-15.2,15.56-.73,8.11,4.18,15.18,11.25,17.77v38.87h-47.17c-2.32-7.41-9.51-12.67-17.82-12.04-8.16.62-14.89,7.1-15.79,15.23-1.15,10.41,6.97,19.22,17.15,19.22,7.8,0,14.38-5.19,16.52-12.29h50.08l30.86,30.86v-14.32l-23.7-23.7ZM209.37,210.28c-5.88,0-10.65-4.76-10.65-10.65s4.76-10.65,10.65-10.65,10.65,4.77,10.65,10.65-4.77,10.65-10.65,10.65ZM268.29,139.42c0-5.88,4.77-10.65,10.65-10.65s10.65,4.76,10.65,10.65-4.76,10.64-10.65,10.64-10.65-4.76-10.65-10.64Z"/>
    <path class="st3" d="M322.8,227.4v1.02c.79.75,1.56,1.51,2.33,2.28-.8-1.08-1.58-2.18-2.33-3.3Z"/>
    <path class="st3" d="M426.87,299.79c-.92-.91-2.19-1.48-3.58-1.48h-106.98v10.13h0s106.97,0,106.97,0c1.5,0,2.86-.66,3.78-1.7.8-.9,1.28-2.07,1.28-3.36,0-1.39-.57-2.66-1.48-3.58ZM280.08,330.35l-26.63-40.58-15.13-3.14c-.24-2.96-1.25-5.89-3.09-8.51-5.32-7.57-15.96-9.56-23.67-4.43-7.82,5.2-10.03,15.69-5.01,23.6,4.94,7.78,15.41,10.31,23.34,5.62,2.72-1.61,4.81-3.84,6.25-6.39l11.15,2.31,21.79,33.2h-84.91c-2.42-7.28-9.56-12.4-17.8-11.74-8.12.66-14.81,7.12-15.7,15.23-1.16,10.41,6.97,19.22,17.14,19.22,7.91,0,14.56-5.33,16.6-12.58h98.19l14.38-14.38,9.86-9.86v-14.32l-9.86,9.86-16.89,16.9ZM226.96,296.96c-4.91,3.22-11.52,1.85-14.74-3.06-3.23-4.92-1.86-11.52,3.06-14.75,4.91-3.22,11.52-1.85,14.74,3.06,3.23,4.91,1.86,11.52-3.06,14.75ZM167.81,348.13c-5.88,0-10.65-4.77-10.65-10.65s4.77-10.65,10.65-10.65,10.65,4.76,10.65,10.65-4.76,10.65-10.65,10.65Z"/>
    <path class="st3" d="M423.29,321.61h-97.52l-9.46,9.46v14.32l6.49-6.49v7.8c.12-.09.24-.17.37-.25,2.74-1.86,5.48-3.78,8.45-5.25.41-.21.85-.41,1.3-.6v-8.85h90.36c2.79,0,5.06-2.27,5.06-5.06s-2.27-5.06-5.06-5.06ZM275.97,371.4h-50.08c-2.25-7.49-9.45-12.84-17.81-12.23-8.18.59-14.95,7.08-15.86,15.23-1.15,10.4,6.97,19.22,17.15,19.22,7.73,0,14.27-5.09,16.47-12.1h47.17v38.88c-7.07,2.59-11.97,9.65-11.25,17.77.72,8.06,7.15,14.66,15.2,15.55,10.41,1.16,19.23-6.96,19.23-17.14,0-8.08-5.56-14.84-13.06-16.72v-41.31l13.85-13.85,9.86-9.85v-14.32l-9.86,9.85-21.01,21.01ZM209.37,387.01c-5.88,0-10.65-4.76-10.65-10.65s4.76-10.65,10.65-10.65,10.65,4.77,10.65,10.65-4.77,10.65-10.65,10.65ZM289.58,436.58c0,5.88-4.76,10.65-10.65,10.65s-10.65-4.76-10.65-10.65,4.77-10.65,10.65-10.65,10.65,4.76,10.65,10.65Z"/>
    <path class="st3" d="M683.96,236.52c-.88-7.82-7.16-14.17-14.97-15.12-8.84-1.08-16.55,4.53-18.77,12.45h-98.19l-33.72,33.72h0s-106.97,0-106.97,0c-2.79,0-5.06,2.26-5.06,5.06,0,1.4.57,2.66,1.48,3.58.92.92,2.19,1.48,3.58,1.48h111.16l15.15-15.15,18.57-18.58h94.24c2.28,6.85,8.74,11.8,16.36,11.8,10.18,0,18.31-8.83,17.14-19.25ZM666.82,249.17c-5.88,0-10.65-4.77-10.65-10.65s4.76-10.65,10.65-10.65,10.65,4.76,10.65,10.65-4.77,10.65-10.65,10.65Z"/>
    <path class="st3" d="M642.41,197.67c-.9-8.14-7.63-14.61-15.8-15.23-8.31-.63-15.49,4.63-17.81,12.04h-47.17v-38.87c7.06-2.59,11.97-9.66,11.25-17.77-.72-8.06-7.15-14.66-15.2-15.56-10.42-1.16-19.24,6.97-19.24,17.15,0,8.08,5.56,14.84,13.06,16.72v41.3l-23.71,23.71-9.47,9.47-6.49,6.49v-5.38c-2.88,2.9-6.58,4.76-10.12,6.79v5.74h-90.36c-2.79,0-5.06,2.27-5.06,5.06s2.27,5.06,5.06,5.06h97.52l9.46-9.46,9.47-9.47,9.86-9.86,21.01-21.01h50.08c2.13,7.11,8.71,12.29,16.52,12.29,10.17,0,18.3-8.81,17.15-19.22ZM555.7,150.06c-5.88,0-10.65-4.76-10.65-10.64s4.76-10.65,10.65-10.65,10.64,4.76,10.64,10.65-4.76,10.64-10.64,10.64ZM625.26,210.28c-5.88,0-10.65-4.76-10.65-10.65s4.76-10.65,10.65-10.65,10.65,4.77,10.65,10.65-4.76,10.65-10.65,10.65Z"/>
    <path class="st3" d="M683.96,335.51c-.9-8.11-7.58-14.57-15.71-15.23-8.23-.66-15.37,4.47-17.79,11.74h-84.91l21.79-33.2,11.15-2.31c1.43,2.55,3.53,4.78,6.25,6.39,7.94,4.69,18.41,2.16,23.34-5.62,5.02-7.91,2.8-18.4-5.02-23.6-7.7-5.13-18.34-3.13-23.66,4.43-1.84,2.62-2.85,5.56-3.09,8.51l-15.13,3.14-26.63,40.58-16.89-16.9-15.15-15.15h-111.16c-1.35,0-2.59.53-3.49,1.41-.97.91-1.57,2.22-1.57,3.65s.57,2.66,1.48,3.58c.03.03.06.05.09.08.9.87,2.14,1.4,3.49,1.4h106.98s33.72,33.72,33.72,33.72h98.19c2.04,7.25,8.69,12.58,16.6,12.58,10.17,0,18.3-8.81,17.14-19.22ZM604.61,282.21c3.22-4.91,9.83-6.28,14.74-3.06,4.92,3.23,6.29,9.83,3.06,14.75-3.22,4.91-9.83,6.28-14.75,3.06-4.91-3.23-6.28-9.83-3.05-14.75ZM666.82,348.13c-5.88,0-10.65-4.77-10.65-10.65s4.76-10.65,10.65-10.65,10.65,4.76,10.65,10.65-4.77,10.65-10.65,10.65Z"/>
    <path class="st3" d="M642.4,374.4c-.9-8.16-7.67-14.64-15.85-15.23-8.36-.61-15.56,4.74-17.81,12.23h-50.08l-21.01-21.01-9.86-9.86-9.47-9.47-9.46-9.46h-97.52c-1.35,0-2.59.53-3.49,1.4-.97.92-1.57,2.22-1.57,3.66s.61,2.75,1.58,3.67c.91.87,2.13,1.39,3.48,1.39h90.36v8.95c.1.06.19.12.29.18,3.6,2.32,6.77,5.19,9.83,8.18v-10.15l6.49,6.49,9.47,9.47,9.86,9.86,13.85,13.85v41.31c-7.5,1.87-13.06,8.64-13.06,16.72,0,10.18,8.82,18.3,19.24,17.14,8.05-.9,14.48-7.49,15.2-15.55.73-8.12-4.19-15.18-11.25-17.77v-38.88h47.17c2.19,7.01,8.74,12.1,16.46,12.1,10.17,0,18.3-8.82,17.14-19.22ZM566.34,436.58c0,5.88-4.76,10.65-10.64,10.65s-10.65-4.76-10.65-10.65,4.76-10.65,10.65-10.65,10.64,4.76,10.64,10.65ZM625.26,387.01c-5.88,0-10.65-4.76-10.65-10.65s4.76-10.65,10.65-10.65,10.65,4.77,10.65,10.65-4.76,10.65-10.65,10.65Z"/>
    <path class="st3" d="M296.98,163.22v240.68h240.68v-240.68h-240.68ZM518.32,230.62v-48.08h-202.01v202.01h202.01v-39.18l9.47,9.47v39.18h-220.96v-220.96h220.96v48.08l-9.47,9.47Z"/>
    <polygon class="st2" points="527.79 221.15 527.79 354.85 518.32 345.38 518.32 384.56 316.31 384.56 316.31 182.55 518.32 182.55 518.32 230.62 527.79 221.15"/>
    <rect class="st0" x="316.31" y="182.55" width="202.01" height="202.01"/>
    <path class="st0" d="M445.42,306.37c5.53-1.16,10.29-3.01,14.54-5.94,13.52-9.31,19.11-22.54,18.93-38.61-.24-21.31-16.2-37.67-37.41-37.79-27.15-.15-54.3-.25-81.45.29-2.34.05-2.88.74-2.88,2.97-.02,16.66-.21,33.32-.27,49.98-.08,20.37-.03,40.73-.22,61.09-.03,2.85.81,3.53,3.44,3.29,2.55-.23,5.16-.27,7.7,0,2.99.33,3.73-.66,3.72-3.66-.12-32.09-.07-64.18-.08-96.27,0-1.68-.32-3.09,2.35-3.08,22.01.12,44.02,0,66.03.14,10.14.06,16.97,5.31,20.95,14.48,1.84,4.23,2.02,8.71,2.2,13.26.56,14.25-12.59,28.92-29.02,29.09-5.25.06-10.5,0-15.93,0,12.18,14.94,24.32,29.81,36.45,44.7.68.84,1.35,1.34,2.6,1.17,5.22-.71,10.47-.31,15.71-.43.73-.02,1.64.45,2.32-.66-9.76-11.19-19.54-22.41-29.68-34.05Z"/>
    <path class="st0" d="M393.18,302.62h-.02c0,12.03.04,24.06-.04,36.1-.01,2,.55,2.69,2.58,2.62,3.08-.11,6.2-.2,9.24.2,2.74.36,2.94-.78,2.93-3-.06-18.72.02-37.43-.06-56.15,0-2.3.42-3.14,2.96-3.09,8.84.18,17.69.07,26.53.1,1.28,0,2.31-.01,2.99-1.48,1.55-3.36,2.97-6.76,3.88-10.36.52-2.03.04-2.87-2.35-2.86-15.32.11-30.65.1-45.97,0-2.19-.01-2.74.61-2.72,2.74.1,11.72.05,23.45.05,35.17Z"/>
    <path class="st4" d="M445.42,306.37c10.14,11.64,19.93,22.86,29.68,34.05-.68,1.11-1.59.64-2.32.66-5.24.12-10.5-.28-15.71.43-1.25.17-1.91-.33-2.6-1.17-12.13-14.89-24.27-29.76-36.45-44.7,5.42,0,10.68.05,15.93,0,16.42-.17,29.58-14.84,29.02-29.09-.18-4.55-.36-9.03-2.2-13.26-3.98-9.17-10.81-14.41-20.95-14.48-22.01-.14-44.02-.02-66.03-.14-2.67-.01-2.35,1.4-2.35,3.08.01,32.09-.04,64.18.08,96.27.01,3-.72,3.99-3.72,3.66-2.54-.28-5.15-.24-7.7,0-2.63.24-3.46-.43-3.44-3.29.19-20.36.14-40.73.22-61.09.07-16.66.25-33.32.27-49.98,0-2.23.54-2.93,2.88-2.97,27.15-.54,54.3-.44,81.45-.29,21.21.12,37.17,16.48,37.41,37.79.18,16.07-5.41,29.3-18.93,38.61-4.25,2.92-9.01,4.78-14.54,5.94Z"/>
    <path class="st4" d="M393.18,302.62c0-11.72.05-23.45-.05-35.17-.02-2.13.53-2.76,2.72-2.74,15.32.1,30.65.11,45.97,0,2.39-.02,2.87.83,2.35,2.86-.92,3.6-2.33,6.99-3.88,10.36-.67,1.46-1.71,1.48-2.99,1.48-8.84-.03-17.69.08-26.53-.1-2.54-.05-2.97.79-2.96,3.09.08,18.72,0,37.43.06,56.15,0,2.22-.19,3.36-2.93,3-3.04-.4-6.16-.31-9.24-.2-2.03.07-2.59-.61-2.58-2.62.09-12.03.04-24.06.04-36.1h.02Z"/>
  </g>
</svg>