<?xml version="1.0" encoding="UTF-8"?>
<svg id="Layer_1" xmlns="http://www.w3.org/2000/svg" version="1.1" viewBox="0 0 1152 1152">
  <!-- Generator: Adobe Illustrator 29.8.3, SVG Export Plug-In . SVG Version: 2.1.1 Build 3)  -->
  <defs>
    <style>
      .st0 {
        fill: #231f20;
      }

      .st1 {
        fill: #fff;
      }
    </style>
  </defs>
  <rect class="st0" width="1152" height="1152"/>
  <g>
    <g>
      <g>
        <path class="st1" d="M543.37,388.64h-29.3v13.66h29.36c0-4.56-.02-9.11-.06-13.66ZM439.7,388.64h-.01s0,13.66,0,13.66h54.74v-.56c.02-4.37.04-8.73.07-13.1h-54.8ZM413.6,362.54l-19.41-19.41h-132.51c-3-10.68-13.4-18.26-25.33-16.8-10.55,1.28-19.01,9.84-20.2,20.4-1.58,14.07,9.39,25.98,23.13,25.98,10.29,0,19-6.68,22.08-15.92h127.17l38.37,38.37v-19.32l-13.3-13.3ZM239.28,363.8c-7.93,0-14.37-6.44-14.37-14.37s6.44-14.37,14.37-14.37,14.37,6.43,14.37,14.37-6.43,14.37-14.37,14.37Z"/>
        <path class="st1" d="M584.06,357.19h-69.99v13.66h69.99c3.77,0,6.83-3.06,6.83-6.83s-3.06-6.83-6.83-6.83ZM462.11,357.19v-7.41c-.99-.71-1.93-1.47-2.84-2.27-.16.03-.34,0-.51-.13-3.62-3.12-6.88-6.64-10.31-9.97v10.12l-8.76-8.76v19.32l12.76,12.76h42.17c.03-4.55.06-9.11.08-13.66h-32.59ZM394.91,293.99v-55.74c10.12-2.53,17.62-11.66,17.62-22.56,0-13.74-11.9-24.7-25.95-23.14-10.86,1.21-19.54,10.12-20.51,21-.98,10.95,5.64,20.48,15.18,23.98v52.46h-63.66c-3.13-10-12.83-17.1-24.05-16.25-11.01.84-20.09,9.58-21.31,20.56-1.55,14.05,9.41,25.94,23.14,25.94,10.53,0,19.41-7,22.29-16.59h67.59l41.65,41.65v-19.32l-31.99-31.99ZM295.37,311.32c-7.94,0-14.37-6.43-14.37-14.37s6.43-14.37,14.37-14.37,14.37,6.44,14.37,14.37-6.44,14.37-14.37,14.37ZM374.88,215.69c0-7.94,6.44-14.37,14.37-14.37s14.37,6.43,14.37,14.37-6.43,14.36-14.37,14.36-14.37-6.43-14.37-14.36Z"/>
        <path class="st1" d="M448.45,334.41v1.37c1.06,1.01,2.11,2.04,3.15,3.08-1.09-1.46-2.13-2.94-3.15-4.45Z"/>
        <path class="st1" d="M514.08,430.11c0,4.56,0,9.11.01,13.66h29.32v-7.83h.02v-5.83h-29.35ZM579.89,430.11h-16.67c.01.63.01,1.26.01,1.9v11.76h20.83c2.03,0,3.86-.89,5.1-2.3-3.09-3.78-6.18-7.57-9.27-11.36ZM439.69,430.11v13.67h.01s54.64-.01,54.64-.01c0-4.55.01-9.11.02-13.66h-54.67ZM413.6,450.55l-22.8,22.81-35.94-54.76-20.42-4.24c-.33-3.99-1.69-7.95-4.17-11.49-7.18-10.21-21.54-12.9-31.94-5.98-10.55,7.02-13.54,21.17-6.76,31.85,6.66,10.5,20.79,13.91,31.5,7.58,3.67-2.17,6.49-5.18,8.43-8.62l15.05,3.12,29.4,44.8h-114.59c-3.27-9.82-12.9-16.74-24.02-15.85-10.96.89-19.98,9.61-21.19,20.55-1.56,14.05,9.4,25.94,23.13,25.94,10.67,0,19.65-7.19,22.4-16.98h132.51l19.41-19.41,13.3-13.3v-19.32l-13.3,13.3ZM319.11,428.29c-6.63,4.35-15.54,2.5-19.89-4.13-4.36-6.64-2.51-15.54,4.13-19.9,6.63-4.35,15.54-2.5,19.89,4.13,4.36,6.63,2.51,15.54-4.13,19.9ZM239.28,497.35c-7.93,0-14.37-6.44-14.37-14.37s6.44-14.37,14.37-14.37,14.37,6.43,14.37,14.37-6.43,14.37-14.37,14.37Z"/>
        <path class="st1" d="M514.12,461.56c.01,4.56.02,9.11.03,13.66h29.25c.01-4.55.02-9.11.02-13.66h-29.3ZM584.06,461.56h-20.83v1.89c0,3.3,0,6.6.01,9.89,0,.63,0,1.26,0,1.88h20.81c3.77,0,6.83-3.06,6.83-6.83s-3.06-6.83-6.83-6.83ZM452.45,461.56l-12.76,12.76v19.32l8.76-8.76v10.53c.16-.12.33-.23.5-.34,3.7-2.51,7.39-5.1,11.41-7.09.56-.28,1.15-.55,1.75-.81v-11.95h32.09c.04-4.56.06-9.11.08-13.66h-41.83ZM413.6,500.4l-28.35,28.35h-67.59c-3.03-10.11-12.75-17.33-24.03-16.51-11.04.8-20.18,9.55-21.4,20.56-1.55,14.04,9.4,25.94,23.14,25.94,10.43,0,19.26-6.87,22.22-16.33h63.66v52.47c-9.54,3.5-16.16,13.02-15.18,23.98.97,10.88,9.65,19.78,20.51,20.99,14.05,1.57,25.95-9.39,25.95-23.13,0-10.9-7.5-20.03-17.62-22.56v-55.75l18.69-18.69,13.3-13.29v-19.32l-13.3,13.29ZM295.37,549.82c-7.94,0-14.37-6.43-14.37-14.37s6.43-14.37,14.37-14.37,14.37,6.44,14.37,14.37-6.44,14.37-14.37,14.37ZM403.62,616.72c0,7.94-6.43,14.37-14.37,14.37s-14.37-6.43-14.37-14.37,6.44-14.37,14.37-14.37,14.37,6.43,14.37,14.37Z"/>
      </g>
      <g>
        <path class="st1" d="M712.3,388.64h-53.47c-.39,4.78-1.21,9.33-2.51,13.66h55.99v-13.67h0ZM607.16,402.3h27.39c1.95-4.37,3.04-9.02,3.07-13.66h-25.38c-1.2,4.74-3.05,9.22-5.08,13.66ZM935.85,346.73c-1.19-10.56-9.66-19.12-20.2-20.4-11.93-1.46-22.33,6.12-25.33,16.8h-132.51l-32.72,32.72v19.32l13.31-13.31,25.06-25.07h127.18c3.08,9.24,11.79,15.92,22.08,15.92,13.74,0,24.71-11.91,23.13-25.98ZM912.72,363.8c-7.94,0-14.37-6.44-14.37-14.37s6.43-14.37,14.37-14.37,14.37,6.43,14.37,14.37-6.44,14.37-14.37,14.37Z"/>
        <path class="st1" d="M703.55,347.53v-7.26c-3.89,3.92-8.88,6.43-13.66,9.17v7.75h-36.44c2.13,4.22,3.7,8.8,4.63,13.66h41.47l12.76-12.76v-19.32l-8.76,8.76ZM626.35,357.19h-58.41c-3.77,0-6.83,3.06-6.83,6.83s3.06,6.83,6.83,6.83h67.29c-.18-.51-.38-1.01-.6-1.51-2.14-4.92-4.88-9.01-8.28-12.15ZM879.77,294.3c-1.22-10.98-10.3-19.72-21.32-20.56-11.21-.85-20.91,6.25-24.04,16.25h-63.66v-52.46c9.53-3.5,16.16-13.03,15.18-23.98-.97-10.88-9.65-19.79-20.51-21-14.06-1.56-25.96,9.4-25.96,23.14,0,10.9,7.51,20.03,17.63,22.56v55.74l-32,32v19.32l13.31-13.31,28.35-28.35h67.59c2.88,9.59,11.76,16.59,22.29,16.59,13.73,0,24.69-11.89,23.14-25.94ZM762.75,230.05c-7.94,0-14.37-6.43-14.37-14.36s6.43-14.37,14.37-14.37,14.36,6.43,14.36,14.37-6.43,14.36-14.36,14.36ZM856.63,311.32c-7.94,0-14.37-6.43-14.37-14.37s6.43-14.37,14.37-14.37,14.37,6.44,14.37,14.37-6.43,14.37-14.37,14.37Z"/>
        <path class="st1" d="M637.4,430.11c-1.23.99-2.52,1.94-3.86,2.87-5.73,3.95-12.16,6.45-19.61,8.01.81.93,1.62,1.86,2.42,2.78h95.96s0-13.66,0-13.66h-74.91ZM579.89,430.11h-11.95c-1.82,0-3.49.72-4.71,1.9v9.87c1.22,1.17,2.89,1.89,4.71,1.89h23.09c-.62-.77-1.25-1.53-1.87-2.3-3.09-3.78-6.18-7.57-9.27-11.36ZM935.85,480.32c-1.21-10.94-10.23-19.66-21.2-20.55-11.11-.89-20.74,6.03-24.01,15.85h-114.59l29.4-44.8,15.05-3.12c1.93,3.44,4.76,6.45,8.43,8.62,10.71,6.33,24.84,2.92,31.5-7.58,6.77-10.68,3.78-24.83-6.77-31.85-10.39-6.92-24.75-4.23-31.93,5.98-2.48,3.54-3.84,7.5-4.17,11.49l-20.42,4.24-35.94,54.76-22.8-22.81-13.31-13.31v19.32l32.72,32.72h132.51c2.75,9.79,11.73,16.98,22.4,16.98,13.73,0,24.69-11.89,23.13-25.94ZM828.76,408.39c4.35-6.63,13.26-8.48,19.89-4.13,6.64,4.36,8.49,13.26,4.13,19.9-4.35,6.63-13.26,8.48-19.9,4.13-6.63-4.36-8.48-13.27-4.12-19.9ZM912.72,497.35c-7.94,0-14.37-6.44-14.37-14.37s6.43-14.37,14.37-14.37,14.37,6.43,14.37,14.37-6.44,14.37-14.37,14.37Z"/>
        <path class="st1" d="M699.55,461.56h-67.7c3.99,4.58,7.96,9.13,11.91,13.66h46.13v12.08c.13.08.26.16.39.24,4.86,3.13,9.14,7,13.27,11.04v-13.7l8.76,8.76v-19.32l-12.76-12.76ZM567.94,461.56c-1.82,0-3.49.71-4.71,1.89,0,3.3,0,6.6.01,9.89,1.23,1.17,2.88,1.88,4.7,1.88h48.74c-3.71-4.55-7.42-9.1-11.14-13.66h-37.6ZM879.76,532.8c-1.21-11.01-10.35-19.76-21.39-20.56-11.28-.82-21,6.4-24.03,16.51h-67.59l-28.35-28.35-13.31-13.3v19.32l13.31,13.3,18.69,18.69v55.75c-10.12,2.53-17.63,11.66-17.63,22.56,0,13.74,11.9,24.7,25.96,23.13,10.86-1.21,19.54-10.11,20.51-20.99.98-10.96-5.65-20.48-15.18-23.98v-52.47h63.66c2.96,9.46,11.79,16.33,22.22,16.33,13.73,0,24.69-11.9,23.13-25.94ZM777.11,616.72c0,7.94-6.43,14.37-14.36,14.37s-14.37-6.43-14.37-14.37,6.43-14.37,14.37-14.37,14.36,6.43,14.36,14.37ZM856.63,549.82c-7.94,0-14.37-6.43-14.37-14.37s6.43-14.37,14.37-14.37,14.37,6.44,14.37,14.37-6.43,14.37-14.37,14.37Z"/>
      </g>
    </g>
    <g>
      <g>
        <path class="st1" d="M271.5,722.85c-2.33,0-4.85.25-7.54.76-2.69.5-5.35,1.29-7.98,2.35-2.62,1.07-5.14,2.45-7.54,4.14-2.4,1.69-4.52,3.73-6.37,6.14-1.85,2.4-3.33,5.17-4.43,8.31-1.1,3.15-1.65,6.71-1.65,10.68v63.77h25.3v-63.77c0-3.03.87-5.32,2.62-6.9,1.76-1.57,4.35-2.35,7.79-2.35h56.92v-23.13h-57.12Z"/>
        <path class="st1" d="M434.98,722.85v73.03h-44.27c-3.05,0-5.89-.46-8.52-1.38-2.62-.92-4.91-2.24-6.86-3.96-1.94-1.72-3.48-3.78-4.62-6.18-1.13-2.4-1.7-5.12-1.7-8.14v-53.37h-25.3v53.37c0,5.22.73,9.9,2.19,14.05,1.46,4.15,3.39,7.82,5.79,10.99,2.4,3.17,5.2,5.87,8.41,8.09,3.22,2.23,6.54,4.07,9.98,5.52s6.92,2.5,10.46,3.15c3.53.66,6.86.98,9.97.98h57.22c1.75,0,3.39-.29,4.92-.89,1.52-.59,2.85-1.4,3.99-2.44,1.13-1.04,2.02-2.27,2.67-3.69.65-1.43.97-2.97.97-4.63v-84.5h-25.3Z"/>
        <path class="st1" d="M583.82,775.95c-1.26-3.79-3.29-7.31-6.08-10.54-2.79-3.23-6.46-5.91-11-8.05-4.54-2.13-10.05-3.2-16.54-3.2h-39.22c-.58,0-1.18-.01-1.8-.04-.61-.03-1.16-.17-1.65-.4-.49-.24-.89-.63-1.22-1.16-.32-.54-.52-1.28-.58-2.22,0-.48.03-.97.1-1.47.06-.51.27-.98.63-1.43.36-.44.91-.8,1.65-1.06.75-.27,1.77-.4,3.07-.4h61.98v-23.13h-62.18c-3.11,0-6.45.49-10.02,1.47-3.57.98-6.88,2.56-9.92,4.76-3.05,2.19-5.58,5.05-7.6,8.58-2.01,3.53-3.01,7.87-3.01,13.03,0,2.67.53,5.55,1.6,8.63,1.07,3.08,2.83,5.96,5.26,8.63,2.43,2.67,5.59,4.89,9.49,6.67,3.89,1.78,8.62,2.67,14.2,2.67h39.22c6.49,0,9.89,3.08,10.22,9.25,0,3.02-.88,5.33-2.63,6.94-1.75,1.6-4.35,2.4-7.78,2.4h-68.32v23.12h68.51c2.4,0,4.95-.25,7.64-.75,2.69-.51,5.35-1.29,7.98-2.36,2.63-1.07,5.14-2.45,7.54-4.14,2.4-1.69,4.51-3.73,6.32-6.13,1.82-2.4,3.28-5.19,4.38-8.36,1.11-3.18,1.66-6.75,1.66-10.72,0-3.26-.63-6.79-1.9-10.59Z"/>
        <path class="st1" d="M641.09,743.58v23.3h79.89v-23.3h-79.89ZM732.36,714.58v-23.13h-113.95c-1.81,0-3.5.3-5.06.89-1.55.6-2.9,1.42-4.03,2.49-1.14,1.07-2.03,2.31-2.68,3.74-.65,1.42-.97,2.93-.97,4.53v83.44c0,5.99,1.18,11.04,3.55,15.16,2.37,4.13,5.32,7.47,8.85,10.05,3.54,2.58,7.38,4.44,11.53,5.56,4.15,1.13,7.98,1.69,11.49,1.69h91.27v-23.12h-91.08c-3.37,0-5.93-.8-7.69-2.4-1.75-1.61-2.62-3.92-2.62-6.94v-71.96h101.39Z"/>
        <path class="st1" d="M792.21,743.58v23.3h79.99v-23.3h-79.99ZM769.54,691.45c-1.82,0-3.51.3-5.06.89-1.56.6-2.91,1.42-4.04,2.49-1.14,1.07-2.03,2.31-2.68,3.74-.65,1.42-.97,2.93-.97,4.53v115.9h25.3v-104.42h101.4v-23.13h-113.95Z"/>
        <path class="st1" d="M904.12,691.45v127.55h25.3v-127.55h-25.3Z"/>
      </g>
      <g>
        <path class="st1" d="M250.15,859.16h-11.74v37.48h5.58v-16.45h6.16c5.23,0,11.16-3.41,11.16-10.52s-5.93-10.51-11.16-10.51ZM249.16,875.49h-5.17v-11.4h5.17c3.32,0,6.4,1.82,6.4,5.7s-3.08,5.7-6.4,5.7Z"/>
        <path class="st1" d="M291.31,858.39c-9.89,0-19.65,7.41-19.65,19.45s9.76,19.51,19.65,19.51,19.64-7.35,19.64-19.51-9.76-19.45-19.64-19.45ZM291.31,892.53c-6.86,0-13.96-5.29-13.96-14.57s7.1-14.51,13.96-14.51,13.94,5.22,13.94,14.51-7.2,14.57-13.94,14.57Z"/>
        <path class="st1" d="M365.01,859.16l-5.99,17.27c-.81,2.35-1.97,5.58-2.73,8.58h-.12c-.81-3.06-1.8-6.17-2.61-8.58l-5.99-17.27h-4.82l-5.93,17.27c-.87,2.53-1.86,5.52-2.68,8.58h-.11c-.76-3.06-1.86-6.11-2.73-8.58l-5.99-17.27h-5.64l13.14,38.01h1.92l6.91-20.03c.99-2.82,2.04-6,3.2-10.05h.12c1.16,4.05,2.2,7.17,3.19,10.05l6.92,20.03h1.92l13.19-38.01h-5.17Z"/>
        <path class="st1" d="M386.75,891.77v-11.52h12.03v-4.88h-12.03v-11.34h14.36v-4.87h-20v37.48h22.03v-4.87h-16.39Z"/>
        <path class="st1" d="M429.01,879.31c3.6-1.47,6.51-4.64,6.51-9.64,0-7.11-5.93-10.51-11.16-10.51h-11.16v37.48h5.58v-16.45h4.24l11.68,16.45h6.98l-12.67-17.33ZM423.37,875.49h-4.59v-11.4h4.59c3.31,0,6.39,1.82,6.39,5.7s-3.08,5.7-6.39,5.7Z"/>
        <path class="st1" d="M442.78,859.16v4.87h11.92v32.61h5.64v-32.61h11.91v-4.87h-29.47Z"/>
        <path class="st1" d="M498.12,879.31c3.6-1.47,6.51-4.64,6.51-9.64,0-7.11-5.93-10.51-11.16-10.51h-11.16v37.48h5.58v-16.45h4.24l11.68,16.45h6.98l-12.67-17.33ZM492.48,875.49h-4.59v-11.4h4.59c3.31,0,6.39,1.82,6.39,5.7s-3.08,5.7-6.39,5.7Z"/>
        <path class="st1" d="M533.87,858.63h-2.04l-15.81,38.01h5.52l4.01-9.69h14.42l4.01,9.69h5.69l-15.8-38.01ZM527.47,882.42l3.66-9.16c.53-1.24,1.17-3,1.57-4.59h.12c.46,1.59,1.05,3.35,1.57,4.59l3.66,9.16h-10.58Z"/>
        <path class="st1" d="M561.18,859.16v37.48h5.64v-37.48h-5.64Z"/>
        <path class="st1" d="M608.56,859.16v17.74c0,2.7,0,5.93.11,8.81l-.11.06c-2.27-2.82-5.64-6.58-7.79-8.99l-15.93-17.62h-3.89v37.48h5.64v-18.8c0-2.82,0-5.99-.12-9.4l.12-.06c2.55,3.06,5.75,6.82,8.54,9.87l17.38,19.22h1.68v-38.31h-5.63Z"/>
        <path class="st1" d="M651.34,878.02c0-9.52,7.5-14.16,14.59-14.16,3.78,0,7.38,1.23,9.18,2.4l.99-5.05c-2.27-1.29-5.81-2.41-10.81-2.41-9.07,0-19.65,6.35-19.65,19.1s10.46,19.04,19.65,19.04c4.65,0,7.26-.53,9.59-1.77l.52-5.17c-2.26,1.3-5.17,2.12-9.47,2.12-7.27,0-14.59-4.64-14.59-14.1Z"/>
        <path class="st1" d="M705.51,858.39c-9.88,0-19.65,7.41-19.65,19.45s9.77,19.51,19.65,19.51,19.65-7.35,19.65-19.51-9.77-19.45-19.65-19.45ZM705.51,892.53c-6.86,0-13.95-5.29-13.95-14.57s7.09-14.51,13.95-14.51,13.95,5.22,13.95,14.51-7.21,14.57-13.95,14.57Z"/>
        <path class="st1" d="M764.86,859.16v17.74c0,2.7,0,5.93.11,8.81l-.11.06c-2.27-2.82-5.64-6.58-7.79-8.99l-15.93-17.62h-3.89v37.48h5.64v-18.8c0-2.82,0-5.99-.12-9.4l.12-.06c2.55,3.06,5.75,6.82,8.54,9.87l17.38,19.22h1.69v-38.31h-5.64Z"/>
        <path class="st1" d="M780.55,859.16v4.87h11.92v32.61h5.64v-32.61h11.91v-4.87h-29.47Z"/>
        <path class="st1" d="M835.89,879.31c3.6-1.47,6.51-4.64,6.51-9.64,0-7.11-5.93-10.51-11.16-10.51h-11.16v37.48h5.58v-16.45h4.24l11.68,16.45h6.98l-12.67-17.33ZM830.25,875.49h-4.59v-11.4h4.59c3.31,0,6.39,1.82,6.39,5.7s-3.08,5.7-6.39,5.7Z"/>
        <path class="st1" d="M872.8,858.39c-9.88,0-19.65,7.41-19.65,19.45s9.77,19.51,19.65,19.51,19.64-7.35,19.64-19.51-9.76-19.45-19.64-19.45ZM872.8,892.53c-6.86,0-13.95-5.29-13.95-14.57s7.09-14.51,13.95-14.51,13.95,5.22,13.95,14.51-7.21,14.57-13.95,14.57Z"/>
        <path class="st1" d="M910.17,891.77v-32.61h-5.63v37.48h21.97v-4.87h-16.34Z"/>
        <path class="st1" d="M425.55,936.21c-3.84-1.29-5.82-2.94-5.82-5.64s2.27-4.94,5.93-4.94c2.97,0,5.76,1.24,7.09,2.18l1.11-4.76c-1.34-1-4.36-2.12-7.96-2.12-7.79,0-11.57,4.88-11.57,10.05s3.43,8.76,9.94,10.87c4.36,1.41,6.28,3.29,6.28,6.7s-2.68,5.58-6.69,5.58-7.67-1.41-10.35-3.47l.64,5.94c1.92,1.29,5.47,2.47,9.42,2.47,8.25,0,12.61-4.47,12.61-11.05s-4.3-9.64-10.63-11.81Z"/>
        <path class="st1" d="M466.06,920.52c-9.88,0-19.65,7.41-19.65,19.45s9.77,19.51,19.65,19.51,19.65-7.35,19.65-19.51-9.77-19.45-19.65-19.45ZM466.06,954.66c-6.86,0-13.95-5.29-13.95-14.57s7.09-14.51,13.95-14.51,13.95,5.22,13.95,14.51-7.21,14.57-13.95,14.57Z"/>
        <path class="st1" d="M503.44,953.9v-32.61h-5.64v37.48h21.97v-4.87h-16.33Z"/>
        <path class="st1" d="M554.59,921.29v23.68c0,5.58-3.14,9.46-9.59,9.46s-9.54-3.88-9.54-9.46v-23.68h-5.63v24.26c0,8.76,6.45,13.93,15.11,13.93s15.11-5.17,15.11-13.93v-24.26h-5.46Z"/>
        <path class="st1" d="M570.11,921.29v4.87h11.91v32.61h5.64v-32.61h11.92v-4.87h-29.47Z"/>
        <path class="st1" d="M610.22,921.29v37.48h5.63v-37.48h-5.63Z"/>
        <path class="st1" d="M648.17,920.52c-9.88,0-19.65,7.41-19.65,19.45s9.77,19.51,19.65,19.51,19.65-7.35,19.65-19.51-9.77-19.45-19.65-19.45ZM648.17,954.66c-6.86,0-13.95-5.29-13.95-14.57s7.09-14.51,13.95-14.51,13.95,5.22,13.95,14.51-7.21,14.57-13.95,14.57Z"/>
        <path class="st1" d="M707.52,921.29v17.74c0,2.7,0,5.94.11,8.81l-.11.06c-2.27-2.82-5.64-6.58-7.79-8.99l-15.93-17.62h-3.89v37.48h5.64v-18.8c0-2.82,0-5.99-.12-9.4l.12-.06c2.55,3.06,5.75,6.82,8.54,9.87l17.38,19.22h1.68v-38.31h-5.63Z"/>
        <path class="st1" d="M737.63,936.21c-3.84-1.29-5.82-2.94-5.82-5.64s2.27-4.94,5.93-4.94c2.97,0,5.76,1.24,7.09,2.18l1.11-4.76c-1.34-1-4.36-2.12-7.96-2.12-7.79,0-11.57,4.88-11.57,10.05s3.43,8.76,9.94,10.87c4.36,1.41,6.28,3.29,6.28,6.7s-2.68,5.58-6.69,5.58-7.67-1.41-10.34-3.47l.63,5.94c1.92,1.29,5.47,2.47,9.42,2.47,8.26,0,12.61-4.47,12.61-11.05s-4.3-9.64-10.63-11.81Z"/>
      </g>
    </g>
    <g>
      <path class="st1" d="M439.69,273.89v272.62h272.62v-272.62h-272.62ZM559.3,488.45c-4.1-.54-8.31-.42-12.47-.27-2.74.1-3.49-.83-3.48-3.53.02-3.14.04-6.29.05-9.43.01-4.55.02-9.11.02-13.66.01-5.93,0-11.86-.01-17.79v-7.83h.02v-5.83c0-9.27.03-18.54,0-27.81,0-4.56-.02-9.11-.06-13.66v-.17c-.02-2.88.72-3.72,3.67-3.7,20.68.14,41.36.15,62.04,0,3.23-.03,3.87,1.11,3.17,3.85t0,.02c-1.2,4.74-3.05,9.22-5.08,13.66-.05.1-.09.2-.14.3-.91,1.97-2.31,2-4.04,1.99-11.93-.04-23.87.12-35.8-.13-3.43-.07-4.01,1.06-4,4.17.03,7.16.04,14.32.04,21.48.01.63.01,1.26.01,1.9v11.76c0,5.93-.01,11.86,0,17.79v1.89c0,3.3,0,6.6.01,9.89,0,.63,0,1.26,0,1.88,0,3.06,0,6.12.01,9.18.01,2.99-.26,4.53-3.96,4.05ZM637.4,430.11c-1.23.99-2.52,1.94-3.86,2.87-5.73,3.95-12.16,6.45-19.61,8.01.81.93,1.62,1.86,2.42,2.78,5.23,6,10.39,11.92,15.5,17.79,3.99,4.58,7.96,9.13,11.91,13.66,3.41,3.92,6.82,7.83,10.22,11.73-.91,1.49-2.14.86-3.13.88-7.07.16-14.17-.37-21.21.58-1.68.23-2.58-.45-3.5-1.58-3.15-3.87-6.31-7.74-9.46-11.61-3.71-4.55-7.42-9.1-11.14-13.66-4.83-5.92-9.67-11.85-14.51-17.79-.62-.77-1.25-1.53-1.87-2.3-3.09-3.78-6.18-7.57-9.27-11.36-.98-1.2-1.96-2.4-2.94-3.6,7.32,0,14.4.06,21.49-.02,16.28-.17,30.18-10.89,36.11-24.19,1.95-4.37,3.04-9.02,3.07-13.66.01-.46,0-.93-.02-1.4-.23-5.61-.45-11.13-2.37-16.39-.18-.51-.38-1.01-.6-1.51-2.14-4.92-4.88-9.01-8.28-12.15-5.13-4.75-11.75-7.34-19.99-7.39-29.7-.18-59.41-.02-89.11-.18-3.61-.02-3.18,1.88-3.18,4.15v48.53c0,9.27,0,18.54.01,27.81,0,4.56,0,9.11.01,13.66.01,5.93.02,11.86.03,17.79.01,4.56.02,9.11.03,13.66.01,2.82.02,5.65.03,8.47,0,4.05-.98,5.38-5.02,4.94-3.43-.37-6.95-.33-10.39-.01-3.55.32-4.68-.59-4.64-4.44.03-2.99.05-5.98.07-8.96.04-4.56.06-9.11.08-13.66.03-5.93.04-11.86.06-17.79,0-4.55.01-9.11.02-13.66.02-9.27.03-18.54.07-27.81v-.56c.02-4.37.04-8.73.07-13.1.03-5.93.08-11.86.12-17.79.03-4.55.06-9.11.08-13.66.05-7.64.09-15.27.1-22.91,0-3.01.73-3.95,3.89-4.01,36.64-.73,73.28-.59,109.92-.39,20.04.1,36.59,10.96,44.84,27.31,2.13,4.22,3.7,8.8,4.63,13.66.63,3.23.97,6.58,1.01,10.02.03,2.65-.06,5.24-.26,7.77-.39,4.78-1.21,9.33-2.51,13.66-3.21,10.8-9.34,20.16-18.92,27.81ZM439.69,273.89v272.62h272.62v-272.62h-272.62ZM559.3,488.45c-4.1-.54-8.31-.42-12.47-.27-2.74.1-3.49-.83-3.48-3.53.02-3.14.04-6.29.05-9.43.01-4.55.02-9.11.02-13.66.01-5.93,0-11.86-.01-17.79v-7.83h.02v-5.83c0-9.27.03-18.54,0-27.81,0-4.56-.02-9.11-.06-13.66v-.17c-.02-2.88.72-3.72,3.67-3.7,20.68.14,41.36.15,62.04,0,3.23-.03,3.87,1.11,3.17,3.85t0,.02c-1.2,4.74-3.05,9.22-5.08,13.66-.05.1-.09.2-.14.3-.91,1.97-2.31,2-4.04,1.99-11.93-.04-23.87.12-35.8-.13-3.43-.07-4.01,1.06-4,4.17.03,7.16.04,14.32.04,21.48.01.63.01,1.26.01,1.9v11.76c0,5.93-.01,11.86,0,17.79v1.89c0,3.3,0,6.6.01,9.89,0,.63,0,1.26,0,1.88,0,3.06,0,6.12.01,9.18.01,2.99-.26,4.53-3.96,4.05ZM637.4,430.11c-1.23.99-2.52,1.94-3.86,2.87-5.73,3.95-12.16,6.45-19.61,8.01.81.93,1.62,1.86,2.42,2.78,5.23,6,10.39,11.92,15.5,17.79,3.99,4.58,7.96,9.13,11.91,13.66,3.41,3.92,6.82,7.83,10.22,11.73-.91,1.49-2.14.86-3.13.88-7.07.16-14.17-.37-21.21.58-1.68.23-2.58-.45-3.5-1.58-3.15-3.87-6.31-7.74-9.46-11.61-3.71-4.55-7.42-9.1-11.14-13.66-4.83-5.92-9.67-11.85-14.51-17.79-.62-.77-1.25-1.53-1.87-2.3-3.09-3.78-6.18-7.57-9.27-11.36-.98-1.2-1.96-2.4-2.94-3.6,7.32,0,14.4.06,21.49-.02,16.28-.17,30.18-10.89,36.11-24.19,1.95-4.37,3.04-9.02,3.07-13.66.01-.46,0-.93-.02-1.4-.23-5.61-.45-11.13-2.37-16.39-.18-.51-.38-1.01-.6-1.51-2.14-4.92-4.88-9.01-8.28-12.15-5.13-4.75-11.75-7.34-19.99-7.39-29.7-.18-59.41-.02-89.11-.18-3.61-.02-3.18,1.88-3.18,4.15v48.53c0,9.27,0,18.54.01,27.81,0,4.56,0,9.11.01,13.66.01,5.93.02,11.86.03,17.79.01,4.56.02,9.11.03,13.66.01,2.82.02,5.65.03,8.47,0,4.05-.98,5.38-5.02,4.94-3.43-.37-6.95-.33-10.39-.01-3.55.32-4.68-.59-4.64-4.44.03-2.99.05-5.98.07-8.96.04-4.56.06-9.11.08-13.66.03-5.93.04-11.86.06-17.79,0-4.55.01-9.11.02-13.66.02-9.27.03-18.54.07-27.81v-.56c.02-4.37.04-8.73.07-13.1.03-5.93.08-11.86.12-17.79.03-4.55.06-9.11.08-13.66.05-7.64.09-15.27.1-22.91,0-3.01.73-3.95,3.89-4.01,36.64-.73,73.28-.59,109.92-.39,20.04.1,36.59,10.96,44.84,27.31,2.13,4.22,3.7,8.8,4.63,13.66.63,3.23.97,6.58,1.01,10.02.03,2.65-.06,5.24-.26,7.77-.39,4.78-1.21,9.33-2.51,13.66-3.21,10.8-9.34,20.16-18.92,27.81ZM439.69,273.89v272.62h272.62v-272.62h-272.62ZM559.3,488.45c-4.1-.54-8.31-.42-12.47-.27-2.74.1-3.49-.83-3.48-3.53.02-3.14.04-6.29.05-9.43.01-4.55.02-9.11.02-13.66.01-5.93,0-11.86-.01-17.79v-7.83h.02v-5.83c0-9.27.03-18.54,0-27.81,0-4.56-.02-9.11-.06-13.66v-.17c-.02-2.88.72-3.72,3.67-3.7,20.68.14,41.36.15,62.04,0,3.23-.03,3.87,1.11,3.17,3.85t0,.02c-1.2,4.74-3.05,9.22-5.08,13.66-.05.1-.09.2-.14.3-.91,1.97-2.31,2-4.04,1.99-11.93-.04-23.87.12-35.8-.13-3.43-.07-4.01,1.06-4,4.17.03,7.16.04,14.32.04,21.48.01.63.01,1.26.01,1.9v11.76c0,5.93-.01,11.86,0,17.79v1.89c0,3.3,0,6.6.01,9.89,0,.63,0,1.26,0,1.88,0,3.06,0,6.12.01,9.18.01,2.99-.26,4.53-3.96,4.05ZM637.4,430.11c-1.23.99-2.52,1.94-3.86,2.87-5.73,3.95-12.16,6.45-19.61,8.01.81.93,1.62,1.86,2.42,2.78,5.23,6,10.39,11.92,15.5,17.79,3.99,4.58,7.96,9.13,11.91,13.66,3.41,3.92,6.82,7.83,10.22,11.73-.91,1.49-2.14.86-3.13.88-7.07.16-14.17-.37-21.21.58-1.68.23-2.58-.45-3.5-1.58-3.15-3.87-6.31-7.74-9.46-11.61-3.71-4.55-7.42-9.1-11.14-13.66-4.83-5.92-9.67-11.85-14.51-17.79-.62-.77-1.25-1.53-1.87-2.3-3.09-3.78-6.18-7.57-9.27-11.36-.98-1.2-1.96-2.4-2.94-3.6,7.32,0,14.4.06,21.49-.02,16.28-.17,30.18-10.89,36.11-24.19,1.95-4.37,3.04-9.02,3.07-13.66.01-.46,0-.93-.02-1.4-.23-5.61-.45-11.13-2.37-16.39-.18-.51-.38-1.01-.6-1.51-2.14-4.92-4.88-9.01-8.28-12.15-5.13-4.75-11.75-7.34-19.99-7.39-29.7-.18-59.41-.02-89.11-.18-3.61-.02-3.18,1.88-3.18,4.15v48.53c0,9.27,0,18.54.01,27.81,0,4.56,0,9.11.01,13.66.01,5.93.02,11.86.03,17.79.01,4.56.02,9.11.03,13.66.01,2.82.02,5.65.03,8.47,0,4.05-.98,5.38-5.02,4.94-3.43-.37-6.95-.33-10.39-.01-3.55.32-4.68-.59-4.64-4.44.03-2.99.05-5.98.07-8.96.04-4.56.06-9.11.08-13.66.03-5.93.04-11.86.06-17.79,0-4.55.01-9.11.02-13.66.02-9.27.03-18.54.07-27.81v-.56c.02-4.37.04-8.73.07-13.1.03-5.93.08-11.86.12-17.79.03-4.55.06-9.11.08-13.66.05-7.64.09-15.27.1-22.91,0-3.01.73-3.95,3.89-4.01,36.64-.73,73.28-.59,109.92-.39,20.04.1,36.59,10.96,44.84,27.31,2.13,4.22,3.7,8.8,4.63,13.66.63,3.23.97,6.58,1.01,10.02.03,2.65-.06,5.24-.26,7.77-.39,4.78-1.21,9.33-2.51,13.66-3.21,10.8-9.34,20.16-18.92,27.81ZM439.69,273.89v272.62h272.62v-272.62h-272.62ZM559.3,488.45c-4.1-.54-8.31-.42-12.47-.27-2.74.1-3.49-.83-3.48-3.53.02-3.14.04-6.29.05-9.43.01-4.55.02-9.11.02-13.66.01-5.93,0-11.86-.01-17.79v-7.83h.02v-5.83c0-9.27.03-18.54,0-27.81,0-4.56-.02-9.11-.06-13.66v-.17c-.02-2.88.72-3.72,3.67-3.7,20.68.14,41.36.15,62.04,0,3.23-.03,3.87,1.11,3.17,3.85t0,.02c-1.2,4.74-3.05,9.22-5.08,13.66-.05.1-.09.2-.14.3-.91,1.97-2.31,2-4.04,1.99-11.93-.04-23.87.12-35.8-.13-3.43-.07-4.01,1.06-4,4.17.03,7.16.04,14.32.04,21.48.01.63.01,1.26.01,1.9v11.76c0,5.93-.01,11.86,0,17.79v1.89c0,3.3,0,6.6.01,9.89,0,.63,0,1.26,0,1.88,0,3.06,0,6.12.01,9.18.01,2.99-.26,4.53-3.96,4.05ZM637.4,430.11c-1.23.99-2.52,1.94-3.86,2.87-5.73,3.95-12.16,6.45-19.61,8.01.81.93,1.62,1.86,2.42,2.78,5.23,6,10.39,11.92,15.5,17.79,3.99,4.58,7.96,9.13,11.91,13.66,3.41,3.92,6.82,7.83,10.22,11.73-.91,1.49-2.14.86-3.13.88-7.07.16-14.17-.37-21.21.58-1.68.23-2.58-.45-3.5-1.58-3.15-3.87-6.31-7.74-9.46-11.61-3.71-4.55-7.42-9.1-11.14-13.66-4.83-5.92-9.67-11.85-14.51-17.79-.62-.77-1.25-1.53-1.87-2.3-3.09-3.78-6.18-7.57-9.27-11.36-.98-1.2-1.96-2.4-2.94-3.6,7.32,0,14.4.06,21.49-.02,16.28-.17,30.18-10.89,36.11-24.19,1.95-4.37,3.04-9.02,3.07-13.66.01-.46,0-.93-.02-1.4-.23-5.61-.45-11.13-2.37-16.39-.18-.51-.38-1.01-.6-1.51-2.14-4.92-4.88-9.01-8.28-12.15-5.13-4.75-11.75-7.34-19.99-7.39-29.7-.18-59.41-.02-89.11-.18-3.61-.02-3.18,1.88-3.18,4.15v48.53c0,9.27,0,18.54.01,27.81,0,4.56,0,9.11.01,13.66.01,5.93.02,11.86.03,17.79.01,4.56.02,9.11.03,13.66.01,2.82.02,5.65.03,8.47,0,4.05-.98,5.38-5.02,4.94-3.43-.37-6.95-.33-10.39-.01-3.55.32-4.68-.59-4.64-4.44.03-2.99.05-5.98.07-8.96.04-4.56.06-9.11.08-13.66.03-5.93.04-11.86.06-17.79,0-4.55.01-9.11.02-13.66.02-9.27.03-18.54.07-27.81v-.56c.02-4.37.04-8.73.07-13.1.03-5.93.08-11.86.12-17.79.03-4.55.06-9.11.08-13.66.05-7.64.09-15.27.1-22.91,0-3.01.73-3.95,3.89-4.01,36.64-.73,73.28-.59,109.92-.39,20.04.1,36.59,10.96,44.84,27.31,2.13,4.22,3.7,8.8,4.63,13.66.63,3.23.97,6.58,1.01,10.02.03,2.65-.06,5.24-.26,7.77-.39,4.78-1.21,9.33-2.51,13.66-3.21,10.8-9.34,20.16-18.92,27.81ZM413.6,247.8v324.8h324.8V247.8h-324.8ZM725.09,559.3h-298.19v-298.19h298.19v298.19ZM439.69,546.51h272.62v-272.62h-272.62v272.62ZM559.3,488.45c-4.1-.54-8.31-.42-12.47-.27-2.74.1-3.49-.83-3.48-3.53.02-3.14.04-6.29.05-9.43.01-4.55.02-9.11.02-13.66.01-5.93,0-11.86-.01-17.79v-7.83h.02v-5.83c0-9.27.03-18.54,0-27.81,0-4.56-.02-9.11-.06-13.66v-.17c-.02-2.88.72-3.72,3.67-3.7,20.68.14,41.36.15,62.04,0,3.23-.03,3.87,1.11,3.17,3.85t0,.02c-1.2,4.74-3.05,9.22-5.08,13.66-.05.1-.09.2-.14.3-.91,1.97-2.31,2-4.04,1.99-11.93-.04-23.87.12-35.8-.13-3.43-.07-4.01,1.06-4,4.17.03,7.16.04,14.32.04,21.48.01.63.01,1.26.01,1.9v11.76c0,5.93-.01,11.86,0,17.79v1.89c0,3.3,0,6.6.01,9.89,0,.63,0,1.26,0,1.88,0,3.06,0,6.12.01,9.18.01,2.99-.26,4.53-3.96,4.05ZM494.8,334.28c0-3.01.73-3.95,3.89-4.01,36.64-.73,73.28-.59,109.92-.39,20.04.1,36.59,10.96,44.84,27.31,2.13,4.22,3.7,8.8,4.63,13.66.63,3.23.97,6.58,1.01,10.02.03,2.65-.06,5.24-.26,7.77-.39,4.78-1.21,9.33-2.51,13.66-3.21,10.8-9.34,20.16-18.92,27.81-1.23.99-2.52,1.94-3.86,2.87-5.73,3.95-12.16,6.45-19.61,8.01.81.93,1.62,1.86,2.42,2.78,5.23,6,10.39,11.92,15.5,17.79,3.99,4.58,7.96,9.13,11.91,13.66,3.41,3.92,6.82,7.83,10.22,11.73-.91,1.49-2.14.86-3.13.88-7.07.16-14.17-.37-21.21.58-1.68.23-2.58-.45-3.5-1.58-3.15-3.87-6.31-7.74-9.46-11.61-3.71-4.55-7.42-9.1-11.14-13.66-4.83-5.92-9.67-11.85-14.51-17.79-.62-.77-1.25-1.53-1.87-2.3-3.09-3.78-6.18-7.57-9.27-11.36-.98-1.2-1.96-2.4-2.94-3.6,7.32,0,14.4.06,21.49-.02,16.28-.17,30.18-10.89,36.11-24.19,1.95-4.37,3.04-9.02,3.07-13.66.01-.46,0-.93-.02-1.4-.23-5.61-.45-11.13-2.37-16.39-.18-.51-.38-1.01-.6-1.51-2.14-4.92-4.88-9.01-8.28-12.15-5.13-4.75-11.75-7.34-19.99-7.39-29.7-.18-59.41-.02-89.11-.18-3.61-.02-3.18,1.88-3.18,4.15v48.53c0,9.27,0,18.54.01,27.81,0,4.56,0,9.11.01,13.66.01,5.93.02,11.86.03,17.79.01,4.56.02,9.11.03,13.66.01,2.82.02,5.65.03,8.47,0,4.05-.98,5.38-5.02,4.94-3.43-.37-6.95-.33-10.39-.01-3.55.32-4.68-.59-4.64-4.44.03-2.99.05-5.98.07-8.96.04-4.56.06-9.11.08-13.66.03-5.93.04-11.86.06-17.79,0-4.55.01-9.11.02-13.66.02-9.27.03-18.54.07-27.81v-.56c.02-4.37.04-8.73.07-13.1.03-5.93.08-11.86.12-17.79.03-4.55.06-9.11.08-13.66.05-7.64.09-15.27.1-22.91ZM439.69,273.89v272.62h272.62v-272.62h-272.62ZM559.3,488.45c-4.1-.54-8.31-.42-12.47-.27-2.74.1-3.49-.83-3.48-3.53.02-3.14.04-6.29.05-9.43.01-4.55.02-9.11.02-13.66.01-5.93,0-11.86-.01-17.79v-7.83h.02v-5.83c0-9.27.03-18.54,0-27.81,0-4.56-.02-9.11-.06-13.66v-.17c-.02-2.88.72-3.72,3.67-3.7,20.68.14,41.36.15,62.04,0,3.23-.03,3.87,1.11,3.17,3.85t0,.02c-1.2,4.74-3.05,9.22-5.08,13.66-.05.1-.09.2-.14.3-.91,1.97-2.31,2-4.04,1.99-11.93-.04-23.87.12-35.8-.13-3.43-.07-4.01,1.06-4,4.17.03,7.16.04,14.32.04,21.48.01.63.01,1.26.01,1.9v11.76c0,5.93-.01,11.86,0,17.79v1.89c0,3.3,0,6.6.01,9.89,0,.63,0,1.26,0,1.88,0,3.06,0,6.12.01,9.18.01,2.99-.26,4.53-3.96,4.05ZM637.4,430.11c-1.23.99-2.52,1.94-3.86,2.87-5.73,3.95-12.16,6.45-19.61,8.01.81.93,1.62,1.86,2.42,2.78,5.23,6,10.39,11.92,15.5,17.79,3.99,4.58,7.96,9.13,11.91,13.66,3.41,3.92,6.82,7.83,10.22,11.73-.91,1.49-2.14.86-3.13.88-7.07.16-14.17-.37-21.21.58-1.68.23-2.58-.45-3.5-1.58-3.15-3.87-6.31-7.74-9.46-11.61-3.71-4.55-7.42-9.1-11.14-13.66-4.83-5.92-9.67-11.85-14.51-17.79-.62-.77-1.25-1.53-1.87-2.3-3.09-3.78-6.18-7.57-9.27-11.36-.98-1.2-1.96-2.4-2.94-3.6,7.32,0,14.4.06,21.49-.02,16.28-.17,30.18-10.89,36.11-24.19,1.95-4.37,3.04-9.02,3.07-13.66.01-.46,0-.93-.02-1.4-.23-5.61-.45-11.13-2.37-16.39-.18-.51-.38-1.01-.6-1.51-2.14-4.92-4.88-9.01-8.28-12.15-5.13-4.75-11.75-7.34-19.99-7.39-29.7-.18-59.41-.02-89.11-.18-3.61-.02-3.18,1.88-3.18,4.15v48.53c0,9.27,0,18.54.01,27.81,0,4.56,0,9.11.01,13.66.01,5.93.02,11.86.03,17.79.01,4.56.02,9.11.03,13.66.01,2.82.02,5.65.03,8.47,0,4.05-.98,5.38-5.02,4.94-3.43-.37-6.95-.33-10.39-.01-3.55.32-4.68-.59-4.64-4.44.03-2.99.05-5.98.07-8.96.04-4.56.06-9.11.08-13.66.03-5.93.04-11.86.06-17.79,0-4.55.01-9.11.02-13.66.02-9.27.03-18.54.07-27.81v-.56c.02-4.37.04-8.73.07-13.1.03-5.93.08-11.86.12-17.79.03-4.55.06-9.11.08-13.66.05-7.64.09-15.27.1-22.91,0-3.01.73-3.95,3.89-4.01,36.64-.73,73.28-.59,109.92-.39,20.04.1,36.59,10.96,44.84,27.31,2.13,4.22,3.7,8.8,4.63,13.66.63,3.23.97,6.58,1.01,10.02.03,2.65-.06,5.24-.26,7.77-.39,4.78-1.21,9.33-2.51,13.66-3.21,10.8-9.34,20.16-18.92,27.81ZM439.69,273.89v272.62h272.62v-272.62h-272.62ZM559.3,488.45c-4.1-.54-8.31-.42-12.47-.27-2.74.1-3.49-.83-3.48-3.53.02-3.14.04-6.29.05-9.43.01-4.55.02-9.11.02-13.66.01-5.93,0-11.86-.01-17.79v-7.83h.02v-5.83c0-9.27.03-18.54,0-27.81,0-4.56-.02-9.11-.06-13.66v-.17c-.02-2.88.72-3.72,3.67-3.7,20.68.14,41.36.15,62.04,0,3.23-.03,3.87,1.11,3.17,3.85t0,.02c-1.2,4.74-3.05,9.22-5.08,13.66-.05.1-.09.2-.14.3-.91,1.97-2.31,2-4.04,1.99-11.93-.04-23.87.12-35.8-.13-3.43-.07-4.01,1.06-4,4.17.03,7.16.04,14.32.04,21.48.01.63.01,1.26.01,1.9v11.76c0,5.93-.01,11.86,0,17.79v1.89c0,3.3,0,6.6.01,9.89,0,.63,0,1.26,0,1.88,0,3.06,0,6.12.01,9.18.01,2.99-.26,4.53-3.96,4.05ZM637.4,430.11c-1.23.99-2.52,1.94-3.86,2.87-5.73,3.95-12.16,6.45-19.61,8.01.81.93,1.62,1.86,2.42,2.78,5.23,6,10.39,11.92,15.5,17.79,3.99,4.58,7.96,9.13,11.91,13.66,3.41,3.92,6.82,7.83,10.22,11.73-.91,1.49-2.14.86-3.13.88-7.07.16-14.17-.37-21.21.58-1.68.23-2.58-.45-3.5-1.58-3.15-3.87-6.31-7.74-9.46-11.61-3.71-4.55-7.42-9.1-11.14-13.66-4.83-5.92-9.67-11.85-14.51-17.79-.62-.77-1.25-1.53-1.87-2.3-3.09-3.78-6.18-7.57-9.27-11.36-.98-1.2-1.96-2.4-2.94-3.6,7.32,0,14.4.06,21.49-.02,16.28-.17,30.18-10.89,36.11-24.19,1.95-4.37,3.04-9.02,3.07-13.66.01-.46,0-.93-.02-1.4-.23-5.61-.45-11.13-2.37-16.39-.18-.51-.38-1.01-.6-1.51-2.14-4.92-4.88-9.01-8.28-12.15-5.13-4.75-11.75-7.34-19.99-7.39-29.7-.18-59.41-.02-89.11-.18-3.61-.02-3.18,1.88-3.18,4.15v48.53c0,9.27,0,18.54.01,27.81,0,4.56,0,9.11.01,13.66.01,5.93.02,11.86.03,17.79.01,4.56.02,9.11.03,13.66.01,2.82.02,5.65.03,8.47,0,4.05-.98,5.38-5.02,4.94-3.43-.37-6.95-.33-10.39-.01-3.55.32-4.68-.59-4.64-4.44.03-2.99.05-5.98.07-8.96.04-4.56.06-9.11.08-13.66.03-5.93.04-11.86.06-17.79,0-4.55.01-9.11.02-13.66.02-9.27.03-18.54.07-27.81v-.56c.02-4.37.04-8.73.07-13.1.03-5.93.08-11.86.12-17.79.03-4.55.06-9.11.08-13.66.05-7.64.09-15.27.1-22.91,0-3.01.73-3.95,3.89-4.01,36.64-.73,73.28-.59,109.92-.39,20.04.1,36.59,10.96,44.84,27.31,2.13,4.22,3.7,8.8,4.63,13.66.63,3.23.97,6.58,1.01,10.02.03,2.65-.06,5.24-.26,7.77-.39,4.78-1.21,9.33-2.51,13.66-3.21,10.8-9.34,20.16-18.92,27.81ZM703.55,484.88v13.7c-4.13-4.04-8.41-7.91-13.27-11.04-.13-.08-.26-.16-.39-.24v-12.08h-46.13c3.41,3.92,6.82,7.83,10.22,11.73-.91,1.49-2.14.86-3.13.88-7.07.16-14.17-.37-21.21.58-1.68.23-2.58-.45-3.5-1.58-3.15-3.87-6.31-7.74-9.46-11.61-3.71-4.55-7.42-9.1-11.14-13.66-4.83-5.92-9.67-11.85-14.51-17.79-.62-.77-1.25-1.53-1.87-2.3-3.09-3.78-6.18-7.57-9.27-11.36h-11.95c-1.82,0-3.49.72-4.71,1.9v11.76c0,5.93-.01,11.86,0,17.79v1.89c0,3.3,0,6.6.01,9.89,0,.63,0,1.26,0,1.88,0,3.06,0,6.12.01,9.18.01,2.99-.26,4.53-3.96,4.05-4.1-.54-8.31-.42-12.47-.27-2.74.1-3.49-.83-3.48-3.53.02-3.14.04-6.29.05-9.43.01-4.55.02-9.11.02-13.66.01-5.93,0-11.86-.01-17.79v-7.83h.02v-5.83c0-9.27.03-18.54,0-27.81h-29.36c0,9.27,0,18.54.01,27.81,0,4.56,0,9.11.01,13.66.01,5.93.02,11.86.03,17.79.01,4.56.02,9.11.03,13.66.01,2.82.02,5.65.03,8.47,0,4.05-.98,5.38-5.02,4.94-3.43-.37-6.95-.33-10.39-.01-3.55.32-4.68-.59-4.64-4.44.03-2.99.05-5.98.07-8.96.04-4.56.06-9.11.08-13.66.03-5.93.04-11.86.06-17.79,0-4.55.01-9.11.02-13.66.02-9.27.03-18.54.07-27.81v-.56c.02-4.37.04-8.73.07-13.1.03-5.93.08-11.86.12-17.79h-42.17l-12.76-12.76v188.42h272.62v-52.87l-8.76-8.76Z"/>
      <path class="st1" d="M439.69,273.89v272.62h272.62v-272.62h-272.62ZM559.3,488.45c-4.1-.54-8.31-.42-12.47-.27-2.74.1-3.49-.83-3.48-3.53.02-3.14.04-6.29.05-9.43.01-4.55.02-9.11.02-13.66.01-5.93,0-11.86-.01-17.79v-7.83h.02v-5.83c0-9.27.03-18.54,0-27.81,0-4.56-.02-9.11-.06-13.66v-.17c-.02-2.88.72-3.72,3.67-3.7,20.68.14,41.36.15,62.04,0,3.23-.03,3.87,1.11,3.17,3.85t0,.02c-1.2,4.74-3.05,9.22-5.08,13.66-.05.1-.09.2-.14.3-.91,1.97-2.31,2-4.04,1.99-11.93-.04-23.87.12-35.8-.13-3.43-.07-4.01,1.06-4,4.17.03,7.16.04,14.32.04,21.48.01.63.01,1.26.01,1.9v11.76c0,5.93-.01,11.86,0,17.79v1.89c0,3.3,0,6.6.01,9.89,0,.63,0,1.26,0,1.88,0,3.06,0,6.12.01,9.18.01,2.99-.26,4.53-3.96,4.05ZM637.4,430.11c-1.23.99-2.52,1.94-3.86,2.87-5.73,3.95-12.16,6.45-19.61,8.01.81.93,1.62,1.86,2.42,2.78,5.23,6,10.39,11.92,15.5,17.79,3.99,4.58,7.96,9.13,11.91,13.66,3.41,3.92,6.82,7.83,10.22,11.73-.91,1.49-2.14.86-3.13.88-7.07.16-14.17-.37-21.21.58-1.68.23-2.58-.45-3.5-1.58-3.15-3.87-6.31-7.74-9.46-11.61-3.71-4.55-7.42-9.1-11.14-13.66-4.83-5.92-9.67-11.85-14.51-17.79-.62-.77-1.25-1.53-1.87-2.3-3.09-3.78-6.18-7.57-9.27-11.36-.98-1.2-1.96-2.4-2.94-3.6,7.32,0,14.4.06,21.49-.02,16.28-.17,30.18-10.89,36.11-24.19,1.95-4.37,3.04-9.02,3.07-13.66.01-.46,0-.93-.02-1.4-.23-5.61-.45-11.13-2.37-16.39-.18-.51-.38-1.01-.6-1.51-2.14-4.92-4.88-9.01-8.28-12.15-5.13-4.75-11.75-7.34-19.99-7.39-29.7-.18-59.41-.02-89.11-.18-3.61-.02-3.18,1.88-3.18,4.15v48.53c0,9.27,0,18.54.01,27.81,0,4.56,0,9.11.01,13.66.01,5.93.02,11.86.03,17.79.01,4.56.02,9.11.03,13.66.01,2.82.02,5.65.03,8.47,0,4.05-.98,5.38-5.02,4.94-3.43-.37-6.95-.33-10.39-.01-3.55.32-4.68-.59-4.64-4.44.03-2.99.05-5.98.07-8.96.04-4.56.06-9.11.08-13.66.03-5.93.04-11.86.06-17.79,0-4.55.01-9.11.02-13.66.02-9.27.03-18.54.07-27.81v-.56c.02-4.37.04-8.73.07-13.1.03-5.93.08-11.86.12-17.79.03-4.55.06-9.11.08-13.66.05-7.64.09-15.27.1-22.91,0-3.01.73-3.95,3.89-4.01,36.64-.73,73.28-.59,109.92-.39,20.04.1,36.59,10.96,44.84,27.31,2.13,4.22,3.7,8.8,4.63,13.66.63,3.23.97,6.58,1.01,10.02.03,2.65-.06,5.24-.26,7.77-.39,4.78-1.21,9.33-2.51,13.66-3.21,10.8-9.34,20.16-18.92,27.81Z"/>
      <path class="st1" d="M439.69,273.89v272.62h272.62v-272.62h-272.62ZM559.3,488.45c-4.1-.54-8.31-.42-12.47-.27-2.74.1-3.49-.83-3.48-3.53.02-3.14.04-6.29.05-9.43.01-4.55.02-9.11.02-13.66.01-5.93,0-11.86-.01-17.79v-7.83h.02v-5.83c0-9.27.03-18.54,0-27.81,0-4.56-.02-9.11-.06-13.66v-.17c-.02-2.88.72-3.72,3.67-3.7,20.68.14,41.36.15,62.04,0,3.23-.03,3.87,1.11,3.17,3.85t0,.02c-1.2,4.74-3.05,9.22-5.08,13.66-.05.1-.09.2-.14.3-.91,1.97-2.31,2-4.04,1.99-11.93-.04-23.87.12-35.8-.13-3.43-.07-4.01,1.06-4,4.17.03,7.16.04,14.32.04,21.48.01.63.01,1.26.01,1.9v11.76c0,5.93-.01,11.86,0,17.79v1.89c0,3.3,0,6.6.01,9.89,0,.63,0,1.26,0,1.88,0,3.06,0,6.12.01,9.18.01,2.99-.26,4.53-3.96,4.05ZM637.4,430.11c-1.23.99-2.52,1.94-3.86,2.87-5.73,3.95-12.16,6.45-19.61,8.01.81.93,1.62,1.86,2.42,2.78,5.23,6,10.39,11.92,15.5,17.79,3.99,4.58,7.96,9.13,11.91,13.66,3.41,3.92,6.82,7.83,10.22,11.73-.91,1.49-2.14.86-3.13.88-7.07.16-14.17-.37-21.21.58-1.68.23-2.58-.45-3.5-1.58-3.15-3.87-6.31-7.74-9.46-11.61-3.71-4.55-7.42-9.1-11.14-13.66-4.83-5.92-9.67-11.85-14.51-17.79-.62-.77-1.25-1.53-1.87-2.3-3.09-3.78-6.18-7.57-9.27-11.36-.98-1.2-1.96-2.4-2.94-3.6,7.32,0,14.4.06,21.49-.02,16.28-.17,30.18-10.89,36.11-24.19,1.95-4.37,3.04-9.02,3.07-13.66.01-.46,0-.93-.02-1.4-.23-5.61-.45-11.13-2.37-16.39-.18-.51-.38-1.01-.6-1.51-2.14-4.92-4.88-9.01-8.28-12.15-5.13-4.75-11.75-7.34-19.99-7.39-29.7-.18-59.41-.02-89.11-.18-3.61-.02-3.18,1.88-3.18,4.15v48.53c0,9.27,0,18.54.01,27.81,0,4.56,0,9.11.01,13.66.01,5.93.02,11.86.03,17.79.01,4.56.02,9.11.03,13.66.01,2.82.02,5.65.03,8.47,0,4.05-.98,5.38-5.02,4.94-3.43-.37-6.95-.33-10.39-.01-3.55.32-4.68-.59-4.64-4.44.03-2.99.05-5.98.07-8.96.04-4.56.06-9.11.08-13.66.03-5.93.04-11.86.06-17.79,0-4.55.01-9.11.02-13.66.02-9.27.03-18.54.07-27.81v-.56c.02-4.37.04-8.73.07-13.1.03-5.93.08-11.86.12-17.79.03-4.55.06-9.11.08-13.66.05-7.64.09-15.27.1-22.91,0-3.01.73-3.95,3.89-4.01,36.64-.73,73.28-.59,109.92-.39,20.04.1,36.59,10.96,44.84,27.31,2.13,4.22,3.7,8.8,4.63,13.66.63,3.23.97,6.58,1.01,10.02.03,2.65-.06,5.24-.26,7.77-.39,4.78-1.21,9.33-2.51,13.66-3.21,10.8-9.34,20.16-18.92,27.81Z"/>
    </g>
  </g>
</svg>