<?xml version="1.0" encoding="UTF-8"?>
<svg id="Layer_1" xmlns="http://www.w3.org/2000/svg" version="1.1" viewBox="0 0 1152 1152">
  <!-- Generator: Adobe Illustrator 29.8.3, SVG Export Plug-In . SVG Version: 2.1.1 Build 3)  -->
  <defs>
    <style>
      .st0, .st1 {
        fill: #333;
      }

      .st2 {
        fill: #fff;
      }

      .st1 {
        stroke: #333;
        stroke-miterlimit: 10;
        stroke-width: 1.48px;
      }

      .st3 {
        fill: #f16022;
      }

      .st4 {
        fill: #ec6624;
      }
    </style>
  </defs>
  <g>
    <g>
      <path class="st3" d="M261.68,343.13c-3-10.68-13.4-18.26-25.32-16.8-10.55,1.29-19.02,9.85-20.2,20.41-1.58,14.06,9.38,25.98,23.13,25.98,10.28,0,19-6.68,22.08-15.93h127.18l45.51,45.51h150.01c3.77,0,6.83-3.06,6.83-6.83h0c0-3.77-3.06-6.83-6.83-6.83h-144.36l-45.51-45.51h-132.52ZM239.28,363.8c-7.94,0-14.37-6.43-14.37-14.37s6.43-14.37,14.37-14.37,14.37,6.43,14.37,14.37-6.43,14.37-14.37,14.37Z"/>
      <path class="st3" d="M584.06,357.19h-121.95v-7.41c-.99-.7-1.93-1.46-2.83-2.26-.17.03-.35,0-.51-.13-3.62-3.12-6.88-6.64-10.32-9.96v10.12l-53.54-53.54v-55.75c10.12-2.53,17.63-11.66,17.63-22.56,0-13.74-11.9-24.7-25.96-23.13-10.85,1.21-19.54,10.12-20.51,20.99-.98,10.96,5.65,20.48,15.18,23.98v52.47h-63.66c-3.13-10.01-12.83-17.11-24.05-16.25-11.01.84-20.1,9.58-21.31,20.56-1.55,14.05,9.4,25.93,23.14,25.93,10.53,0,19.41-6.99,22.29-16.58h67.59l67.2,67.2h131.61c3.77,0,6.83-3.06,6.83-6.83s-3.06-6.83-6.83-6.83ZM295.37,311.32c-7.94,0-14.37-6.43-14.37-14.37s6.43-14.37,14.37-14.37,14.37,6.43,14.37,14.37-6.43,14.37-14.37,14.37ZM374.88,215.69c0-7.94,6.43-14.37,14.37-14.37s14.37,6.43,14.37,14.37-6.43,14.37-14.37,14.37-14.37-6.43-14.37-14.37Z"/>
      <path class="st3" d="M448.45,334.41v1.37c1.06,1.01,2.11,2.04,3.15,3.08-1.09-1.46-2.13-2.94-3.15-4.45Z"/>
      <path class="st3" d="M298.33,396.89c-10.55,7.02-13.54,21.17-6.77,31.85,6.66,10.5,20.8,13.91,31.5,7.58,3.67-2.17,6.5-5.18,8.43-8.62l15.05,3.12,29.4,44.8h-114.59c-3.27-9.82-12.9-16.75-24.01-15.85-10.97.89-19.99,9.61-21.2,20.54-1.56,14.05,9.4,25.94,23.13,25.94,10.67,0,19.64-7.19,22.4-16.98h132.52l45.51-45.51h144.36c3.77,0,6.83-3.06,6.83-6.83h0c0-3.77-3.06-6.83-6.83-6.83h-150.01l-43.24,43.24-35.94-54.76-20.43-4.24c-.33-3.99-1.68-7.95-4.17-11.49-7.18-10.22-21.54-12.9-31.94-5.98ZM239.28,497.35c-7.94,0-14.37-6.43-14.37-14.37s6.43-14.37,14.37-14.37,14.37,6.43,14.37,14.37-6.43,14.37-14.37,14.37ZM323.24,408.39c4.35,6.63,2.51,15.54-4.13,19.9-6.63,4.35-15.54,2.51-19.9-4.13-4.35-6.63-2.51-15.54,4.13-19.9,6.63-4.35,15.54-2.51,19.9,4.13Z"/>
      <path class="st3" d="M584.06,461.56h-131.61l-67.2,67.2h-67.59c-3.04-10.11-12.75-17.34-24.03-16.52-11.05.8-20.18,9.55-21.4,20.56-1.56,14.05,9.4,25.94,23.13,25.94,10.43,0,19.26-6.86,22.22-16.32h63.66v52.47c-9.54,3.5-16.16,13.02-15.18,23.98.97,10.88,9.66,19.78,20.51,20.99,14.06,1.57,25.96-9.39,25.96-23.13,0-10.9-7.51-20.03-17.63-22.56v-55.75l53.54-53.54v10.53c.17-.11.33-.23.5-.34,3.7-2.51,7.39-5.1,11.41-7.09.56-.28,1.15-.55,1.75-.81v-11.95h121.95c3.77,0,6.83-3.06,6.83-6.83s-3.06-6.83-6.83-6.83ZM295.37,549.82c-7.94,0-14.37-6.43-14.37-14.37s6.43-14.37,14.37-14.37,14.37,6.43,14.37,14.37-6.43,14.37-14.37,14.37ZM403.62,616.72c0,7.94-6.43,14.37-14.37,14.37s-14.37-6.43-14.37-14.37,6.43-14.37,14.37-14.37,14.37,6.43,14.37,14.37Z"/>
    </g>
    <g>
      <path class="st3" d="M757.81,343.13l-45.51,45.51h-144.36c-3.77,0-6.83,3.06-6.83,6.83h0c0,3.77,3.06,6.83,6.83,6.83h150.01s45.51-45.51,45.51-45.51h127.18c3.08,9.25,11.79,15.93,22.08,15.93,13.75,0,24.71-11.91,23.13-25.98-1.19-10.56-9.65-19.12-20.2-20.41-11.93-1.46-22.33,6.12-25.32,16.8h-132.52ZM898.35,349.43c0-7.94,6.43-14.37,14.37-14.37,7.94,0,14.37,6.43,14.37,14.37s-6.43,14.37-14.37,14.37-14.37-6.43-14.37-14.37Z"/>
      <path class="st3" d="M879.77,294.3c-1.21-10.98-10.3-19.72-21.31-20.56-11.22-.85-20.92,6.25-24.05,16.25h-63.66v-52.47c9.54-3.5,16.16-13.02,15.18-23.98-.97-10.88-9.66-19.78-20.51-20.99-14.06-1.57-25.96,9.39-25.96,23.13,0,10.9,7.51,20.03,17.63,22.56v55.75l-53.54,53.54v-7.26c-3.89,3.92-8.88,6.43-13.66,9.18v7.74h-121.95c-3.77,0-6.83,3.06-6.83,6.83s3.06,6.83,6.83,6.83h131.61l67.2-67.2h67.59c2.88,9.59,11.76,16.58,22.29,16.58,13.73,0,24.69-11.89,23.14-25.93ZM762.75,230.05c-7.94,0-14.37-6.43-14.37-14.37s6.43-14.37,14.37-14.37,14.37,6.43,14.37,14.37-6.43,14.37-14.37,14.37ZM856.63,311.32c-7.94,0-14.37-6.43-14.37-14.37s6.43-14.37,14.37-14.37,14.37,6.43,14.37,14.37-6.43,14.37-14.37,14.37Z"/>
      <path class="st3" d="M821.73,402.87c-2.48,3.53-3.84,7.5-4.17,11.49l-20.43,4.24-35.94,54.76-43.24-43.24h-150.01c-3.77,0-6.83,3.06-6.83,6.83h0c0,3.77,3.06,6.83,6.83,6.83h144.36s45.51,45.51,45.51,45.51h132.52c2.75,9.79,11.72,16.98,22.4,16.98,13.73,0,24.69-11.89,23.13-25.94-1.21-10.93-10.23-19.66-21.2-20.54-11.12-.9-20.74,6.02-24.01,15.85h-114.59s29.4-44.8,29.4-44.8l15.05-3.12c1.93,3.44,4.76,6.45,8.43,8.62,10.71,6.33,24.84,2.92,31.5-7.58,6.77-10.68,3.78-24.83-6.77-31.85-10.4-6.91-24.76-4.23-31.94,5.98ZM898.35,482.98c0-7.94,6.43-14.37,14.37-14.37,7.94,0,14.37,6.43,14.37,14.37,0,7.94-6.43,14.37-14.37,14.37s-14.37-6.43-14.37-14.37ZM848.65,404.26c6.63,4.35,8.48,13.26,4.13,19.9-4.35,6.63-13.26,8.48-19.9,4.13-6.63-4.35-8.48-13.26-4.13-19.9,4.35-6.63,13.26-8.48,19.9-4.13Z"/>
      <path class="st3" d="M879.77,532.8c-1.22-11.01-10.35-19.76-21.4-20.56-11.28-.82-20.99,6.41-24.03,16.52h-67.59l-67.2-67.2h-131.61c-3.77,0-6.83,3.06-6.83,6.83s3.06,6.83,6.83,6.83h121.95v12.09c.13.08.26.16.38.24,4.86,3.13,9.15,7,13.27,11.04v-13.7l53.54,53.54v55.75c-10.12,2.53-17.63,11.66-17.63,22.56,0,13.74,11.9,24.7,25.96,23.13,10.85-1.21,19.54-10.12,20.51-20.99.98-10.96-5.65-20.48-15.18-23.98v-52.47h63.66c2.96,9.46,11.79,16.32,22.22,16.32,13.73,0,24.69-11.89,23.13-25.94ZM777.12,616.72c0,7.94-6.43,14.37-14.37,14.37s-14.37-6.43-14.37-14.37,6.43-14.37,14.37-14.37,14.37,6.43,14.37,14.37ZM856.63,549.82c-7.94,0-14.37-6.43-14.37-14.37s6.43-14.37,14.37-14.37,14.37,6.43,14.37,14.37-6.43,14.37-14.37,14.37Z"/>
    </g>
  </g>
  <g>
    <g>
      <path class="st0" d="M328.63,745.98h-56.93c-3.44,0-6.03.79-7.78,2.36-1.75,1.57-2.63,3.87-2.63,6.89v63.78h-25.3v-63.78c0-3.97.55-7.53,1.65-10.67,1.1-3.14,2.58-5.91,4.43-8.32,1.85-2.4,3.97-4.45,6.37-6.14,2.4-1.69,4.91-3.07,7.54-4.14,2.63-1.07,5.29-1.85,7.98-2.36,2.69-.5,5.21-.75,7.54-.75h57.12v23.13Z"/>
      <path class="st0" d="M460.29,807.35c0,1.66-.33,3.2-.97,4.63-.65,1.42-1.54,2.65-2.68,3.69-1.14,1.04-2.47,1.85-3.99,2.45-1.52.59-3.16.89-4.91.89h-57.22c-3.11,0-6.44-.32-9.97-.98-3.54-.65-7.02-1.7-10.46-3.16-3.44-1.45-6.76-3.29-9.97-5.52-3.21-2.22-6.02-4.92-8.42-8.09-2.4-3.17-4.33-6.83-5.79-10.99-1.46-4.15-2.19-8.83-2.19-14.05v-53.37h25.3v53.37c0,3.02.57,5.74,1.7,8.14,1.13,2.4,2.68,4.46,4.62,6.18,1.95,1.72,4.23,3.04,6.86,3.96,2.63.92,5.46,1.38,8.51,1.38h44.28v-73.03h25.3v84.5Z"/>
      <path class="st0" d="M585.72,786.54c0,3.97-.55,7.55-1.65,10.72-1.1,3.17-2.56,5.96-4.38,8.36-1.82,2.4-3.93,4.45-6.32,6.14-2.4,1.69-4.91,3.07-7.54,4.14-2.63,1.07-5.29,1.85-7.98,2.36-2.69.51-5.24.76-7.64.76h-68.51v-23.13h68.31c3.44,0,6.03-.8,7.78-2.4,1.75-1.6,2.63-3.91,2.63-6.94-.33-6.17-3.73-9.25-10.22-9.25h-39.22c-5.58,0-10.31-.89-14.21-2.67-3.89-1.78-7.06-4-9.49-6.67-2.43-2.67-4.18-5.54-5.26-8.63-1.07-3.08-1.61-5.96-1.61-8.63,0-5.16,1-9.5,3.02-13.03,2.01-3.53,4.54-6.39,7.59-8.58,3.05-2.19,6.36-3.78,9.93-4.76,3.57-.98,6.91-1.47,10.02-1.47h62.18v23.13h-61.99c-1.3,0-2.32.13-3.07.4-.75.27-1.3.62-1.65,1.07-.36.44-.57.92-.63,1.42-.06.5-.1.99-.1,1.47.06.95.26,1.69.58,2.22.32.53.73.92,1.22,1.16.49.24,1.04.37,1.65.4.62.03,1.22.04,1.8.04h39.22c6.49,0,12,1.07,16.54,3.2,4.54,2.13,8.21,4.82,11,8.05,2.79,3.23,4.82,6.75,6.08,10.54,1.27,3.8,1.9,7.32,1.9,10.58Z"/>
      <path class="st3" d="M732.37,819h-91.28c-3.5,0-7.33-.56-11.48-1.69-4.15-1.13-8-2.98-11.53-5.56-3.54-2.58-6.49-5.93-8.86-10.05-2.37-4.12-3.55-9.18-3.55-15.17v-83.43c0-1.6.32-3.11.97-4.54.65-1.42,1.54-2.67,2.68-3.74,1.13-1.07,2.48-1.9,4.04-2.49s3.24-.89,5.06-.89h113.95v23.13h-101.4v71.96c0,3.02.88,5.34,2.63,6.94,1.75,1.6,4.31,2.4,7.69,2.4h91.08v23.13ZM720.98,766.88h-79.89v-23.3h79.89v23.3Z"/>
      <path class="st3" d="M883.49,714.58h-101.4v104.43h-25.3v-115.9c0-1.6.32-3.11.97-4.54.65-1.42,1.54-2.67,2.68-3.74,1.13-1.07,2.48-1.9,4.04-2.49s3.24-.89,5.06-.89h113.95v23.13ZM872.2,766.88h-79.99v-23.3h79.99v23.3Z"/>
      <path class="st3" d="M929.42,819h-25.3v-127.55h25.3v127.55Z"/>
    </g>
    <g>
      <path class="st1" d="M250.15,880.19h-6.16v16.45h-5.58v-37.49h11.74c5.23,0,11.16,3.41,11.16,10.52s-5.93,10.52-11.16,10.52ZM249.16,864.09h-5.17v11.4h5.17c3.31,0,6.39-1.76,6.39-5.7s-3.08-5.7-6.39-5.7Z"/>
      <path class="st1" d="M291.31,897.35c-9.88,0-19.65-7.34-19.65-19.51s9.76-19.45,19.65-19.45,19.65,7.4,19.65,19.45-9.76,19.51-19.65,19.51ZM291.31,863.45c-6.86,0-13.95,5.23-13.95,14.51s7.09,14.57,13.95,14.57,13.95-5.29,13.95-14.57-7.21-14.51-13.95-14.51Z"/>
      <path class="st1" d="M356.99,897.17h-1.92l-6.92-20.03c-.99-2.88-2.03-5.99-3.2-10.05h-.12c-1.16,4.05-2.21,7.23-3.2,10.05l-6.92,20.03h-1.92l-13.14-38.02h5.64l5.99,17.27c.87,2.47,1.98,5.52,2.73,8.58h.12c.81-3.06,1.8-6.05,2.67-8.58l5.93-17.27h4.82l5.99,17.27c.81,2.41,1.8,5.52,2.62,8.58h.12c.76-3,1.92-6.23,2.73-8.58l5.99-17.27h5.17l-13.19,38.02Z"/>
      <path class="st1" d="M381.11,896.64v-37.49h19.99v4.88h-14.36v11.34h12.03v4.88h-12.03v11.52h16.39v4.88h-22.03Z"/>
      <path class="st1" d="M434.7,896.64l-11.68-16.45h-4.24v16.45h-5.58v-37.49h11.16c5.23,0,11.16,3.41,11.16,10.52,0,4.99-2.91,8.17-6.51,9.64l12.67,17.33h-6.98ZM423.37,864.09h-4.59v11.4h4.59c3.31,0,6.39-1.76,6.39-5.7s-3.08-5.7-6.39-5.7Z"/>
      <path class="st1" d="M460.34,864.03v32.61h-5.64v-32.61h-11.92v-4.88h29.47v4.88h-11.92Z"/>
      <path class="st1" d="M503.82,896.64l-11.68-16.45h-4.24v16.45h-5.58v-37.49h11.16c5.23,0,11.16,3.41,11.16,10.52,0,4.99-2.91,8.17-6.51,9.64l12.67,17.33h-6.98ZM492.48,864.09h-4.59v11.4h4.59c3.31,0,6.39-1.76,6.39-5.7s-3.08-5.7-6.39-5.7Z"/>
      <path class="st1" d="M543.98,896.64l-4.01-9.69h-14.42l-4.01,9.69h-5.52l15.81-38.02h2.03l15.81,38.02h-5.7ZM534.39,873.26c-.52-1.23-1.1-3-1.57-4.58h-.12c-.41,1.59-1.05,3.35-1.57,4.58l-3.66,9.17h10.58l-3.66-9.17Z"/>
      <path class="st1" d="M561.19,896.64v-37.49h5.64v37.49h-5.64Z"/>
      <path class="st1" d="M612.51,897.47l-17.38-19.21c-2.79-3.06-5.99-6.82-8.54-9.87l-.12.06c.12,3.41.12,6.58.12,9.4v18.8h-5.64v-37.49h3.89l15.93,17.63c2.15,2.41,5.52,6.17,7.79,8.99l.12-.06c-.12-2.88-.12-6.11-.12-8.81v-17.75h5.64v38.31h-1.69Z"/>
      <path class="st1" d="M675.11,866.26c-1.8-1.18-5.41-2.41-9.18-2.41-7.09,0-14.59,4.64-14.59,14.16s7.32,14.1,14.59,14.1c4.3,0,7.21-.82,9.47-2.11l-.52,5.17c-2.32,1.23-4.94,1.76-9.59,1.76-9.18,0-19.65-6.46-19.65-19.04s10.58-19.1,19.65-19.1c5,0,8.54,1.12,10.81,2.41l-.99,5.05Z"/>
      <path class="st1" d="M705.51,897.35c-9.88,0-19.65-7.34-19.65-19.51s9.76-19.45,19.65-19.45,19.65,7.4,19.65,19.45-9.76,19.51-19.65,19.51ZM705.51,863.45c-6.86,0-13.95,5.23-13.95,14.51s7.09,14.57,13.95,14.57,13.95-5.29,13.95-14.57-7.21-14.51-13.95-14.51Z"/>
      <path class="st1" d="M768.81,897.47l-17.38-19.21c-2.79-3.06-5.99-6.82-8.54-9.87l-.12.06c.12,3.41.12,6.58.12,9.4v18.8h-5.64v-37.49h3.89l15.93,17.63c2.15,2.41,5.52,6.17,7.79,8.99l.12-.06c-.12-2.88-.12-6.11-.12-8.81v-17.75h5.64v38.31h-1.69Z"/>
      <path class="st1" d="M798.11,864.03v32.61h-5.64v-32.61h-11.92v-4.88h29.47v4.88h-11.92Z"/>
      <path class="st1" d="M841.59,896.64l-11.68-16.45h-4.24v16.45h-5.58v-37.49h11.16c5.23,0,11.16,3.41,11.16,10.52,0,4.99-2.91,8.17-6.51,9.64l12.67,17.33h-6.98ZM830.25,864.09h-4.59v11.4h4.59c3.31,0,6.39-1.76,6.39-5.7s-3.08-5.7-6.39-5.7Z"/>
      <path class="st1" d="M872.8,897.35c-9.88,0-19.65-7.34-19.65-19.51s9.76-19.45,19.65-19.45,19.65,7.4,19.65,19.45-9.76,19.51-19.65,19.51ZM872.8,863.45c-6.86,0-13.95,5.23-13.95,14.51s7.09,14.57,13.95,14.57,13.95-5.29,13.95-14.57-7.21-14.51-13.95-14.51Z"/>
      <path class="st1" d="M904.54,896.64v-37.49h5.64v32.61h16.33v4.88h-21.97Z"/>
      <path class="st1" d="M423.57,959.07c-3.95,0-7.5-1.18-9.42-2.47l-.64-5.93c2.67,2.06,6.45,3.47,10.35,3.47s6.68-2.23,6.68-5.58-1.92-5.29-6.28-6.7c-6.51-2.12-9.94-5.47-9.94-10.87s3.78-10.05,11.57-10.05c3.6,0,6.63,1.12,7.96,2.11l-1.1,4.76c-1.34-.94-4.13-2.17-7.09-2.17-3.66,0-5.93,2.29-5.93,4.94s1.98,4.35,5.81,5.64c6.34,2.17,10.64,5.17,10.64,11.81s-4.36,11.05-12.61,11.05Z"/>
      <path class="st1" d="M466.06,959.48c-9.88,0-19.65-7.34-19.65-19.51s9.77-19.45,19.65-19.45,19.65,7.4,19.65,19.45-9.76,19.51-19.65,19.51ZM466.06,925.58c-6.86,0-13.95,5.23-13.95,14.51s7.09,14.57,13.95,14.57,13.95-5.29,13.95-14.57-7.21-14.51-13.95-14.51Z"/>
      <path class="st1" d="M497.8,958.77v-37.49h5.64v32.61h16.33v4.88h-21.97Z"/>
      <path class="st1" d="M544.94,959.48c-8.66,0-15.11-5.17-15.11-13.92v-24.27h5.64v23.68c0,5.58,3.08,9.46,9.53,9.46s9.59-3.88,9.59-9.46v-23.68h5.46v24.27c0,8.76-6.45,13.92-15.11,13.92Z"/>
      <path class="st1" d="M587.66,926.16v32.61h-5.64v-32.61h-11.92v-4.88h29.47v4.88h-11.92Z"/>
      <path class="st1" d="M610.22,958.77v-37.49h5.64v37.49h-5.64Z"/>
      <path class="st1" d="M648.17,959.48c-9.88,0-19.65-7.34-19.65-19.51s9.76-19.45,19.65-19.45,19.65,7.4,19.65,19.45-9.76,19.51-19.65,19.51ZM648.17,925.58c-6.86,0-13.95,5.23-13.95,14.51s7.09,14.57,13.95,14.57,13.95-5.29,13.95-14.57-7.21-14.51-13.95-14.51Z"/>
      <path class="st1" d="M711.47,959.6l-17.38-19.21c-2.79-3.06-5.99-6.82-8.54-9.87l-.12.06c.12,3.41.12,6.58.12,9.4v18.8h-5.64v-37.49h3.89l15.93,17.63c2.15,2.41,5.52,6.17,7.79,8.99l.12-.06c-.12-2.88-.12-6.11-.12-8.81v-17.75h5.64v38.31h-1.69Z"/>
      <path class="st1" d="M735.65,959.07c-3.95,0-7.5-1.18-9.42-2.47l-.64-5.93c2.67,2.06,6.45,3.47,10.35,3.47s6.68-2.23,6.68-5.58-1.92-5.29-6.28-6.7c-6.51-2.12-9.94-5.47-9.94-10.87s3.78-10.05,11.57-10.05c3.6,0,6.63,1.12,7.96,2.11l-1.1,4.76c-1.34-.94-4.13-2.17-7.09-2.17-3.66,0-5.93,2.29-5.93,4.94s1.98,4.35,5.81,5.64c6.34,2.17,10.64,5.17,10.64,11.81s-4.36,11.05-12.61,11.05Z"/>
    </g>
  </g>
  <g>
    <g>
      <rect class="st3" x="413.6" y="247.8" width="324.8" height="324.8"/>
      <rect class="st2" x="426.9" y="261.11" width="298.19" height="298.19"/>
      <rect class="st0" x="439.69" y="273.89" width="272.62" height="272.62"/>
    </g>
    <path class="st0" d="M613.93,440.99c7.46-1.56,13.89-4.07,19.62-8.01,18.25-12.56,25.79-30.41,25.55-52.11-.32-28.76-21.86-50.84-50.48-51-36.64-.2-73.28-.33-109.93.39-3.16.06-3.88,1-3.89,4.01-.03,22.48-.28,44.97-.37,67.45-.11,27.48-.04,54.97-.3,82.45-.04,3.85,1.09,4.76,4.64,4.44,3.44-.32,6.97-.36,10.4.01,4.04.44,5.03-.89,5.02-4.94-.16-43.31-.09-86.61-.11-129.92,0-2.27-.43-4.17,3.18-4.16,29.7.16,59.41,0,89.11.19,13.68.08,22.9,7.17,28.27,19.54,2.48,5.71,2.73,11.75,2.97,17.9.76,19.23-16.99,39.02-39.16,39.26-7.09.07-14.17.01-21.49.01,16.44,20.16,32.82,40.24,49.19,60.32.92,1.13,1.82,1.81,3.51,1.58,7.04-.95,14.13-.42,21.21-.58.99-.02,2.22.61,3.13-.89-13.17-15.11-26.37-30.25-40.06-45.95Z"/>
    <path class="st0" d="M543.43,435.94h-.02c0,16.24.06,32.48-.06,48.71-.02,2.71.74,3.63,3.48,3.54,4.15-.15,8.37-.27,12.47.26,3.7.49,3.97-1.05,3.96-4.05-.08-25.26.02-50.52-.08-75.77-.01-3.11.57-4.24,4-4.17,11.93.25,23.87.09,35.8.14,1.73,0,3.12-.02,4.03-1.99,2.09-4.54,4-9.13,5.24-13.98.7-2.74.06-3.88-3.17-3.85-20.68.15-41.36.14-62.03,0-2.96-.02-3.7.82-3.67,3.7.13,15.82.06,31.64.06,47.46Z"/>
    <path class="st4" d="M613.93,440.99c13.69,15.7,26.89,30.85,40.06,45.95-.92,1.5-2.15.86-3.13.89-7.07.16-14.17-.37-21.21.58-1.68.23-2.58-.45-3.51-1.58-16.37-20.09-32.75-40.17-49.19-60.32,7.32,0,14.41.06,21.49-.01,22.17-.23,39.92-20.02,39.16-39.26-.24-6.14-.49-12.18-2.97-17.9-5.37-12.37-14.59-19.45-28.27-19.54-29.7-.18-59.41-.02-89.11-.19-3.6-.02-3.18,1.89-3.18,4.16.02,43.31-.05,86.61.11,129.92.01,4.04-.98,5.38-5.02,4.94-3.43-.38-6.95-.33-10.4-.01-3.55.33-4.67-.58-4.64-4.44.26-27.48.19-54.97.3-82.45.09-22.48.34-44.97.37-67.45,0-3.01.73-3.95,3.89-4.01,36.64-.73,73.28-.6,109.93-.39,28.62.16,50.16,22.24,50.48,51,.24,21.69-7.3,39.55-25.55,52.11-5.73,3.95-12.16,6.45-19.62,8.01Z"/>
    <path class="st4" d="M543.43,435.94c0-15.82.07-31.64-.06-47.46-.02-2.88.72-3.72,3.67-3.7,20.68.13,41.36.14,62.03,0,3.23-.02,3.87,1.11,3.17,3.85-1.23,4.85-3.15,9.44-5.24,13.98-.91,1.97-2.3,2-4.03,1.99-11.94-.04-23.87.11-35.8-.14-3.43-.07-4.01,1.06-4,4.17.1,25.26,0,50.52.08,75.77,0,2.99-.26,4.53-3.96,4.05-4.1-.54-8.32-.41-12.47-.26-2.74.1-3.5-.83-3.48-3.54.12-16.24.06-32.47.06-48.71h.02Z"/>
  </g>
</svg>