<?xml version="1.0" encoding="UTF-8"?>
<svg id="Layer_1" xmlns="http://www.w3.org/2000/svg" version="1.1" viewBox="0 0 1584 576">
  <!-- Generator: Adobe Illustrator 29.8.3, SVG Export Plug-In . SVG Version: 2.1.1 Build 3)  -->
  <defs>
    <style>
      .st0 {
        fill: #231f20;
      }

      .st1 {
        fill: #fff;
      }
    </style>
  </defs>
  <rect class="st0" width="1584" height="576"/>
  <g>
    <g>
      <path class="st1" d="M775.52,185.32c-2.33,0-4.85.25-7.54.76-2.69.5-5.35,1.29-7.98,2.35-2.62,1.07-5.14,2.45-7.54,4.14s-4.52,3.73-6.37,6.14c-1.85,2.4-3.33,5.17-4.43,8.31-1.1,3.15-1.65,6.71-1.65,10.68v63.77h25.3v-63.77c0-3.03.87-5.32,2.62-6.9,1.76-1.57,4.35-2.35,7.79-2.35h56.92v-23.13h-57.12Z"/>
      <path class="st1" d="M939,185.32v73.03h-44.27c-3.05,0-5.89-.46-8.52-1.38-2.62-.92-4.91-2.24-6.86-3.96-1.94-1.72-3.48-3.78-4.62-6.18-1.13-2.4-1.7-5.12-1.7-8.14v-53.37h-25.3v53.37c0,5.22.73,9.9,2.19,14.05,1.46,4.15,3.39,7.82,5.79,10.99s5.2,5.87,8.41,8.09c3.22,2.23,6.54,4.07,9.98,5.52,3.44,1.45,6.92,2.5,10.46,3.15,3.53.66,6.86.98,9.97.98h57.22c1.75,0,3.39-.29,4.92-.89,1.52-.59,2.85-1.4,3.99-2.44,1.13-1.04,2.02-2.27,2.67-3.69.65-1.43.97-2.97.97-4.63v-84.5h-25.3Z"/>
      <path class="st1" d="M1087.84,238.42c-1.26-3.79-3.29-7.31-6.08-10.54-2.79-3.23-6.46-5.91-11-8.05-4.54-2.13-10.05-3.2-16.54-3.2h-39.22c-.58,0-1.18-.01-1.8-.04-.61-.03-1.16-.17-1.65-.4-.49-.24-.89-.63-1.22-1.16-.32-.54-.52-1.28-.58-2.22,0-.48.03-.97.1-1.47.06-.51.27-.98.63-1.43.36-.44.91-.8,1.65-1.06.75-.27,1.77-.4,3.07-.4h61.98v-23.13h-62.18c-3.11,0-6.45.49-10.02,1.47-3.57.98-6.88,2.56-9.92,4.76-3.05,2.19-5.58,5.05-7.6,8.58-2.01,3.53-3.01,7.87-3.01,13.03,0,2.67.53,5.55,1.6,8.63,1.07,3.08,2.83,5.96,5.26,8.63,2.43,2.67,5.59,4.89,9.49,6.67,3.89,1.78,8.62,2.67,14.2,2.67h39.22c6.49,0,9.89,3.08,10.22,9.25,0,3.02-.88,5.33-2.63,6.94-1.75,1.6-4.35,2.4-7.78,2.4h-68.32v23.12h68.51c2.4,0,4.95-.25,7.64-.75,2.69-.51,5.35-1.29,7.98-2.36s5.14-2.45,7.54-4.14,4.51-3.73,6.32-6.13c1.82-2.4,3.28-5.19,4.38-8.36,1.11-3.18,1.66-6.75,1.66-10.72,0-3.26-.63-6.79-1.9-10.59Z"/>
      <path class="st1" d="M1236.38,177.05v-23.13h-113.95c-1.81,0-3.5.3-5.06.89-1.55.6-2.9,1.42-4.03,2.49-1.14,1.07-2.03,2.31-2.68,3.74-.65,1.42-.97,2.93-.97,4.53v83.44c0,5.99,1.18,11.04,3.55,15.16,2.37,4.13,5.32,7.47,8.85,10.05,3.54,2.58,7.38,4.44,11.53,5.56,4.15,1.13,7.98,1.69,11.49,1.69h91.27v-23.12h-91.08c-3.37,0-5.93-.8-7.69-2.4-1.75-1.61-2.62-3.92-2.62-6.94v-71.96h101.39ZM1145.11,206.05v23.3h79.89v-23.3h-79.89Z"/>
      <path class="st1" d="M1273.56,153.92c-1.82,0-3.51.3-5.06.89-1.56.6-2.91,1.42-4.04,2.49-1.14,1.07-2.03,2.31-2.68,3.74-.65,1.42-.97,2.93-.97,4.53v115.9h25.3v-104.42h101.4v-23.13h-113.95ZM1296.23,206.05v23.3h79.99v-23.3h-79.99Z"/>
      <path class="st1" d="M1408.14,153.92v127.55h25.3v-127.55h-25.3Z"/>
      <g>
        <path class="st1" d="M754.17,321.63h-11.74v37.48h5.58v-16.45h6.16c5.23,0,11.16-3.41,11.16-10.52s-5.93-10.51-11.16-10.51ZM748.01,326.56h5.17c3.32,0,6.4,1.82,6.4,5.7s-3.08,5.7-6.4,5.7h-5.17v-11.4Z"/>
        <path class="st1" d="M753.18,325.82h-5.9v12.88h5.9c3.56,0,7.14-1.99,7.14-6.44s-3.58-6.44-7.14-6.44ZM753.18,337.22h-4.43v-9.92h4.43c2.62,0,5.67,1.3,5.67,4.96s-2.93,4.96-5.67,4.96ZM753.18,325.82h-5.9v12.88h5.9c3.56,0,7.14-1.99,7.14-6.44s-3.58-6.44-7.14-6.44ZM753.18,337.22h-4.43v-9.92h4.43c2.62,0,5.67,1.3,5.67,4.96s-2.93,4.96-5.67,4.96ZM753.18,325.82h-5.9v12.88h5.9c3.56,0,7.14-1.99,7.14-6.44s-3.58-6.44-7.14-6.44ZM753.18,337.22h-4.43v-9.92h4.43c2.62,0,5.67,1.3,5.67,4.96s-2.93,4.96-5.67,4.96ZM753.18,325.82h-5.9v12.88h5.9c3.56,0,7.14-1.99,7.14-6.44s-3.58-6.44-7.14-6.44ZM753.18,337.22h-4.43v-9.92h4.43c2.62,0,5.67,1.3,5.67,4.96s-2.93,4.96-5.67,4.96ZM754.18,320.89h-12.48v38.96h7.05v-16.45h5.43c5.91,0,11.89-3.87,11.89-11.26s-5.98-11.25-11.89-11.25ZM754.18,341.92h-6.9v16.45h-4.11v-36h11.01c5.17,0,10.42,3.36,10.42,9.77s-5.25,9.78-10.42,9.78ZM753.18,325.82h-5.9v12.88h5.9c3.56,0,7.14-1.99,7.14-6.44s-3.58-6.44-7.14-6.44ZM753.18,337.22h-4.43v-9.92h4.43c2.62,0,5.67,1.3,5.67,4.96s-2.93,4.96-5.67,4.96ZM753.18,325.82h-5.9v12.88h5.9c3.56,0,7.14-1.99,7.14-6.44s-3.58-6.44-7.14-6.44ZM753.18,337.22h-4.43v-9.92h4.43c2.62,0,5.67,1.3,5.67,4.96s-2.93,4.96-5.67,4.96ZM753.18,325.82h-5.9v12.88h5.9c3.56,0,7.14-1.99,7.14-6.44s-3.58-6.44-7.14-6.44ZM753.18,337.22h-4.43v-9.92h4.43c2.62,0,5.67,1.3,5.67,4.96s-2.93,4.96-5.67,4.96Z"/>
      </g>
      <g>
        <path class="st1" d="M795.33,320.86c-9.89,0-19.65,7.41-19.65,19.45s9.76,19.51,19.65,19.51,19.64-7.35,19.64-19.51-9.76-19.45-19.64-19.45ZM795.33,355c-6.86,0-13.96-5.29-13.96-14.57s7.1-14.51,13.96-14.51,13.94,5.22,13.94,14.51-7.2,14.57-13.94,14.57Z"/>
        <path class="st1" d="M795.33,325.18c-7.12,0-14.69,5.35-14.69,15.25s7.57,15.31,14.69,15.31,14.68-5.73,14.68-15.31-7.46-15.25-14.68-15.25ZM795.33,354.26c-6.4,0-13.22-4.85-13.22-13.83s6.82-13.77,13.22-13.77,13.21,5.15,13.21,13.77-6.72,13.83-13.21,13.83ZM795.33,325.18c-7.12,0-14.69,5.35-14.69,15.25s7.57,15.31,14.69,15.31,14.68-5.73,14.68-15.31-7.46-15.25-14.68-15.25ZM795.33,354.26c-6.4,0-13.22-4.85-13.22-13.83s6.82-13.77,13.22-13.77,13.21,5.15,13.21,13.77-6.72,13.83-13.21,13.83ZM795.33,325.18c-7.12,0-14.69,5.35-14.69,15.25s7.57,15.31,14.69,15.31,14.68-5.73,14.68-15.31-7.46-15.25-14.68-15.25ZM795.33,354.26c-6.4,0-13.22-4.85-13.22-13.83s6.82-13.77,13.22-13.77,13.21,5.15,13.21,13.77-6.72,13.83-13.21,13.83ZM795.33,325.18c-7.12,0-14.69,5.35-14.69,15.25s7.57,15.31,14.69,15.31,14.68-5.73,14.68-15.31-7.46-15.25-14.68-15.25ZM795.33,354.26c-6.4,0-13.22-4.85-13.22-13.83s6.82-13.77,13.22-13.77,13.21,5.15,13.21,13.77-6.72,13.83-13.21,13.83ZM795.33,320.12c-10.02,0-20.38,7.55-20.38,20.19s10.36,20.25,20.38,20.25,20.38-7.57,20.38-20.25-10.36-20.19-20.38-20.19ZM776.42,340.31c0-11.71,9.62-18.71,18.91-18.71s18.91,7,18.91,18.71-9.61,18.77-18.91,18.77-18.91-7.02-18.91-18.77ZM810.01,340.43c0-9.54-7.46-15.25-14.68-15.25s-14.69,5.35-14.69,15.25,7.57,15.31,14.69,15.31,14.68-5.73,14.68-15.31ZM795.33,326.66c6.49,0,13.21,5.15,13.21,13.77s-6.72,13.83-13.21,13.83-13.22-4.85-13.22-13.83,6.82-13.77,13.22-13.77ZM795.33,325.18c-7.12,0-14.69,5.35-14.69,15.25s7.57,15.31,14.69,15.31,14.68-5.73,14.68-15.31-7.46-15.25-14.68-15.25ZM795.33,354.26c-6.4,0-13.22-4.85-13.22-13.83s6.82-13.77,13.22-13.77,13.21,5.15,13.21,13.77-6.72,13.83-13.21,13.83ZM795.33,325.18c-7.12,0-14.69,5.35-14.69,15.25s7.57,15.31,14.69,15.31,14.68-5.73,14.68-15.31-7.46-15.25-14.68-15.25ZM795.33,354.26c-6.4,0-13.22-4.85-13.22-13.83s6.82-13.77,13.22-13.77,13.21,5.15,13.21,13.77-6.72,13.83-13.21,13.83Z"/>
      </g>
      <g>
        <path class="st1" d="M869.03,321.63l-5.99,17.27c-.81,2.35-1.97,5.58-2.73,8.58h-.12c-.81-3.06-1.8-6.17-2.61-8.58l-5.99-17.27h-4.82l-5.93,17.27c-.87,2.53-1.86,5.52-2.68,8.58h-.11c-.76-3.06-1.86-6.11-2.73-8.58l-5.99-17.27h-5.64l13.14,38.01h1.92l6.91-20.03c.99-2.82,2.04-6,3.2-10.05h.12c1.16,4.05,2.2,7.17,3.19,10.05l6.92,20.03h1.92l13.19-38.01h-5.17Z"/>
        <path class="st1" d="M868.51,320.89l-6.48,18.67c-.55,1.6-1.2,3.47-1.77,5.38-.56-1.94-1.23-4.05-1.98-6.28l-6.16-17.77h-5.87l-6.1,17.77c-.61,1.76-1.34,3.94-2.03,6.26-.62-2.06-1.32-4.06-1.92-5.75l-6.34-18.28h-7.2l13.65,39.49h2.97l7.08-20.52c.94-2.67,1.77-5.22,2.57-7.88.91,3.05,1.76,5.58,2.55,7.87l7.09,20.53h2.97l13.7-39.49h-6.73ZM859.62,358.9l-6.75-19.53c-.96-2.81-2.02-5.97-3.17-10.01l-.16-.54h-1.23l-.16.54c-.99,3.46-2,6.64-3.18,10.01l-6.74,19.53h-.87l-12.63-36.53h4.08l5.82,16.78.18.51c.81,2.31,1.83,5.18,2.53,8l.14.56h1.25l.15-.55c.84-3.13,1.86-6.2,2.66-8.53l5.76-16.77h3.77l5.81,16.77c1.06,3.13,1.93,6,2.6,8.53l.15.55h1.26l.14-.56c.66-2.6,1.63-5.38,2.4-7.61l6.13-17.68h3.61l-12.68,36.53h-.87Z"/>
      </g>
      <g>
        <path class="st1" d="M890.77,354.24v-11.52h12.03v-4.88h-12.03v-11.34h14.36v-4.87h-20v37.48h22.03v-4.87h-16.39Z"/>
        <path class="st1" d="M891.51,353.5v-10.04h12.03v-6.36h-12.03v-9.86h14.36v-6.35h-21.47v38.96h23.5v-6.35h-16.39ZM906.43,358.37h-20.56v-36h18.53v3.39h-14.36v12.82h12.03v3.4h-12.03v13h16.39v3.39Z"/>
      </g>
      <g>
        <path class="st1" d="M933.03,341.78c3.6-1.47,6.51-4.64,6.51-9.64,0-7.11-5.93-10.51-11.16-10.51h-11.16v37.48h5.58v-16.45h4.24l11.68,16.45h6.98l-12.67-17.33ZM922.8,326.56h4.59c3.31,0,6.39,1.82,6.39,5.7s-3.08,5.7-6.39,5.7h-4.59v-11.4Z"/>
        <path class="st1" d="M927.39,325.82h-5.32v12.88h5.32c3.55,0,7.13-1.99,7.13-6.44s-3.58-6.44-7.13-6.44ZM927.39,337.22h-3.85v-9.92h3.85c2.61,0,5.66,1.3,5.66,4.96s-2.92,4.96-5.66,4.96ZM927.39,325.82h-5.32v12.88h5.32c3.55,0,7.13-1.99,7.13-6.44s-3.58-6.44-7.13-6.44ZM927.39,337.22h-3.85v-9.92h3.85c2.61,0,5.66,1.3,5.66,4.96s-2.92,4.96-5.66,4.96ZM927.39,325.82h-5.32v12.88h5.32c3.55,0,7.13-1.99,7.13-6.44s-3.58-6.44-7.13-6.44ZM927.39,337.22h-3.85v-9.92h3.85c2.61,0,5.66,1.3,5.66,4.96s-2.92,4.96-5.66,4.96ZM927.39,325.82h-5.32v12.88h5.32c3.55,0,7.13-1.99,7.13-6.44s-3.58-6.44-7.13-6.44ZM927.39,337.22h-3.85v-9.92h3.85c2.61,0,5.66,1.3,5.66,4.96s-2.92,4.96-5.66,4.96ZM934.17,342.08c3.9-1.93,6.11-5.5,6.11-9.94,0-7.38-5.98-11.25-11.9-11.25h-11.89v38.96h7.05v-16.45h3.12l11.68,16.45h8.82l-12.99-17.77ZM922.07,358.37h-4.11v-36h10.42c5.18,0,10.43,3.36,10.43,9.77,0,4.12-2.21,7.39-6.05,8.96l-.88.35,12.37,16.92h-5.14l-11.68-16.45h-5.36v16.45ZM934.52,332.26c0-4.45-3.58-6.44-7.13-6.44h-5.32v12.88h5.32c3.55,0,7.13-1.99,7.13-6.44ZM927.39,337.22h-3.85v-9.92h3.85c2.61,0,5.66,1.3,5.66,4.96s-2.92,4.96-5.66,4.96ZM927.39,325.82h-5.32v12.88h5.32c3.55,0,7.13-1.99,7.13-6.44s-3.58-6.44-7.13-6.44ZM927.39,337.22h-3.85v-9.92h3.85c2.61,0,5.66,1.3,5.66,4.96s-2.92,4.96-5.66,4.96ZM927.39,325.82h-5.32v12.88h5.32c3.55,0,7.13-1.99,7.13-6.44s-3.58-6.44-7.13-6.44ZM927.39,337.22h-3.85v-9.92h3.85c2.61,0,5.66,1.3,5.66,4.96s-2.92,4.96-5.66,4.96Z"/>
      </g>
      <g>
        <path class="st1" d="M946.8,321.63v4.87h11.92v32.61h5.64v-32.61h11.91v-4.87h-29.47Z"/>
        <path class="st1" d="M946.07,320.89v6.35h11.92v32.61h7.11v-32.61h11.91v-6.35h-30.94ZM975.54,325.76h-11.91v32.61h-4.17v-32.61h-11.92v-3.39h28v3.39Z"/>
      </g>
      <g>
        <path class="st1" d="M1002.14,341.78c3.6-1.47,6.51-4.64,6.51-9.64,0-7.11-5.93-10.51-11.16-10.51h-11.16v37.48h5.58v-16.45h4.24l11.68,16.45h6.98l-12.67-17.33ZM991.91,326.56h4.59c3.31,0,6.39,1.82,6.39,5.7s-3.08,5.7-6.39,5.7h-4.59v-11.4Z"/>
        <path class="st1" d="M996.5,325.82h-5.32v12.88h5.32c3.55,0,7.13-1.99,7.13-6.44s-3.58-6.44-7.13-6.44ZM996.5,337.22h-3.85v-9.92h3.85c2.61,0,5.66,1.3,5.66,4.96s-2.92,4.96-5.66,4.96ZM996.5,325.82h-5.32v12.88h5.32c3.55,0,7.13-1.99,7.13-6.44s-3.58-6.44-7.13-6.44ZM996.5,337.22h-3.85v-9.92h3.85c2.61,0,5.66,1.3,5.66,4.96s-2.92,4.96-5.66,4.96ZM996.5,325.82h-5.32v12.88h5.32c3.55,0,7.13-1.99,7.13-6.44s-3.58-6.44-7.13-6.44ZM996.5,337.22h-3.85v-9.92h3.85c2.61,0,5.66,1.3,5.66,4.96s-2.92,4.96-5.66,4.96ZM996.5,325.82h-5.32v12.88h5.32c3.55,0,7.13-1.99,7.13-6.44s-3.58-6.44-7.13-6.44ZM996.5,337.22h-3.85v-9.92h3.85c2.61,0,5.66,1.3,5.66,4.96s-2.92,4.96-5.66,4.96ZM1003.28,342.08c3.9-1.93,6.11-5.5,6.11-9.94,0-7.38-5.98-11.25-11.9-11.25h-11.89v38.96h7.05v-16.45h3.12l11.68,16.45h8.82l-12.99-17.77ZM991.18,358.37h-4.11v-36h10.42c5.18,0,10.43,3.36,10.43,9.77,0,4.12-2.21,7.39-6.05,8.96l-.88.35,12.37,16.92h-5.14l-11.68-16.45h-5.36v16.45ZM1003.63,332.26c0-4.45-3.58-6.44-7.13-6.44h-5.32v12.88h5.32c3.55,0,7.13-1.99,7.13-6.44ZM996.5,337.22h-3.85v-9.92h3.85c2.61,0,5.66,1.3,5.66,4.96s-2.92,4.96-5.66,4.96ZM996.5,325.82h-5.32v12.88h5.32c3.55,0,7.13-1.99,7.13-6.44s-3.58-6.44-7.13-6.44ZM996.5,337.22h-3.85v-9.92h3.85c2.61,0,5.66,1.3,5.66,4.96s-2.92,4.96-5.66,4.96ZM996.5,325.82h-5.32v12.88h5.32c3.55,0,7.13-1.99,7.13-6.44s-3.58-6.44-7.13-6.44ZM996.5,337.22h-3.85v-9.92h3.85c2.61,0,5.66,1.3,5.66,4.96s-2.92,4.96-5.66,4.96Z"/>
      </g>
      <g>
        <path class="st1" d="M1037.89,321.1h-2.04l-15.81,38.01h5.52l4.01-9.69h14.42l4.01,9.69h5.69l-15.8-38.01ZM1031.49,344.89l3.66-9.16c.53-1.24,1.17-3,1.57-4.59h.12c.46,1.59,1.05,3.35,1.57,4.59l3.66,9.16h-10.58Z"/>
        <path class="st1" d="M1039.1,335.44c-.48-1.14-1.06-2.82-1.55-4.5l-.15-.54h-1.25l-.14.56c-.34,1.36-.92,3.03-1.54,4.5l-4.07,10.17h12.77l-4.07-10.19ZM1032.59,344.15l3.24-8.13c.35-.8.68-1.68.97-2.54.32.96.64,1.84.93,2.53l3.25,8.14h-8.39ZM1039.1,335.44c-.48-1.14-1.06-2.82-1.55-4.5l-.15-.54h-1.25l-.14.56c-.34,1.36-.92,3.03-1.54,4.5l-4.07,10.17h12.77l-4.07-10.19ZM1032.59,344.15l3.24-8.13c.35-.8.68-1.68.97-2.54.32.96.64,1.84.93,2.53l3.25,8.14h-8.39ZM1039.1,335.44c-.48-1.14-1.06-2.82-1.55-4.5l-.15-.54h-1.25l-.14.56c-.34,1.36-.92,3.03-1.54,4.5l-4.07,10.17h12.77l-4.07-10.19ZM1032.59,344.15l3.24-8.13c.35-.8.68-1.68.97-2.54.32.96.64,1.84.93,2.53l3.25,8.14h-8.39ZM1039.1,335.44c-.48-1.14-1.06-2.82-1.55-4.5l-.15-.54h-1.25l-.14.56c-.34,1.36-.92,3.03-1.54,4.5l-4.07,10.17h12.77l-4.07-10.19ZM1032.59,344.15l3.24-8.13c.35-.8.68-1.68.97-2.54.32.96.64,1.84.93,2.53l3.25,8.14h-8.39ZM1038.39,320.36h-3.03l-16.42,39.49h7.12l4.01-9.69h13.43l4.01,9.69h7.29l-16.41-39.49ZM1021.15,358.37l15.2-36.53h1.05l15.19,36.53h-4.09l-4.01-9.69h-15.41l-4.01,9.69h-3.92ZM1039.1,335.44c-.48-1.14-1.06-2.82-1.55-4.5l-.15-.54h-1.25l-.14.56c-.34,1.36-.92,3.03-1.54,4.5l-4.07,10.17h12.77l-4.07-10.19ZM1032.59,344.15l3.24-8.13c.35-.8.68-1.68.97-2.54.32.96.64,1.84.93,2.53l3.25,8.14h-8.39ZM1039.1,335.44c-.48-1.14-1.06-2.82-1.55-4.5l-.15-.54h-1.25l-.14.56c-.34,1.36-.92,3.03-1.54,4.5l-4.07,10.17h12.77l-4.07-10.19ZM1032.59,344.15l3.24-8.13c.35-.8.68-1.68.97-2.54.32.96.64,1.84.93,2.53l3.25,8.14h-8.39ZM1039.1,335.44c-.48-1.14-1.06-2.82-1.55-4.5l-.15-.54h-1.25l-.14.56c-.34,1.36-.92,3.03-1.54,4.5l-4.07,10.17h12.77l-4.07-10.19ZM1032.59,344.15l3.24-8.13c.35-.8.68-1.68.97-2.54.32.96.64,1.84.93,2.53l3.25,8.14h-8.39Z"/>
      </g>
      <g>
        <path class="st1" d="M1065.2,321.63v37.48h5.64v-37.48h-5.64Z"/>
        <path class="st1" d="M1064.47,320.89v38.96h7.11v-38.96h-7.11ZM1070.11,358.37h-4.17v-36h4.17v36Z"/>
      </g>
      <g>
        <path class="st1" d="M1112.58,321.63v17.74c0,2.7,0,5.93.11,8.81l-.11.06c-2.27-2.82-5.64-6.58-7.79-8.99l-15.93-17.62h-3.89v37.48h5.64v-18.8c0-2.82,0-5.99-.12-9.4l.12-.06c2.55,3.06,5.75,6.82,8.54,9.87l17.38,19.22h1.68v-38.31h-5.63Z"/>
        <path class="st1" d="M1111.85,320.89v18.48c0,2.07,0,4.52.05,6.87-2.02-2.4-4.47-5.15-6.2-7.08l-16.51-18.27h-4.95v38.96h7.11v-19.54c0-2.28,0-4.8-.06-7.5,2.16,2.57,4.87,5.74,7.32,8.41l17.6,19.46h2.74v-39.79h-7.1ZM1117.48,359.2h-.62l-17.16-18.98c-2.92-3.19-6.25-7.11-8.52-9.84l-.37-.45-1.07.53.02.48c.12,3.39.12,6.57.12,9.37v18.06h-4.17v-36h2.83l15.7,17.37.36.4c2.1,2.35,5.27,5.91,7.41,8.56l.38.48,1.06-.57-.02-.46c-.11-2.86-.11-6.14-.11-8.78v-17h4.16v36.83Z"/>
      </g>
      <g>
        <path class="st1" d="M1155.36,340.49c0-9.52,7.5-14.16,14.59-14.16,3.78,0,7.38,1.23,9.18,2.4l.99-5.05c-2.27-1.29-5.81-2.41-10.81-2.41-9.07,0-19.65,6.35-19.65,19.1s10.46,19.04,19.65,19.04c4.65,0,7.26-.53,9.59-1.77l.52-5.17c-2.26,1.3-5.17,2.12-9.47,2.12-7.27,0-14.59-4.64-14.59-14.1Z"/>
        <path class="st1" d="M1169.95,353.85c-6.67,0-13.85-4.18-13.85-13.36s7.18-13.42,13.85-13.42c3.62,0,7.09,1.18,8.78,2.28l.92.6,1.3-6.65-.46-.26c-2.01-1.14-5.58-2.51-11.18-2.51-9.88,0-20.38,6.95-20.38,19.84s10.5,19.78,20.38,19.78c4.65,0,7.43-.52,9.94-1.86l.35-.18.7-7-1.24.72c-2.4,1.38-5.29,2.02-9.11,2.02ZM1178.21,357.17c-2.2,1.08-4.74,1.5-8.9,1.5-9.16,0-18.91-6.41-18.91-18.3s9.75-18.36,18.91-18.36c4.86,0,8.06,1.07,9.99,2.06l-.69,3.51c-2.06-1.06-5.28-1.99-8.66-1.99-7.61,0-15.32,5.12-15.32,14.9s7.94,14.84,15.32,14.84c3.46,0,6.24-.51,8.6-1.58l-.34,3.42Z"/>
      </g>
      <g>
        <path class="st1" d="M1209.53,320.86c-9.88,0-19.65,7.41-19.65,19.45s9.77,19.51,19.65,19.51,19.65-7.35,19.65-19.51-9.77-19.45-19.65-19.45ZM1209.53,355c-6.86,0-13.95-5.29-13.95-14.57s7.09-14.51,13.95-14.51,13.95,5.22,13.95,14.51-7.21,14.57-13.95,14.57Z"/>
        <path class="st1" d="M1209.53,325.18c-7.12,0-14.68,5.35-14.68,15.25s7.56,15.31,14.68,15.31,14.69-5.73,14.69-15.31-7.46-15.25-14.69-15.25ZM1209.53,354.26c-6.4,0-13.21-4.85-13.21-13.83s6.81-13.77,13.21-13.77,13.22,5.15,13.22,13.77-6.72,13.83-13.22,13.83ZM1209.53,325.18c-7.12,0-14.68,5.35-14.68,15.25s7.56,15.31,14.68,15.31,14.69-5.73,14.69-15.31-7.46-15.25-14.69-15.25ZM1209.53,354.26c-6.4,0-13.21-4.85-13.21-13.83s6.81-13.77,13.21-13.77,13.22,5.15,13.22,13.77-6.72,13.83-13.22,13.83ZM1209.53,325.18c-7.12,0-14.68,5.35-14.68,15.25s7.56,15.31,14.68,15.31,14.69-5.73,14.69-15.31-7.46-15.25-14.69-15.25ZM1209.53,354.26c-6.4,0-13.21-4.85-13.21-13.83s6.81-13.77,13.21-13.77,13.22,5.15,13.22,13.77-6.72,13.83-13.22,13.83ZM1209.53,325.18c-7.12,0-14.68,5.35-14.68,15.25s7.56,15.31,14.68,15.31,14.69-5.73,14.69-15.31-7.46-15.25-14.69-15.25ZM1209.53,354.26c-6.4,0-13.21-4.85-13.21-13.83s6.81-13.77,13.21-13.77,13.22,5.15,13.22,13.77-6.72,13.83-13.22,13.83ZM1209.53,320.12c-10.02,0-20.38,7.55-20.38,20.19s10.36,20.25,20.38,20.25,20.39-7.57,20.39-20.25-10.36-20.19-20.39-20.19ZM1190.62,340.31c0-11.71,9.62-18.71,18.91-18.71s18.92,7,18.92,18.71-9.62,18.77-18.92,18.77-18.91-7.02-18.91-18.77ZM1224.22,340.43c0-9.54-7.46-15.25-14.69-15.25s-14.68,5.35-14.68,15.25,7.56,15.31,14.68,15.31,14.69-5.73,14.69-15.31ZM1209.53,326.66c6.5,0,13.22,5.15,13.22,13.77s-6.72,13.83-13.22,13.83-13.21-4.85-13.21-13.83,6.81-13.77,13.21-13.77ZM1209.53,325.18c-7.12,0-14.68,5.35-14.68,15.25s7.56,15.31,14.68,15.31,14.69-5.73,14.69-15.31-7.46-15.25-14.69-15.25ZM1209.53,354.26c-6.4,0-13.21-4.85-13.21-13.83s6.81-13.77,13.21-13.77,13.22,5.15,13.22,13.77-6.72,13.83-13.22,13.83ZM1209.53,325.18c-7.12,0-14.68,5.35-14.68,15.25s7.56,15.31,14.68,15.31,14.69-5.73,14.69-15.31-7.46-15.25-14.69-15.25ZM1209.53,354.26c-6.4,0-13.21-4.85-13.21-13.83s6.81-13.77,13.21-13.77,13.22,5.15,13.22,13.77-6.72,13.83-13.22,13.83Z"/>
      </g>
      <g>
        <path class="st1" d="M1268.88,321.63v17.74c0,2.7,0,5.93.11,8.81l-.11.06c-2.27-2.82-5.64-6.58-7.79-8.99l-15.93-17.62h-3.89v37.48h5.64v-18.8c0-2.82,0-5.99-.12-9.4l.12-.06c2.55,3.06,5.75,6.82,8.54,9.87l17.38,19.22h1.69v-38.31h-5.64Z"/>
        <path class="st1" d="M1268.15,320.89v18.48c0,2.07,0,4.52.05,6.87-2.01-2.39-4.45-5.13-6.17-7.05l-16.54-18.3h-4.95v38.96h7.11v-19.54c0-2.28,0-4.8-.06-7.5,2.16,2.57,4.87,5.74,7.32,8.41l17.6,19.46h2.75v-39.79h-7.11ZM1273.79,359.2h-.63l-17.16-18.98c-2.92-3.19-6.25-7.11-8.52-9.84l-.37-.45-1.07.53.02.48c.12,3.39.12,6.57.12,9.37v18.06h-4.17v-36h2.83l15.7,17.37.38.43c2.1,2.35,5.26,5.89,7.39,8.53l.39.48,1.05-.57-.02-.46c-.11-2.86-.11-6.14-.11-8.78v-17h4.17v36.83Z"/>
      </g>
      <g>
        <path class="st1" d="M1284.57,321.63v4.87h11.92v32.61h5.64v-32.61h11.91v-4.87h-29.47Z"/>
        <path class="st1" d="M1283.84,320.89v6.35h11.92v32.61h7.11v-32.61h11.91v-6.35h-30.94ZM1313.31,325.76h-11.91v32.61h-4.17v-32.61h-11.92v-3.39h28v3.39Z"/>
      </g>
      <g>
        <path class="st1" d="M1339.91,341.78c3.6-1.47,6.51-4.64,6.51-9.64,0-7.11-5.93-10.51-11.16-10.51h-11.16v37.48h5.58v-16.45h4.24l11.68,16.45h6.98l-12.67-17.33ZM1329.68,326.56h4.59c3.31,0,6.39,1.82,6.39,5.7s-3.08,5.7-6.39,5.7h-4.59v-11.4Z"/>
        <path class="st1" d="M1334.27,325.82h-5.32v12.88h5.32c3.55,0,7.13-1.99,7.13-6.44s-3.58-6.44-7.13-6.44ZM1334.27,337.22h-3.85v-9.92h3.85c2.61,0,5.66,1.3,5.66,4.96s-2.92,4.96-5.66,4.96ZM1334.27,325.82h-5.32v12.88h5.32c3.55,0,7.13-1.99,7.13-6.44s-3.58-6.44-7.13-6.44ZM1334.27,337.22h-3.85v-9.92h3.85c2.61,0,5.66,1.3,5.66,4.96s-2.92,4.96-5.66,4.96ZM1334.27,325.82h-5.32v12.88h5.32c3.55,0,7.13-1.99,7.13-6.44s-3.58-6.44-7.13-6.44ZM1334.27,337.22h-3.85v-9.92h3.85c2.61,0,5.66,1.3,5.66,4.96s-2.92,4.96-5.66,4.96ZM1334.27,325.82h-5.32v12.88h5.32c3.55,0,7.13-1.99,7.13-6.44s-3.58-6.44-7.13-6.44ZM1334.27,337.22h-3.85v-9.92h3.85c2.61,0,5.66,1.3,5.66,4.96s-2.92,4.96-5.66,4.96ZM1341.05,342.08c3.9-1.93,6.11-5.5,6.11-9.94,0-7.38-5.98-11.25-11.9-11.25h-11.89v38.96h7.05v-16.45h3.12l11.68,16.45h8.82l-12.99-17.77ZM1328.95,358.37h-4.11v-36h10.42c5.18,0,10.43,3.36,10.43,9.77,0,4.12-2.21,7.39-6.05,8.96l-.88.35,12.37,16.92h-5.14l-11.68-16.45h-5.36v16.45ZM1341.4,332.26c0-4.45-3.58-6.44-7.13-6.44h-5.32v12.88h5.32c3.55,0,7.13-1.99,7.13-6.44ZM1334.27,337.22h-3.85v-9.92h3.85c2.61,0,5.66,1.3,5.66,4.96s-2.92,4.96-5.66,4.96ZM1334.27,325.82h-5.32v12.88h5.32c3.55,0,7.13-1.99,7.13-6.44s-3.58-6.44-7.13-6.44ZM1334.27,337.22h-3.85v-9.92h3.85c2.61,0,5.66,1.3,5.66,4.96s-2.92,4.96-5.66,4.96ZM1334.27,325.82h-5.32v12.88h5.32c3.55,0,7.13-1.99,7.13-6.44s-3.58-6.44-7.13-6.44ZM1334.27,337.22h-3.85v-9.92h3.85c2.61,0,5.66,1.3,5.66,4.96s-2.92,4.96-5.66,4.96Z"/>
      </g>
      <g>
        <path class="st1" d="M1376.82,320.86c-9.88,0-19.65,7.41-19.65,19.45s9.77,19.51,19.65,19.51,19.64-7.35,19.64-19.51-9.76-19.45-19.64-19.45ZM1376.82,355c-6.86,0-13.95-5.29-13.95-14.57s7.09-14.51,13.95-14.51,13.95,5.22,13.95,14.51-7.21,14.57-13.95,14.57Z"/>
        <path class="st1" d="M1376.82,325.18c-7.12,0-14.68,5.35-14.68,15.25s7.56,15.31,14.68,15.31,14.69-5.73,14.69-15.31-7.46-15.25-14.69-15.25ZM1376.82,354.26c-6.4,0-13.21-4.85-13.21-13.83s6.81-13.77,13.21-13.77,13.22,5.15,13.22,13.77-6.72,13.83-13.22,13.83ZM1376.82,325.18c-7.12,0-14.68,5.35-14.68,15.25s7.56,15.31,14.68,15.31,14.69-5.73,14.69-15.31-7.46-15.25-14.69-15.25ZM1376.82,354.26c-6.4,0-13.21-4.85-13.21-13.83s6.81-13.77,13.21-13.77,13.22,5.15,13.22,13.77-6.72,13.83-13.22,13.83ZM1376.82,325.18c-7.12,0-14.68,5.35-14.68,15.25s7.56,15.31,14.68,15.31,14.69-5.73,14.69-15.31-7.46-15.25-14.69-15.25ZM1376.82,354.26c-6.4,0-13.21-4.85-13.21-13.83s6.81-13.77,13.21-13.77,13.22,5.15,13.22,13.77-6.72,13.83-13.22,13.83ZM1376.82,325.18c-7.12,0-14.68,5.35-14.68,15.25s7.56,15.31,14.68,15.31,14.69-5.73,14.69-15.31-7.46-15.25-14.69-15.25ZM1376.82,354.26c-6.4,0-13.21-4.85-13.21-13.83s6.81-13.77,13.21-13.77,13.22,5.15,13.22,13.77-6.72,13.83-13.22,13.83ZM1376.82,320.12c-10.02,0-20.38,7.55-20.38,20.19s10.36,20.25,20.38,20.25,20.38-7.57,20.38-20.25-10.36-20.19-20.38-20.19ZM1357.91,340.31c0-11.71,9.62-18.71,18.91-18.71s18.91,7,18.91,18.71-9.61,18.77-18.91,18.77-18.91-7.02-18.91-18.77ZM1391.51,340.43c0-9.54-7.46-15.25-14.69-15.25s-14.68,5.35-14.68,15.25,7.56,15.31,14.68,15.31,14.69-5.73,14.69-15.31ZM1376.82,326.66c6.5,0,13.22,5.15,13.22,13.77s-6.72,13.83-13.22,13.83-13.21-4.85-13.21-13.83,6.81-13.77,13.21-13.77ZM1376.82,325.18c-7.12,0-14.68,5.35-14.68,15.25s7.56,15.31,14.68,15.31,14.69-5.73,14.69-15.31-7.46-15.25-14.69-15.25ZM1376.82,354.26c-6.4,0-13.21-4.85-13.21-13.83s6.81-13.77,13.21-13.77,13.22,5.15,13.22,13.77-6.72,13.83-13.22,13.83ZM1376.82,325.18c-7.12,0-14.68,5.35-14.68,15.25s7.56,15.31,14.68,15.31,14.69-5.73,14.69-15.31-7.46-15.25-14.69-15.25ZM1376.82,354.26c-6.4,0-13.21-4.85-13.21-13.83s6.81-13.77,13.21-13.77,13.22,5.15,13.22,13.77-6.72,13.83-13.22,13.83Z"/>
      </g>
      <g>
        <path class="st1" d="M1414.19,354.24v-32.61h-5.63v37.48h21.97v-4.87h-16.34Z"/>
        <path class="st1" d="M1414.93,353.5v-32.61h-7.1v38.96h23.44v-6.35h-16.34ZM1429.8,358.37h-20.5v-36h4.16v32.61h16.34v3.39Z"/>
      </g>
      <g>
        <path class="st1" d="M929.57,398.68c-3.84-1.29-5.82-2.94-5.82-5.64s2.27-4.94,5.93-4.94c2.97,0,5.76,1.24,7.09,2.18l1.11-4.76c-1.34-1-4.36-2.12-7.96-2.12-7.79,0-11.57,4.88-11.57,10.05s3.43,8.76,9.94,10.87c4.36,1.41,6.28,3.29,6.28,6.7s-2.68,5.58-6.69,5.58-7.67-1.41-10.35-3.47l.64,5.94c1.92,1.29,5.47,2.47,9.42,2.47,8.25,0,12.61-4.47,12.61-11.05s-4.3-9.64-10.63-11.81Z"/>
        <path class="st1" d="M937.44,402.07c-2.09-1.93-4.88-3.15-7.63-4.09-3.73-1.25-5.32-2.73-5.32-4.94,0-2.09,1.79-4.2,5.19-4.2,2.6,0,5.27,1.06,6.67,2.04l.89.64,1.47-6.3-.38-.29c-1.52-1.13-4.7-2.27-8.4-2.27-8.51,0-12.31,5.42-12.31,10.79s3.41,9.29,10.45,11.57c4.15,1.35,5.77,3.03,5.77,6s-2.34,4.84-5.96,4.84-7.19-1.24-9.89-3.31l-1.38-1.06.87,8,.28.19c1.79,1.2,5.43,2.6,9.83,2.6,8.24,0,13.35-4.52,13.35-11.79,0-3.83-1.4-6.49-3.5-8.42ZM918.44,414.65c2.78,1.72,6.14,2.69,9.44,2.69,4.45,0,7.43-2.54,7.43-6.32s-2.03-5.86-6.79-7.4c-6.43-2.09-9.43-5.32-9.43-10.17s3.35-9.31,10.84-9.31c3.03,0,5.7.84,7.12,1.71l-.76,3.26c-1.7-.94-4.16-1.75-6.61-1.75-3.8,0-6.66,2.44-6.66,5.68,0,3.74,3.37,5.35,6.32,6.34,7.19,2.47,10.13,5.69,10.13,11.11,0,6.46-4.44,10.31-11.88,10.31-3.84,0-7.02-1.12-8.72-2.16l-.43-3.99Z"/>
      </g>
      <g>
        <path class="st1" d="M970.08,382.99c-9.88,0-19.65,7.41-19.65,19.45s9.77,19.51,19.65,19.51,19.65-7.35,19.65-19.51-9.77-19.45-19.65-19.45ZM970.08,417.13c-6.86,0-13.95-5.29-13.95-14.57s7.09-14.51,13.95-14.51,13.95,5.22,13.95,14.51-7.21,14.57-13.95,14.57Z"/>
        <path class="st1" d="M970.08,387.31c-7.12,0-14.68,5.35-14.68,15.25s7.56,15.31,14.68,15.31,14.69-5.73,14.69-15.31-7.46-15.25-14.69-15.25ZM970.08,416.39c-6.4,0-13.21-4.85-13.21-13.83s6.81-13.77,13.21-13.77,13.22,5.15,13.22,13.77-6.72,13.83-13.22,13.83ZM970.08,387.31c-7.12,0-14.68,5.35-14.68,15.25s7.56,15.31,14.68,15.31,14.69-5.73,14.69-15.31-7.46-15.25-14.69-15.25ZM970.08,416.39c-6.4,0-13.21-4.85-13.21-13.83s6.81-13.77,13.21-13.77,13.22,5.15,13.22,13.77-6.72,13.83-13.22,13.83ZM970.08,387.31c-7.12,0-14.68,5.35-14.68,15.25s7.56,15.31,14.68,15.31,14.69-5.73,14.69-15.31-7.46-15.25-14.69-15.25ZM970.08,416.39c-6.4,0-13.21-4.85-13.21-13.83s6.81-13.77,13.21-13.77,13.22,5.15,13.22,13.77-6.72,13.83-13.22,13.83ZM970.08,387.31c-7.12,0-14.68,5.35-14.68,15.25s7.56,15.31,14.68,15.31,14.69-5.73,14.69-15.31-7.46-15.25-14.69-15.25ZM970.08,416.39c-6.4,0-13.21-4.85-13.21-13.83s6.81-13.77,13.21-13.77,13.22,5.15,13.22,13.77-6.72,13.83-13.22,13.83ZM970.08,382.25c-10.02,0-20.38,7.55-20.38,20.19s10.36,20.25,20.38,20.25,20.39-7.57,20.39-20.25-10.36-20.19-20.39-20.19ZM951.17,402.44c0-11.71,9.62-18.71,18.91-18.71s18.92,7,18.92,18.71-9.62,18.77-18.92,18.77-18.91-7.02-18.91-18.77ZM984.77,402.56c0-9.54-7.46-15.25-14.69-15.25s-14.68,5.35-14.68,15.25,7.56,15.31,14.68,15.31,14.69-5.73,14.69-15.31ZM970.08,388.79c6.5,0,13.22,5.15,13.22,13.77s-6.72,13.83-13.22,13.83-13.21-4.85-13.21-13.83,6.81-13.77,13.21-13.77ZM970.08,387.31c-7.12,0-14.68,5.35-14.68,15.25s7.56,15.31,14.68,15.31,14.69-5.73,14.69-15.31-7.46-15.25-14.69-15.25ZM970.08,416.39c-6.4,0-13.21-4.85-13.21-13.83s6.81-13.77,13.21-13.77,13.22,5.15,13.22,13.77-6.72,13.83-13.22,13.83ZM970.08,387.31c-7.12,0-14.68,5.35-14.68,15.25s7.56,15.31,14.68,15.31,14.69-5.73,14.69-15.31-7.46-15.25-14.69-15.25ZM970.08,416.39c-6.4,0-13.21-4.85-13.21-13.83s6.81-13.77,13.21-13.77,13.22,5.15,13.22,13.77-6.72,13.83-13.22,13.83Z"/>
      </g>
      <g>
        <path class="st1" d="M1007.46,416.37v-32.61h-5.64v37.48h21.97v-4.87h-16.33Z"/>
        <path class="st1" d="M1008.2,415.63v-32.61h-7.11v38.96h23.44v-6.35h-16.33ZM1023.06,420.5h-20.5v-36h4.17v32.61h16.33v3.39Z"/>
      </g>
      <g>
        <path class="st1" d="M1058.61,383.76v23.68c0,5.58-3.14,9.46-9.59,9.46s-9.54-3.88-9.54-9.46v-23.68h-5.63v24.26c0,8.76,6.45,13.93,15.11,13.93s15.11-5.17,15.11-13.93v-24.26h-5.46Z"/>
        <path class="st1" d="M1057.88,383.02v24.42c0,5.54-3.23,8.72-8.86,8.72s-8.8-3.1-8.8-8.72v-24.42h-7.1v25c0,8.78,6.36,14.67,15.84,14.67s15.85-5.89,15.85-14.67v-25h-6.93ZM1063.34,408.02c0,8.01-5.65,13.19-14.38,13.19s-14.37-5.18-14.37-13.19v-23.52h4.16v22.94c0,6.39,3.84,10.2,10.27,10.2s10.33-3.81,10.33-10.2v-22.94h3.99v23.52Z"/>
      </g>
      <g>
        <path class="st1" d="M1074.13,383.76v4.87h11.91v32.61h5.64v-32.61h11.92v-4.87h-29.47Z"/>
        <path class="st1" d="M1073.4,383.02v6.35h11.91v32.61h7.11v-32.61h11.92v-6.35h-30.94ZM1102.87,387.89h-11.92v32.61h-4.17v-32.61h-11.91v-3.39h28v3.39Z"/>
      </g>
      <g>
        <path class="st1" d="M1114.24,383.76v37.48h5.63v-37.48h-5.63Z"/>
        <path class="st1" d="M1113.51,383.02v38.96h7.1v-38.96h-7.1ZM1119.14,420.5h-4.16v-36h4.16v36Z"/>
      </g>
      <g>
        <path class="st1" d="M1152.19,382.99c-9.88,0-19.65,7.41-19.65,19.45s9.77,19.51,19.65,19.51,19.65-7.35,19.65-19.51-9.77-19.45-19.65-19.45ZM1152.19,388.05c6.74,0,13.95,5.22,13.95,14.51s-7.21,14.57-13.95,14.57-13.95-5.29-13.95-14.57,7.09-14.51,13.95-14.51Z"/>
        <path class="st1" d="M1152.2,387.31c-7.13,0-14.69,5.35-14.69,15.25s7.56,15.31,14.69,15.31,14.68-5.73,14.68-15.31-7.46-15.25-14.68-15.25ZM1152.2,416.39c-6.41,0-13.22-4.85-13.22-13.83s6.81-13.77,13.22-13.77,13.21,5.15,13.21,13.77-6.72,13.83-13.21,13.83ZM1152.2,387.31c-7.13,0-14.69,5.35-14.69,15.25s7.56,15.31,14.69,15.31,14.68-5.73,14.68-15.31-7.46-15.25-14.68-15.25ZM1152.2,416.39c-6.41,0-13.22-4.85-13.22-13.83s6.81-13.77,13.22-13.77,13.21,5.15,13.21,13.77-6.72,13.83-13.21,13.83ZM1152.2,387.31c-7.13,0-14.69,5.35-14.69,15.25s7.56,15.31,14.69,15.31,14.68-5.73,14.68-15.31-7.46-15.25-14.68-15.25ZM1152.2,416.39c-6.41,0-13.22-4.85-13.22-13.83s6.81-13.77,13.22-13.77,13.21,5.15,13.21,13.77-6.72,13.83-13.21,13.83ZM1152.2,387.31c-7.13,0-14.69,5.35-14.69,15.25s7.56,15.31,14.69,15.31,14.68-5.73,14.68-15.31-7.46-15.25-14.68-15.25ZM1152.2,416.39c-6.41,0-13.22-4.85-13.22-13.83s6.81-13.77,13.22-13.77,13.21,5.15,13.21,13.77-6.72,13.83-13.21,13.83ZM1152.2,382.25c-10.03,0-20.39,7.55-20.39,20.19s10.36,20.25,20.39,20.25,20.38-7.57,20.38-20.25-10.36-20.19-20.38-20.19ZM1133.28,402.44c0-11.71,9.62-18.71,18.92-18.71s18.91,7,18.91,18.71-9.62,18.77-18.91,18.77-18.92-7.02-18.92-18.77ZM1166.88,402.56c0-9.54-7.46-15.25-14.68-15.25s-14.69,5.35-14.69,15.25,7.56,15.31,14.69,15.31,14.68-5.73,14.68-15.31ZM1165.41,402.56c0,8.66-6.72,13.83-13.21,13.83s-13.22-4.85-13.22-13.83,6.81-13.77,13.22-13.77,13.21,5.15,13.21,13.77ZM1152.2,387.31c-7.13,0-14.69,5.35-14.69,15.25s7.56,15.31,14.69,15.31,14.68-5.73,14.68-15.31-7.46-15.25-14.68-15.25ZM1152.2,416.39c-6.41,0-13.22-4.85-13.22-13.83s6.81-13.77,13.22-13.77,13.21,5.15,13.21,13.77-6.72,13.83-13.21,13.83ZM1152.2,387.31c-7.13,0-14.69,5.35-14.69,15.25s7.56,15.31,14.69,15.31,14.68-5.73,14.68-15.31-7.46-15.25-14.68-15.25ZM1152.2,416.39c-6.41,0-13.22-4.85-13.22-13.83s6.81-13.77,13.22-13.77,13.21,5.15,13.21,13.77-6.72,13.83-13.21,13.83Z"/>
      </g>
      <g>
        <path class="st1" d="M1211.54,383.76v17.74c0,2.7,0,5.94.11,8.81l-.11.06c-2.27-2.82-5.64-6.58-7.79-8.99l-15.93-17.62h-3.89v37.48h5.64v-18.8c0-2.82,0-5.99-.12-9.4l.12-.06c2.55,3.06,5.75,6.82,8.54,9.87l17.38,19.22h1.68v-38.31h-5.63Z"/>
        <path class="st1" d="M1210.81,383.02v18.48c0,2.07,0,4.53.05,6.87-2.02-2.4-4.47-5.15-6.2-7.09l-16.51-18.26h-4.95v38.96h7.11v-19.54c0-2.28,0-4.8-.06-7.5,2.16,2.57,4.87,5.74,7.32,8.41l17.6,19.46h2.74v-39.79h-7.1ZM1216.44,421.33h-.62l-17.16-18.98c-2.92-3.19-6.25-7.12-8.52-9.84l-.37-.45-1.07.53.02.48c.12,3.39.12,6.57.12,9.37v18.06h-4.17v-36h2.83l15.7,17.37.36.4c2.1,2.35,5.27,5.91,7.41,8.57l.39.48,1.05-.58-.02-.46c-.11-2.85-.11-6.14-.11-8.78v-17h4.16v36.83Z"/>
      </g>
      <g>
        <path class="st1" d="M1241.65,398.68c-3.84-1.29-5.82-2.94-5.82-5.64s2.27-4.94,5.93-4.94c2.97,0,5.76,1.24,7.09,2.18l1.11-4.76c-1.34-1-4.36-2.12-7.96-2.12-7.79,0-11.57,4.88-11.57,10.05s3.43,8.76,9.94,10.87c4.36,1.41,6.28,3.29,6.28,6.7s-2.68,5.58-6.69,5.58-7.67-1.41-10.34-3.47l.63,5.94c1.92,1.29,5.47,2.47,9.42,2.47,8.26,0,12.61-4.47,12.61-11.05s-4.3-9.64-10.63-11.81Z"/>
        <path class="st1" d="M1249.52,402.07c-2.09-1.93-4.88-3.15-7.63-4.09-3.73-1.25-5.32-2.73-5.32-4.94,0-2.09,1.79-4.2,5.19-4.2,2.59,0,5.27,1.06,6.67,2.04l.89.64,1.47-6.3-.38-.29c-1.52-1.13-4.7-2.27-8.41-2.27-8.5,0-12.3,5.42-12.3,10.79s3.41,9.29,10.45,11.57c4.15,1.35,5.77,3.03,5.77,6s-2.34,4.84-5.96,4.84-7.19-1.24-9.88-3.31l-1.37-1.06.85,8,.28.19c1.79,1.2,5.43,2.6,9.84,2.6,8.23,0,13.34-4.52,13.34-11.79,0-3.83-1.4-6.49-3.5-8.42ZM1230.53,414.66c2.77,1.71,6.12,2.68,9.43,2.68,4.45,0,7.43-2.54,7.43-6.32s-2.03-5.86-6.79-7.4c-6.43-2.09-9.43-5.32-9.43-10.17s3.35-9.31,10.83-9.31c3.04,0,5.71.84,7.13,1.71l-.76,3.26c-1.7-.94-4.16-1.75-6.61-1.75-3.8,0-6.66,2.44-6.66,5.68,0,3.74,3.37,5.35,6.32,6.34,7.19,2.47,10.13,5.69,10.13,11.11,0,6.46-4.44,10.31-11.87,10.31-3.85,0-7.03-1.12-8.73-2.16l-.42-3.98Z"/>
      </g>
    </g>
    <g>
      <path class="st1" d="M296.98,248.23l-14.39-14.38h-98.19c-2.22-7.91-9.93-13.53-18.77-12.45-7.81.95-14.08,7.29-14.96,15.12-1.18,10.42,6.95,19.25,17.14,19.25,7.62,0,14.07-4.95,16.36-11.8h94.23l18.58,18.59,9.85,9.85v-14.32l-9.85-9.86ZM167.81,249.17c-5.88,0-10.65-4.77-10.65-10.65s4.77-10.65,10.65-10.65,10.64,4.77,10.64,10.65-4.76,10.65-10.64,10.65ZM316.31,267.57v10.13h40.56v-.42c.01-3.24.03-6.47.05-9.71h-40.61ZM393.14,267.57h-21.71v10.13h21.75c0-3.38-.02-6.76-.04-10.13Z"/>
      <path class="st1" d="M296.98,211.29l-13.85-13.85v-41.31c7.5-1.87,13.05-8.64,13.05-16.71,0-10.18-8.81-18.3-19.23-17.15-8.04.9-14.47,7.5-15.19,15.56-.73,8.12,4.18,15.18,11.24,17.77v38.87h-47.17c-2.32-7.41-9.5-12.67-17.82-12.04-8.16.63-14.89,7.1-15.79,15.24-1.15,10.41,6.97,19.22,17.15,19.22,7.8,0,14.38-5.19,16.51-12.29h50.09l30.86,30.86v-14.32l-9.85-9.85ZM209.37,210.28c-5.89,0-10.65-4.76-10.65-10.65s4.76-10.65,10.65-10.65,10.65,4.78,10.65,10.65-4.78,10.65-10.65,10.65ZM268.28,139.42c0-5.89,4.78-10.65,10.65-10.65s10.65,4.76,10.65,10.65-4.76,10.64-10.65,10.64-10.65-4.77-10.65-10.64ZM332.92,244.27v-5.49c-.73-.53-1.43-1.09-2.1-1.68-.12.02-.25,0-.38-.1-2.68-2.31-5.1-4.92-7.64-7.39v7.5l-6.49-6.49v14.32l9.45,9.45h31.25c.03-3.37.05-6.75.07-10.12h-24.16ZM423.29,244.27h-51.86v10.12h51.86c2.79,0,5.06-2.27,5.06-5.06s-2.27-5.06-5.06-5.06Z"/>
      <path class="st1" d="M322.8,227.4v1.02c.79.75,1.56,1.51,2.33,2.28-.8-1.08-1.58-2.18-2.33-3.3Z"/>
      <path class="st1" d="M296.98,313.45l-16.9,16.9-26.63-40.58-15.13-3.14c-.25-2.95-1.25-5.89-3.09-8.51-5.32-7.57-15.96-9.56-23.67-4.43-7.82,5.2-10.03,15.68-5.01,23.6,4.94,7.78,15.41,10.31,23.34,5.61,2.72-1.6,4.81-3.83,6.25-6.38l11.15,2.31,21.79,33.2h-84.91c-2.43-7.28-9.56-12.41-17.8-11.75-8.12.66-14.81,7.12-15.7,15.23-1.16,10.41,6.96,19.22,17.14,19.22,7.9,0,14.56-5.33,16.59-12.58h98.19l14.39-14.38,9.85-9.86v-14.32l-9.85,9.86ZM226.96,296.95c-4.91,3.23-11.52,1.86-14.74-3.06-3.23-4.92-1.86-11.51,3.06-14.74,4.91-3.23,11.52-1.85,14.74,3.06,3.23,4.91,1.86,11.51-3.06,14.74ZM167.81,348.13c-5.88,0-10.65-4.77-10.65-10.65s4.77-10.65,10.65-10.65,10.64,4.77,10.64,10.65-4.76,10.65-10.64,10.65ZM316.31,298.3v10.13h.01s40.48-.01,40.48-.01c0-3.37,0-6.75.02-10.12h-40.51ZM420.19,298.3h-12.35c.01.47.01.94.01,1.41v8.71h15.44c1.49,0,2.85-.65,3.77-1.69-2.28-2.8-4.57-5.61-6.87-8.43ZM371.44,308.42h21.73v-5.8h.01v-4.32h-21.74c0,3.37,0,6.75,0,10.12Z"/>
      <path class="st1" d="M296.98,350.39l-21.01,21.01h-50.09c-2.24-7.5-9.44-12.85-17.8-12.24-8.18.59-14.96,7.08-15.86,15.24-1.15,10.4,6.97,19.22,17.15,19.22,7.73,0,14.27-5.09,16.46-12.1h47.17v38.88c-7.06,2.59-11.97,9.65-11.24,17.77.72,8.06,7.15,14.65,15.19,15.55,10.42,1.16,19.23-6.96,19.23-17.14,0-8.08-5.55-14.84-13.05-16.72v-41.31l13.85-13.85,9.85-9.84v-14.32l-9.85,9.85ZM209.37,387.01c-5.89,0-10.65-4.77-10.65-10.65s4.76-10.65,10.65-10.65,10.65,4.77,10.65,10.65-4.78,10.65-10.65,10.65ZM289.58,436.58c0,5.88-4.76,10.65-10.65,10.65s-10.65-4.77-10.65-10.65,4.78-10.65,10.65-10.65,10.65,4.77,10.65,10.65ZM325.76,321.61l-9.45,9.45v14.32l6.49-6.49v7.8c.12-.09.24-.17.37-.25,2.74-1.86,5.48-3.78,8.45-5.26.42-.2.86-.4,1.3-.6v-8.85h23.78c.03-3.37.05-6.75.06-10.12h-31ZM423.29,321.61h-15.44v1.4c0,2.44,0,4.88.01,7.33-.01.46-.01.92,0,1.39h15.43c2.79,0,5.06-2.27,5.06-5.06s-2.27-5.06-5.06-5.06ZM371.49,331.73h21.67c.01-3.38.02-6.75.02-10.12h-21.72c0,3.37.01,6.75.03,10.12Z"/>
      <path class="st1" d="M683.96,236.52c-.88-7.83-7.16-14.17-14.97-15.12-8.84-1.08-16.54,4.54-18.77,12.45h-98.19l-14.38,14.38-9.86,9.87v14.32l9.86-9.87,18.57-18.58h94.24c2.28,6.85,8.74,11.8,16.36,11.8,10.18,0,18.31-8.83,17.14-19.25ZM666.82,249.17c-5.88,0-10.65-4.77-10.65-10.65s4.77-10.65,10.65-10.65,10.65,4.77,10.65,10.65-4.77,10.65-10.65,10.65ZM444.18,267.57c-.9,3.52-2.27,6.84-3.78,10.13h20.31c1.44-3.24,2.25-6.69,2.27-10.13h-18.8ZM478.69,267.57c-.29,3.54-.9,6.92-1.86,10.13h41.49v-10.13h-39.63Z"/>
      <path class="st1" d="M642.41,197.67c-.91-8.14-7.64-14.61-15.8-15.24-8.31-.63-15.5,4.63-17.81,12.04h-47.18v-38.87c7.07-2.59,11.98-9.65,11.25-17.77-.72-8.06-7.15-14.66-15.2-15.56-10.41-1.15-19.23,6.97-19.23,17.15,0,8.07,5.56,14.84,13.06,16.71v41.31l-23.71,23.71v14.32l9.86-9.87,21.01-21h50.08c2.14,7.1,8.72,12.29,16.52,12.29,10.17,0,18.3-8.81,17.15-19.22ZM555.7,150.06c-5.89,0-10.65-4.77-10.65-10.64s4.76-10.65,10.65-10.65,10.64,4.76,10.64,10.65-4.77,10.64-10.64,10.64ZM625.26,210.28c-5.88,0-10.65-4.76-10.65-10.65s4.77-10.65,10.65-10.65,10.65,4.78,10.65,10.65-4.77,10.65-10.65,10.65ZM460.76,253.27c-1.59-3.65-3.62-6.68-6.14-9h-43.28c-2.79,0-5.06,2.27-5.06,5.06s2.27,5.06,5.06,5.06h49.86c-.13-.38-.28-.75-.44-1.12ZM511.83,237.11v-5.38c-2.88,2.91-6.58,4.77-10.12,6.8v5.74h-27.01c1.58,3.12,2.75,6.52,3.44,10.12h30.72l9.46-9.45v-14.32l-6.49,6.49Z"/>
      <path class="st1" d="M683.96,335.51c-.89-8.11-7.58-14.57-15.71-15.23-8.23-.66-15.37,4.47-17.79,11.75h-84.91l21.79-33.2,11.15-2.31c1.43,2.55,3.53,4.78,6.24,6.38,7.94,4.7,18.41,2.17,23.35-5.61,5.01-7.92,2.8-18.4-5.02-23.6-7.7-5.13-18.34-3.14-23.66,4.43-1.84,2.62-2.85,5.56-3.09,8.51l-15.13,3.14-26.63,40.58-16.9-16.9-9.86-9.87v14.32l9.86,9.87,14.38,14.38h98.19c2.04,7.25,8.7,12.58,16.6,12.58,10.18,0,18.3-8.81,17.14-19.22ZM604.61,282.21c3.22-4.91,9.82-6.29,14.74-3.06,4.92,3.23,6.29,9.82,3.06,14.74-3.23,4.92-9.83,6.29-14.75,3.06-4.91-3.23-6.28-9.83-3.05-14.74ZM666.82,348.13c-5.88,0-10.65-4.77-10.65-10.65s4.77-10.65,10.65-10.65,10.65,4.77,10.65,10.65-4.77,10.65-10.65,10.65ZM427.06,306.73c-2.28-2.8-4.57-5.61-6.87-8.43h-8.85c-1.35,0-2.58.54-3.49,1.41v7.31c.91.87,2.14,1.4,3.49,1.4h17.11c-.46-.56-.92-1.12-1.39-1.69ZM462.81,298.3c-.91.73-1.86,1.44-2.86,2.13-4.24,2.92-9.01,4.78-14.53,5.94.6.68,1.19,1.37,1.79,2.05h71.11s0-10.12,0-10.12h-55.51Z"/>
      <path class="st1" d="M642.4,374.4c-.9-8.16-7.67-14.65-15.85-15.24-8.36-.61-15.56,4.74-17.81,12.24h-50.08l-21.01-21.01-9.86-9.86v14.32l9.86,9.85,13.85,13.85v41.31c-7.5,1.88-13.06,8.64-13.06,16.72,0,10.18,8.82,18.3,19.23,17.14,8.05-.9,14.48-7.49,15.2-15.55.73-8.12-4.18-15.18-11.25-17.77v-38.88h47.18c2.19,7.01,8.73,12.1,16.46,12.1,10.17,0,18.3-8.82,17.14-19.22ZM566.34,436.58c0,5.88-4.77,10.65-10.64,10.65s-10.65-4.77-10.65-10.65,4.76-10.65,10.65-10.65,10.64,4.77,10.64,10.65ZM625.26,387.01c-5.88,0-10.65-4.77-10.65-10.65s4.77-10.65,10.65-10.65,10.65,4.77,10.65,10.65-4.77,10.65-10.65,10.65ZM439.2,321.61h-27.86c-1.35,0-2.58.52-3.49,1.4,0,2.44,0,4.88.01,7.33.91.86,2.13,1.39,3.48,1.39h36.12c-2.75-3.37-5.5-6.74-8.26-10.12ZM508.86,321.61h-50.16c2.96,3.4,5.9,6.77,8.83,10.12h34.18v8.95c.09.06.19.12.29.18,3.6,2.32,6.77,5.19,9.83,8.18v-10.15l6.49,6.49v-14.32l-9.46-9.45Z"/>
      <path class="st1" d="M511.83,338.89v10.15c-3.06-2.99-6.23-5.86-9.83-8.18-.1-.06-.2-.12-.29-.18v-8.95h-34.18c2.53,2.91,5.05,5.8,7.57,8.69-.68,1.11-1.59.64-2.32.65-5.24.12-10.5-.27-15.72.43-1.24.17-1.91-.33-2.59-1.17-2.34-2.87-4.67-5.73-7.01-8.6-2.75-3.37-5.5-6.74-8.26-10.12-3.58-4.39-7.16-8.79-10.75-13.19-.46-.56-.92-1.12-1.39-1.69-2.28-2.8-4.57-5.61-6.87-8.43-.73-.89-1.45-1.78-2.18-2.67,5.43,0,10.68.05,15.93-.01,12.06-.13,22.36-8.06,26.77-17.92,1.44-3.24,2.25-6.69,2.27-10.13,0-.35-.01-.69-.02-1.04-.16-4.15-.34-8.24-1.76-12.14-.13-.38-.28-.75-.44-1.12-1.59-3.65-3.62-6.68-6.14-9-3.81-3.52-8.71-5.43-14.81-5.47-22.01-.14-44.02-.02-66.03-.14-2.67-.02-2.35,1.4-2.35,3.08v35.96c0,6.87,0,13.73,0,20.6,0,3.37,0,6.75,0,10.12,0,4.4.01,8.79.02,13.19,0,3.37.01,6.75.03,10.12,0,2.09,0,4.19,0,6.28.02,2.99-.72,3.98-3.71,3.66-2.54-.28-5.16-.25-7.71-.01-2.63.24-3.46-.43-3.43-3.29.02-2.21.04-4.42.05-6.64.03-3.37.05-6.75.06-10.12.02-4.4.03-8.79.04-13.19,0-3.37,0-6.75.02-10.12.01-6.87.02-13.73.05-20.6v-.42c.01-3.24.03-6.47.05-9.71.03-4.39.06-8.78.09-13.18h-31.25l-9.45-9.45v139.62h202.01v-39.18l-6.49-6.49ZM404.94,341.53c-3.04-.4-6.16-.31-9.24-.2-2.03.08-2.59-.61-2.58-2.62.02-2.33.03-4.66.04-6.98.01-3.38.02-6.75.02-10.12,0-4.39,0-8.79-.01-13.19v-5.8h.01v-4.32c0-6.87.02-13.73,0-20.6,0-3.38-.02-6.76-.04-10.13v-.12c-.02-2.13.53-2.76,2.72-2.74,15.32.1,30.64.1,45.96,0,2.4-.01,2.87.83,2.36,2.86h0c-.9,3.53-2.27,6.85-3.78,10.14-.03.07-.07.15-.1.22-.68,1.46-1.71,1.48-2.99,1.48-8.85-.04-17.69.08-26.53-.1-2.54-.06-2.98.78-2.97,3.08.02,5.31.03,10.62.03,15.92.01.47.01.94.01,1.41v23.3c0,2.44,0,4.88.01,7.33-.01.46-.01.92,0,1.39,0,2.26,0,4.53,0,6.8.01,2.22-.19,3.36-2.93,3ZM316.31,182.54v202.02h202.01v-202.02h-202.01ZM404.94,341.53c-3.04-.4-6.16-.31-9.24-.2-2.03.08-2.59-.61-2.58-2.62.02-2.33.03-4.66.04-6.98.01-3.38.02-6.75.02-10.12,0-4.39,0-8.79-.01-13.19v-5.8h.01v-4.32c0-6.87.02-13.73,0-20.6,0-3.38-.02-6.76-.04-10.13v-.12c-.02-2.13.53-2.76,2.72-2.74,15.32.1,30.64.1,45.96,0,2.4-.01,2.87.83,2.36,2.86h0c-.9,3.53-2.27,6.85-3.78,10.14-.03.07-.07.15-.1.22-.68,1.46-1.71,1.48-2.99,1.48-8.85-.04-17.69.08-26.53-.1-2.54-.06-2.98.78-2.97,3.08.02,5.31.03,10.62.03,15.92.01.47.01.94.01,1.41v23.3c0,2.44,0,4.88.01,7.33-.01.46-.01.92,0,1.39,0,2.26,0,4.53,0,6.8.01,2.22-.19,3.36-2.93,3ZM476.83,277.7c-2.38,8-6.92,14.93-14.02,20.6-.91.73-1.86,1.44-2.86,2.13-4.24,2.92-9.01,4.78-14.53,5.94.6.68,1.19,1.37,1.79,2.05,3.87,4.45,7.7,8.84,11.49,13.19,2.96,3.4,5.9,6.77,8.83,10.12,2.53,2.91,5.05,5.8,7.57,8.69-.68,1.11-1.59.64-2.32.65-5.24.12-10.5-.27-15.72.43-1.24.17-1.91-.33-2.59-1.17-2.34-2.87-4.67-5.73-7.01-8.6-2.75-3.37-5.5-6.74-8.26-10.12-3.58-4.39-7.16-8.79-10.75-13.19-.46-.56-.92-1.12-1.39-1.69-2.28-2.8-4.57-5.61-6.87-8.43-.73-.89-1.45-1.78-2.18-2.67,5.43,0,10.68.05,15.93-.01,12.06-.13,22.36-8.06,26.77-17.92,1.44-3.24,2.25-6.69,2.27-10.13,0-.35-.01-.69-.02-1.04-.16-4.15-.34-8.24-1.76-12.14-.13-.38-.28-.75-.44-1.12-1.59-3.65-3.62-6.68-6.14-9-3.81-3.52-8.71-5.43-14.81-5.47-22.01-.14-44.02-.02-66.03-.14-2.67-.02-2.35,1.4-2.35,3.08v35.96c0,6.87,0,13.73,0,20.6,0,3.37,0,6.75,0,10.12,0,4.4.01,8.79.02,13.19,0,3.37.01,6.75.03,10.12,0,2.09,0,4.19,0,6.28.02,2.99-.72,3.98-3.71,3.66-2.54-.28-5.16-.25-7.71-.01-2.63.24-3.46-.43-3.43-3.29.02-2.21.04-4.42.05-6.64.03-3.37.05-6.75.06-10.12.02-4.4.03-8.79.04-13.19,0-3.37,0-6.75.02-10.12.01-6.87.02-13.73.05-20.6v-.42c.01-3.24.03-6.47.05-9.71.03-4.39.06-8.78.09-13.18.03-3.37.05-6.75.07-10.12.04-5.66.06-11.31.07-16.97,0-2.24.53-2.93,2.87-2.98,27.16-.54,54.31-.44,81.46-.29,14.84.08,27.11,8.12,33.22,20.24,1.58,3.12,2.75,6.52,3.44,10.12.47,2.39.72,4.87.75,7.43.02,1.96-.04,3.88-.2,5.75-.29,3.54-.9,6.92-1.86,10.13ZM316.31,182.54v202.02h202.01v-202.02h-202.01ZM404.94,341.53c-3.04-.4-6.16-.31-9.24-.2-2.03.08-2.59-.61-2.58-2.62.02-2.33.03-4.66.04-6.98.01-3.38.02-6.75.02-10.12,0-4.39,0-8.79-.01-13.19v-5.8h.01v-4.32c0-6.87.02-13.73,0-20.6,0-3.38-.02-6.76-.04-10.13v-.12c-.02-2.13.53-2.76,2.72-2.74,15.32.1,30.64.1,45.96,0,2.4-.01,2.87.83,2.36,2.86h0c-.9,3.53-2.27,6.85-3.78,10.14-.03.07-.07.15-.1.22-.68,1.46-1.71,1.48-2.99,1.48-8.85-.04-17.69.08-26.53-.1-2.54-.06-2.98.78-2.97,3.08.02,5.31.03,10.62.03,15.92.01.47.01.94.01,1.41v23.3c0,2.44,0,4.88.01,7.33-.01.46-.01.92,0,1.39,0,2.26,0,4.53,0,6.8.01,2.22-.19,3.36-2.93,3ZM476.83,277.7c-2.38,8-6.92,14.93-14.02,20.6-.91.73-1.86,1.44-2.86,2.13-4.24,2.92-9.01,4.78-14.53,5.94.6.68,1.19,1.37,1.79,2.05,3.87,4.45,7.7,8.84,11.49,13.19,2.96,3.4,5.9,6.77,8.83,10.12,2.53,2.91,5.05,5.8,7.57,8.69-.68,1.11-1.59.64-2.32.65-5.24.12-10.5-.27-15.72.43-1.24.17-1.91-.33-2.59-1.17-2.34-2.87-4.67-5.73-7.01-8.6-2.75-3.37-5.5-6.74-8.26-10.12-3.58-4.39-7.16-8.79-10.75-13.19-.46-.56-.92-1.12-1.39-1.69-2.28-2.8-4.57-5.61-6.87-8.43-.73-.89-1.45-1.78-2.18-2.67,5.43,0,10.68.05,15.93-.01,12.06-.13,22.36-8.06,26.77-17.92,1.44-3.24,2.25-6.69,2.27-10.13,0-.35-.01-.69-.02-1.04-.16-4.15-.34-8.24-1.76-12.14-.13-.38-.28-.75-.44-1.12-1.59-3.65-3.62-6.68-6.14-9-3.81-3.52-8.71-5.43-14.81-5.47-22.01-.14-44.02-.02-66.03-.14-2.67-.02-2.35,1.4-2.35,3.08v35.96c0,6.87,0,13.73,0,20.6,0,3.37,0,6.75,0,10.12,0,4.4.01,8.79.02,13.19,0,3.37.01,6.75.03,10.12,0,2.09,0,4.19,0,6.28.02,2.99-.72,3.98-3.71,3.66-2.54-.28-5.16-.25-7.71-.01-2.63.24-3.46-.43-3.43-3.29.02-2.21.04-4.42.05-6.64.03-3.37.05-6.75.06-10.12.02-4.4.03-8.79.04-13.19,0-3.37,0-6.75.02-10.12.01-6.87.02-13.73.05-20.6v-.42c.01-3.24.03-6.47.05-9.71.03-4.39.06-8.78.09-13.18.03-3.37.05-6.75.07-10.12.04-5.66.06-11.31.07-16.97,0-2.24.53-2.93,2.87-2.98,27.16-.54,54.31-.44,81.46-.29,14.84.08,27.11,8.12,33.22,20.24,1.58,3.12,2.75,6.52,3.44,10.12.47,2.39.72,4.87.75,7.43.02,1.96-.04,3.88-.2,5.75-.29,3.54-.9,6.92-1.86,10.13ZM296.98,163.21v240.68h240.67v-240.68h-240.67ZM527.79,394.03h-220.96v-220.96h220.96v220.96ZM316.31,384.56h202.01v-202.02h-202.01v202.02ZM404.94,341.53c-3.04-.4-6.16-.31-9.24-.2-2.03.08-2.59-.61-2.58-2.62.02-2.33.03-4.66.04-6.98.01-3.38.02-6.75.02-10.12,0-4.39,0-8.79-.01-13.19v-5.8h.01v-4.32c0-6.87.02-13.73,0-20.6,0-3.38-.02-6.76-.04-10.13v-.12c-.02-2.13.53-2.76,2.72-2.74,15.32.1,30.64.1,45.96,0,2.4-.01,2.87.83,2.36,2.86h0c-.9,3.53-2.27,6.85-3.78,10.14-.03.07-.07.15-.1.22-.68,1.46-1.71,1.48-2.99,1.48-8.85-.04-17.69.08-26.53-.1-2.54-.06-2.98.78-2.97,3.08.02,5.31.03,10.62.03,15.92.01.47.01.94.01,1.41v23.3c0,2.44,0,4.88.01,7.33-.01.46-.01.92,0,1.39,0,2.26,0,4.53,0,6.8.01,2.22-.19,3.36-2.93,3ZM357.15,227.3c0-2.24.53-2.93,2.87-2.98,27.16-.54,54.31-.44,81.46-.29,14.84.08,27.11,8.12,33.22,20.24,1.58,3.12,2.75,6.52,3.44,10.12.47,2.39.72,4.87.75,7.43.02,1.96-.04,3.88-.2,5.75-.29,3.54-.9,6.92-1.86,10.13-2.38,8-6.92,14.93-14.02,20.6-.91.73-1.86,1.44-2.86,2.13-4.24,2.92-9.01,4.78-14.53,5.94.6.68,1.19,1.37,1.79,2.05,3.87,4.45,7.7,8.84,11.49,13.19,2.96,3.4,5.9,6.77,8.83,10.12,2.53,2.91,5.05,5.8,7.57,8.69-.68,1.11-1.59.64-2.32.65-5.24.12-10.5-.27-15.72.43-1.24.17-1.91-.33-2.59-1.17-2.34-2.87-4.67-5.73-7.01-8.6-2.75-3.37-5.5-6.74-8.26-10.12-3.58-4.39-7.16-8.79-10.75-13.19-.46-.56-.92-1.12-1.39-1.69-2.28-2.8-4.57-5.61-6.87-8.43-.73-.89-1.45-1.78-2.18-2.67,5.43,0,10.68.05,15.93-.01,12.06-.13,22.36-8.06,26.77-17.92,1.44-3.24,2.25-6.69,2.27-10.13,0-.35-.01-.69-.02-1.04-.16-4.15-.34-8.24-1.76-12.14-.13-.38-.28-.75-.44-1.12-1.59-3.65-3.62-6.68-6.14-9-3.81-3.52-8.71-5.43-14.81-5.47-22.01-.14-44.02-.02-66.03-.14-2.67-.02-2.35,1.4-2.35,3.08v35.96c0,6.87,0,13.73,0,20.6,0,3.37,0,6.75,0,10.12,0,4.4.01,8.79.02,13.19,0,3.37.01,6.75.03,10.12,0,2.09,0,4.19,0,6.28.02,2.99-.72,3.98-3.71,3.66-2.54-.28-5.16-.25-7.71-.01-2.63.24-3.46-.43-3.43-3.29.02-2.21.04-4.42.05-6.64.03-3.37.05-6.75.06-10.12.02-4.4.03-8.79.04-13.19,0-3.37,0-6.75.02-10.12.01-6.87.02-13.73.05-20.6v-.42c.01-3.24.03-6.47.05-9.71.03-4.39.06-8.78.09-13.18.03-3.37.05-6.75.07-10.12.04-5.66.06-11.31.07-16.97ZM316.31,182.54v202.02h202.01v-202.02h-202.01ZM404.94,341.53c-3.04-.4-6.16-.31-9.24-.2-2.03.08-2.59-.61-2.58-2.62.02-2.33.03-4.66.04-6.98.01-3.38.02-6.75.02-10.12,0-4.39,0-8.79-.01-13.19v-5.8h.01v-4.32c0-6.87.02-13.73,0-20.6,0-3.38-.02-6.76-.04-10.13v-.12c-.02-2.13.53-2.76,2.72-2.74,15.32.1,30.64.1,45.96,0,2.4-.01,2.87.83,2.36,2.86h0c-.9,3.53-2.27,6.85-3.78,10.14-.03.07-.07.15-.1.22-.68,1.46-1.71,1.48-2.99,1.48-8.85-.04-17.69.08-26.53-.1-2.54-.06-2.98.78-2.97,3.08.02,5.31.03,10.62.03,15.92.01.47.01.94.01,1.41v23.3c0,2.44,0,4.88.01,7.33-.01.46-.01.92,0,1.39,0,2.26,0,4.53,0,6.8.01,2.22-.19,3.36-2.93,3ZM476.83,277.7c-2.38,8-6.92,14.93-14.02,20.6-.91.73-1.86,1.44-2.86,2.13-4.24,2.92-9.01,4.78-14.53,5.94.6.68,1.19,1.37,1.79,2.05,3.87,4.45,7.7,8.84,11.49,13.19,2.96,3.4,5.9,6.77,8.83,10.12,2.53,2.91,5.05,5.8,7.57,8.69-.68,1.11-1.59.64-2.32.65-5.24.12-10.5-.27-15.72.43-1.24.17-1.91-.33-2.59-1.17-2.34-2.87-4.67-5.73-7.01-8.6-2.75-3.37-5.5-6.74-8.26-10.12-3.58-4.39-7.16-8.79-10.75-13.19-.46-.56-.92-1.12-1.39-1.69-2.28-2.8-4.57-5.61-6.87-8.43-.73-.89-1.45-1.78-2.18-2.67,5.43,0,10.68.05,15.93-.01,12.06-.13,22.36-8.06,26.77-17.92,1.44-3.24,2.25-6.69,2.27-10.13,0-.35-.01-.69-.02-1.04-.16-4.15-.34-8.24-1.76-12.14-.13-.38-.28-.75-.44-1.12-1.59-3.65-3.62-6.68-6.14-9-3.81-3.52-8.71-5.43-14.81-5.47-22.01-.14-44.02-.02-66.03-.14-2.67-.02-2.35,1.4-2.35,3.08v35.96c0,6.87,0,13.73,0,20.6,0,3.37,0,6.75,0,10.12,0,4.4.01,8.79.02,13.19,0,3.37.01,6.75.03,10.12,0,2.09,0,4.19,0,6.28.02,2.99-.72,3.98-3.71,3.66-2.54-.28-5.16-.25-7.71-.01-2.63.24-3.46-.43-3.43-3.29.02-2.21.04-4.42.05-6.64.03-3.37.05-6.75.06-10.12.02-4.4.03-8.79.04-13.19,0-3.37,0-6.75.02-10.12.01-6.87.02-13.73.05-20.6v-.42c.01-3.24.03-6.47.05-9.71.03-4.39.06-8.78.09-13.18.03-3.37.05-6.75.07-10.12.04-5.66.06-11.31.07-16.97,0-2.24.53-2.93,2.87-2.98,27.16-.54,54.31-.44,81.46-.29,14.84.08,27.11,8.12,33.22,20.24,1.58,3.12,2.75,6.52,3.44,10.12.47,2.39.72,4.87.75,7.43.02,1.96-.04,3.88-.2,5.75-.29,3.54-.9,6.92-1.86,10.13ZM316.31,182.54v202.02h202.01v-202.02h-202.01ZM404.94,341.53c-3.04-.4-6.16-.31-9.24-.2-2.03.08-2.59-.61-2.58-2.62.02-2.33.03-4.66.04-6.98.01-3.38.02-6.75.02-10.12,0-4.39,0-8.79-.01-13.19v-5.8h.01v-4.32c0-6.87.02-13.73,0-20.6,0-3.38-.02-6.76-.04-10.13v-.12c-.02-2.13.53-2.76,2.72-2.74,15.32.1,30.64.1,45.96,0,2.4-.01,2.87.83,2.36,2.86h0c-.9,3.53-2.27,6.85-3.78,10.14-.03.07-.07.15-.1.22-.68,1.46-1.71,1.48-2.99,1.48-8.85-.04-17.69.08-26.53-.1-2.54-.06-2.98.78-2.97,3.08.02,5.31.03,10.62.03,15.92.01.47.01.94.01,1.41v23.3c0,2.44,0,4.88.01,7.33-.01.46-.01.92,0,1.39,0,2.26,0,4.53,0,6.8.01,2.22-.19,3.36-2.93,3ZM476.83,277.7c-2.38,8-6.92,14.93-14.02,20.6-.91.73-1.86,1.44-2.86,2.13-4.24,2.92-9.01,4.78-14.53,5.94.6.68,1.19,1.37,1.79,2.05,3.87,4.45,7.7,8.84,11.49,13.19,2.96,3.4,5.9,6.77,8.83,10.12,2.53,2.91,5.05,5.8,7.57,8.69-.68,1.11-1.59.64-2.32.65-5.24.12-10.5-.27-15.72.43-1.24.17-1.91-.33-2.59-1.17-2.34-2.87-4.67-5.73-7.01-8.6-2.75-3.37-5.5-6.74-8.26-10.12-3.58-4.39-7.16-8.79-10.75-13.19-.46-.56-.92-1.12-1.39-1.69-2.28-2.8-4.57-5.61-6.87-8.43-.73-.89-1.45-1.78-2.18-2.67,5.43,0,10.68.05,15.93-.01,12.06-.13,22.36-8.06,26.77-17.92,1.44-3.24,2.25-6.69,2.27-10.13,0-.35-.01-.69-.02-1.04-.16-4.15-.34-8.24-1.76-12.14-.13-.38-.28-.75-.44-1.12-1.59-3.65-3.62-6.68-6.14-9-3.81-3.52-8.71-5.43-14.81-5.47-22.01-.14-44.02-.02-66.03-.14-2.67-.02-2.35,1.4-2.35,3.08v35.96c0,6.87,0,13.73,0,20.6,0,3.37,0,6.75,0,10.12,0,4.4.01,8.79.02,13.19,0,3.37.01,6.75.03,10.12,0,2.09,0,4.19,0,6.28.02,2.99-.72,3.98-3.71,3.66-2.54-.28-5.16-.25-7.71-.01-2.63.24-3.46-.43-3.43-3.29.02-2.21.04-4.42.05-6.64.03-3.37.05-6.75.06-10.12.02-4.4.03-8.79.04-13.19,0-3.37,0-6.75.02-10.12.01-6.87.02-13.73.05-20.6v-.42c.01-3.24.03-6.47.05-9.71.03-4.39.06-8.78.09-13.18.03-3.37.05-6.75.07-10.12.04-5.66.06-11.31.07-16.97,0-2.24.53-2.93,2.87-2.98,27.16-.54,54.31-.44,81.46-.29,14.84.08,27.11,8.12,33.22,20.24,1.58,3.12,2.75,6.52,3.44,10.12.47,2.39.72,4.87.75,7.43.02,1.96-.04,3.88-.2,5.75-.29,3.54-.9,6.92-1.86,10.13Z"/>
      <path class="st1" d="M316.31,182.54v202.02h202.01v-202.02h-202.01ZM404.94,341.53c-3.04-.4-6.16-.31-9.24-.2-2.03.08-2.59-.61-2.58-2.62.02-2.33.03-4.66.04-6.98.01-3.38.02-6.75.02-10.12,0-4.39,0-8.79-.01-13.19v-5.8h.01v-4.32c0-6.87.02-13.73,0-20.6,0-3.38-.02-6.76-.04-10.13v-.12c-.02-2.13.53-2.76,2.72-2.74,15.32.1,30.64.1,45.96,0,2.4-.01,2.87.83,2.36,2.86h0c-.9,3.53-2.27,6.85-3.78,10.14-.03.07-.07.15-.1.22-.68,1.46-1.71,1.48-2.99,1.48-8.85-.04-17.69.08-26.53-.1-2.54-.06-2.98.78-2.97,3.08.02,5.31.03,10.62.03,15.92.01.47.01.94.01,1.41v23.3c0,2.44,0,4.88.01,7.33-.01.46-.01.92,0,1.39,0,2.26,0,4.53,0,6.8.01,2.22-.19,3.36-2.93,3ZM476.83,277.7c-2.38,8-6.92,14.93-14.02,20.6-.91.73-1.86,1.44-2.86,2.13-4.24,2.92-9.01,4.78-14.53,5.94.6.68,1.19,1.37,1.79,2.05,3.87,4.45,7.7,8.84,11.49,13.19,2.96,3.4,5.9,6.77,8.83,10.12,2.53,2.91,5.05,5.8,7.57,8.69-.68,1.11-1.59.64-2.32.65-5.24.12-10.5-.27-15.72.43-1.24.17-1.91-.33-2.59-1.17-2.34-2.87-4.67-5.73-7.01-8.6-2.75-3.37-5.5-6.74-8.26-10.12-3.58-4.39-7.16-8.79-10.75-13.19-.46-.56-.92-1.12-1.39-1.69-2.28-2.8-4.57-5.61-6.87-8.43-.73-.89-1.45-1.78-2.18-2.67,5.43,0,10.68.05,15.93-.01,12.06-.13,22.36-8.06,26.77-17.92,1.44-3.24,2.25-6.69,2.27-10.13,0-.35-.01-.69-.02-1.04-.16-4.15-.34-8.24-1.76-12.14-.13-.38-.28-.75-.44-1.12-1.59-3.65-3.62-6.68-6.14-9-3.81-3.52-8.71-5.43-14.81-5.47-22.01-.14-44.02-.02-66.03-.14-2.67-.02-2.35,1.4-2.35,3.08v35.96c0,6.87,0,13.73,0,20.6,0,3.37,0,6.75,0,10.12,0,4.4.01,8.79.02,13.19,0,3.37.01,6.75.03,10.12,0,2.09,0,4.19,0,6.28.02,2.99-.72,3.98-3.71,3.66-2.54-.28-5.16-.25-7.71-.01-2.63.24-3.46-.43-3.43-3.29.02-2.21.04-4.42.05-6.64.03-3.37.05-6.75.06-10.12.02-4.4.03-8.79.04-13.19,0-3.37,0-6.75.02-10.12.01-6.87.02-13.73.05-20.6v-.42c.01-3.24.03-6.47.05-9.71.03-4.39.06-8.78.09-13.18.03-3.37.05-6.75.07-10.12.04-5.66.06-11.31.07-16.97,0-2.24.53-2.93,2.87-2.98,27.16-.54,54.31-.44,81.46-.29,14.84.08,27.11,8.12,33.22,20.24,1.58,3.12,2.75,6.52,3.44,10.12.47,2.39.72,4.87.75,7.43.02,1.96-.04,3.88-.2,5.75-.29,3.54-.9,6.92-1.86,10.13Z"/>
      <path class="st1" d="M316.31,182.54v202.02h202.01v-202.02h-202.01ZM404.94,341.53c-3.04-.4-6.16-.31-9.24-.2-2.03.08-2.59-.61-2.58-2.62.02-2.33.03-4.66.04-6.98.01-3.38.02-6.75.02-10.12,0-4.39,0-8.79-.01-13.19v-5.8h.01v-4.32c0-6.87.02-13.73,0-20.6,0-3.38-.02-6.76-.04-10.13v-.12c-.02-2.13.53-2.76,2.72-2.74,15.32.1,30.64.1,45.96,0,2.4-.01,2.87.83,2.36,2.86h0c-.9,3.53-2.27,6.85-3.78,10.14-.03.07-.07.15-.1.22-.68,1.46-1.71,1.48-2.99,1.48-8.85-.04-17.69.08-26.53-.1-2.54-.06-2.98.78-2.97,3.08.02,5.31.03,10.62.03,15.92.01.47.01.94.01,1.41v23.3c0,2.44,0,4.88.01,7.33-.01.46-.01.92,0,1.39,0,2.26,0,4.53,0,6.8.01,2.22-.19,3.36-2.93,3ZM476.83,277.7c-2.38,8-6.92,14.93-14.02,20.6-.91.73-1.86,1.44-2.86,2.13-4.24,2.92-9.01,4.78-14.53,5.94.6.68,1.19,1.37,1.79,2.05,3.87,4.45,7.7,8.84,11.49,13.19,2.96,3.4,5.9,6.77,8.83,10.12,2.53,2.91,5.05,5.8,7.57,8.69-.68,1.11-1.59.64-2.32.65-5.24.12-10.5-.27-15.72.43-1.24.17-1.91-.33-2.59-1.17-2.34-2.87-4.67-5.73-7.01-8.6-2.75-3.37-5.5-6.74-8.26-10.12-3.58-4.39-7.16-8.79-10.75-13.19-.46-.56-.92-1.12-1.39-1.69-2.28-2.8-4.57-5.61-6.87-8.43-.73-.89-1.45-1.78-2.18-2.67,5.43,0,10.68.05,15.93-.01,12.06-.13,22.36-8.06,26.77-17.92,1.44-3.24,2.25-6.69,2.27-10.13,0-.35-.01-.69-.02-1.04-.16-4.15-.34-8.24-1.76-12.14-.13-.38-.28-.75-.44-1.12-1.59-3.65-3.62-6.68-6.14-9-3.81-3.52-8.71-5.43-14.81-5.47-22.01-.14-44.02-.02-66.03-.14-2.67-.02-2.35,1.4-2.35,3.08v35.96c0,6.87,0,13.73,0,20.6,0,3.37,0,6.75,0,10.12,0,4.4.01,8.79.02,13.19,0,3.37.01,6.75.03,10.12,0,2.09,0,4.19,0,6.28.02,2.99-.72,3.98-3.71,3.66-2.54-.28-5.16-.25-7.71-.01-2.63.24-3.46-.43-3.43-3.29.02-2.21.04-4.42.05-6.64.03-3.37.05-6.75.06-10.12.02-4.4.03-8.79.04-13.19,0-3.37,0-6.75.02-10.12.01-6.87.02-13.73.05-20.6v-.42c.01-3.24.03-6.47.05-9.71.03-4.39.06-8.78.09-13.18.03-3.37.05-6.75.07-10.12.04-5.66.06-11.31.07-16.97,0-2.24.53-2.93,2.87-2.98,27.16-.54,54.31-.44,81.46-.29,14.84.08,27.11,8.12,33.22,20.24,1.58,3.12,2.75,6.52,3.44,10.12.47,2.39.72,4.87.75,7.43.02,1.96-.04,3.88-.2,5.75-.29,3.54-.9,6.92-1.86,10.13Z"/>
    </g>
  </g>
</svg>